<svg xmlns="http://www.w3.org/2000/svg" width="1920" height="1080" viewBox="0 0 1920 1080"><defs><style>.cls-1{fill:#294a7a;}.cls-2{fill:#dce5e5;}.cls-3{fill:#1a376b;}.cls-4{fill:#122b60;}.cls-5{fill:#141e3d;}.cls-6{fill:#d16800;}.cls-7{fill:#d67513;}.cls-8{fill:#c14d1a;}.cls-9{fill:#e58410;}.cls-10{fill:#bbce46;}.cls-11{fill:#a8a424;}.cls-12{fill:#898011;}.cls-13{fill:#5c6b70;}.cls-14{fill:#8fa0a7;}.cls-15{fill:#25427c;}.cls-16{fill:#fff;}.cls-17{fill:#2d373a;}.cls-18{fill:#c8dced;opacity:0.31;}.cls-19{fill:#f6f0f7;}.cls-20{fill:#6f8087;}.cls-21,.cls-41{fill:#841000;}.cls-22{fill:#facf52;}.cls-23{fill:#05213a;}.cls-24{fill:#0a0a0a;}.cls-25{fill:#03355b;}.cls-26{fill:#c7e1ef;}.cls-27{fill:#6999c9;}.cls-28{fill:#b5d7e5;}.cls-29{fill:#8ab8dd;}.cls-30{fill:#242c47;}.cls-31{fill:#04090c;}.cls-32{fill:#ba4a52;}.cls-33{fill:#f7bcec;}.cls-34{fill:#d667c6;}.cls-35{fill:#ed7ac4;}.cls-36{fill:#4c141c;}.cls-37{fill:#b71a4e;}.cls-38{fill:#e56157;}.cls-39{fill:#b6c3cc;}.cls-40{fill:#dce1e2;}.cls-41{font-size:58px;}.cls-41,.cls-45{font-family:MrDarcy-Bol, Mr Darcy;}.cls-42{letter-spacing:-0.01em;}.cls-43{letter-spacing:-0.03em;}.cls-44{letter-spacing:-0.02em;}.cls-45{font-size:33px;fill:#0e1719;}.cls-46{letter-spacing:-0.04em;}.cls-47{letter-spacing:-0.01em;}.cls-48{letter-spacing:-0.02em;}.cls-49{letter-spacing:0em;}.cls-50{letter-spacing:-0.01em;}.cls-51{fill:#98acaf;}.cls-52{fill:#8094a0;}.cls-53,.cls-56{fill:#f3f8ff;}.cls-54{fill:#c7d1e0;}.cls-55{fill:#e4e9f2;}.cls-56{opacity:0.71;}.cls-57{fill:#930f0f;}</style></defs><g id="Layer_1" data-name="Layer 1"><rect class="cls-1" width="1920" height="1080"/></g><g id="Layer_4" data-name="Layer 4"><ellipse class="cls-2" cx="316.5" cy="395.46" rx="384.18" ry="396.46"/><path class="cls-3" d="M1921,1081H-47V501c79.81,1.81,206,2.37,360.5-7.5C734.26,466.63,907.72,350.13,1184,381l737,120Z"/><path class="cls-3" d="M484,481h16.31A34.41,34.41,0,0,1,497,470a35.39,35.39,0,0,1,3.31-19.55A43.22,43.22,0,0,0,487,468,42.26,42.26,0,0,0,484,481Z"/><path class="cls-3" d="M493,480h16.31A38.31,38.31,0,0,1,506,469c-2.3-16.44,7.14-29.37,10-33a75.7,75.7,0,0,0-20,31A71.47,71.47,0,0,0,493,480Z"/><path class="cls-3" d="M500,479h16.31c-.37-.25-6.52-4.46-6.31-12a14.5,14.5,0,0,1,6-11,22.8,22.8,0,0,0-13,10A22.46,22.46,0,0,0,500,479Z"/><path class="cls-3" d="M1093.31,380H1077a64.54,64.54,0,0,0,3.31-15.64,69.05,69.05,0,0,0-3.31-27.81,63.14,63.14,0,0,1,13.31,25A81.56,81.56,0,0,1,1093.31,380Z"/><path class="cls-3" d="M1084.31,378.58H1068a71.71,71.71,0,0,0,3.31-15.65c2.31-23.38-7.14-41.77-10-46.93a118.37,118.37,0,0,1,20,44.09A138.52,138.52,0,0,1,1084.31,378.58Z"/><path class="cls-3" d="M1077.31,377.16H1061a23.56,23.56,0,0,0,6.31-17.07c-.19-9.7-5.43-15.08-6-15.65,1.68.7,8.71,3.92,13,14.23A43.18,43.18,0,0,1,1077.31,377.16Z"/><path class="cls-3" d="M1205.11,285.91c-2.64,57.86-6.95,80.68-10.09,97.94l-42.16,2.22c.84-10,1.18-25.19-1.24-45.87-1.74-14.82-5.46-37.22-13.9-67.06l59.35,11.25.55.1.27.05.54.11Z"/><path class="cls-3" d="M1152.86,386.07l-6.19-5.05a260.26,260.26,0,0,0-2-42.85v-.1c0-.17,0-.35-.07-.53-.06-.48-.13-1-.19-1.45l-.09-.59,0-.13-.06-.47a263.88,263.88,0,0,0-11.62-48.35l5.09-13.41a456.21,456.21,0,0,1,12.75,58.28l.06.44c0,.35.1.7.14,1s.08.51.11.76c.3,2.17.58,4.36.84,6.54C1153.19,353.66,1154.22,369.85,1152.86,386.07Z"/><path class="cls-3" d="M1193.32,384.18a12.39,12.39,0,0,1,1.67-5.4,17.08,17.08,0,0,1,7.16-6.39,12.11,12.11,0,0,0-5.16,6.06,9.25,9.25,0,0,0-.19,5.46Z"/><path class="cls-3" d="M1156.59,386.43a20.88,20.88,0,0,0,2.27-4.6,54.87,54.87,0,0,0,1.54-8.14,51.14,51.14,0,0,1,.18,7,50.41,50.41,0,0,1-.51,5.44Z"/><path class="cls-3" d="M1147,383.37c-.4-1.23-.78-2.54-1.13-3.94-.48-1.94-.83-3.78-1.08-5.49a20.47,20.47,0,0,0,2.36,5.15,21.06,21.06,0,0,0,3.33,4Z"/><path class="cls-3" d="M1149.09,384.22a11.07,11.07,0,0,1-1.13-3.93,11.22,11.22,0,0,1,1-5.82,10,10,0,0,0-.19,5.46,10.39,10.39,0,0,0,2,4Z"/><path class="cls-3" d="M1146.15,383.73a14,14,0,0,1-.76-2.36,13.49,13.49,0,0,1-.31-3.13,5.34,5.34,0,0,0,.73,3.14,6,6,0,0,0,2,2Z"/><path class="cls-3" d="M1195,384.24a10,10,0,0,1,1.39-3.86,9.31,9.31,0,0,1,3.46-2.61s-2.94,2-2.67,4.2a3.25,3.25,0,0,0,1.29,2Z"/><polygon class="cls-3" points="1153.23 329.99 1150.83 333.62 1150.78 333.66 1144.69 338.17 1144.68 338.07 1144.61 337.55 1144.33 335.5 1144.32 335.37 1150.53 331.86 1150.53 331.86 1152.09 329.95 1152.29 316.5 1152.3 315.68 1153.23 329.99"/><path class="cls-3" d="M1152.76,329.86l-1.91,2.91-.18.13-6.06,4.64h0l-.28-2.05,0-.13-.06-.47,6.22-3.48.15-.09,1.2-1.67.44-13.89,0,.73Z"/><polygon class="cls-3" points="1199.84 288.95 1196.97 295.78 1197.17 294.99 1198.86 288.43 1197.62 284.49 1197.89 284.54 1198.43 284.65 1199.84 288.95"/><polygon class="cls-3" points="1199.27 288.79 1197.17 294.99 1196.81 296.05 1198.29 288.26 1197.07 284.39 1197.62 284.49 1197.89 284.54 1199.27 288.79"/><path class="cls-3" d="M675.11,470.94l-61.56,6.53-3.34-1.3-.94-8.84c1.78-.08,3.53-.49,5.31-.57l-.49-4.58,3.74-.39c-2-9.77-4.09-20.12-6.15-30.36,0-.1,0-.2-.06-.3s-.07-.36-.11-.54,0-.2-.06-.3h0c-1.28-6.36-2.55-12.67-3.8-18.74a33.69,33.69,0,0,1,7.47-20.65,42.79,42.79,0,0,1,13.24-10,20.56,20.56,0,0,1,8.38-1.88h.1a38.74,38.74,0,0,1,14.72,5.18h0a45,45,0,0,1,5.89,4.81l.5.49.29.29c.16.16.32.32.47.49a41.1,41.1,0,0,1,4.31,5.29l0,0a33.19,33.19,0,0,1,3.4,7.39q-1.59,26.16-3.19,52.32l3.3,2.63,2.4,2.4,3,1.33Z"/><polygon class="cls-3" points="667.15 456.56 667.28 457.87 672.55 456.98 671.04 456.14 667.15 456.56"/><polygon class="cls-3" points="672.83 462.91 678.1 462.02 676.51 460.53 672.62 460.94 672.83 462.91"/><path class="cls-3" d="M678.1,462l.9,8.51-65.43,6.94-.91-8.51,5-.53-.59-5.57,4.79-.51L611.51,410.8c-1.21-11.39,12.22-30.43,24.53-31.74l.8-.06c4.63-.21,9.89,1.89,14.72,5.18h0a45,45,0,0,1,5.89,4.81l.5.49.29.29c.16.16.32.32.47.49a41.1,41.1,0,0,1,4.31,5.29l0,0a22.22,22.22,0,0,1,4,9.64l.38,52.28,5.11-.55.59,5.57Z"/><path class="cls-3" d="M658.26,389.78c.16.16.32.32.47.49l-4.4,7.23-1.83,3.94,0-.19h0l.75-3.93,4.68-7.82Z"/><path class="cls-3" d="M658,389.49l.29.29-4.12,7.59-1.62,4,0-.14h0l.56-4,4.37-8.22Z"/><path class="cls-3" d="M622,431.08l-4.41,2.53-1.55-.09-4.37-2.09c0-.1,0-.2-.06-.3s-.07-.36-.11-.54l4.36,2.42,1.64.33h.08Z"/><path class="cls-3" d="M622,431.08l-4.38,2.27h-.12l-1.43-.08-4.46-2.13c0-.18-.07-.36-.11-.54s0-.2-.06-.3h0l4.45,2.47,1.7.34Z"/><path class="cls-3" d="M607.6,467.62a14.41,14.41,0,0,1,7,6.11,13.54,13.54,0,0,1,1.53,4.27h-4.58a11.75,11.75,0,0,0-4-10.38Z"/><path class="cls-3" d="M607,468.54a11.28,11.28,0,0,0,1.83,6.41,11.12,11.12,0,0,0,3,3.05h-2.74a9.27,9.27,0,0,1-1.84-2.75A9.93,9.93,0,0,1,607,468.54Z"/><path class="cls-3" d="M608.52,470.37a7,7,0,0,1,1.83,4.58,6.72,6.72,0,0,1-.75,3.05h2.75a9.22,9.22,0,0,0-.48-3.05A9.56,9.56,0,0,0,608.52,470.37Z"/><path class="cls-4" d="M906,581.07l-84.12-.29-4.32-2.25,0-12.08c2.42.16,4.84-.13,7.25,0l0-6.26,5.1,0c-1.27-13.48-2.54-27.78-3.81-41.91,0-.14,0-.28,0-.42l-.06-.75c0-.13,0-.27,0-.41h0c-.78-8.78-1.57-17.49-2.36-25.87a45.79,45.79,0,0,1,13.14-26.8,58.24,58.24,0,0,1,19.37-11.57,28.42,28.42,0,0,1,6.29-1.32,29,29,0,0,1,5.31,0l.14,0a52.25,52.25,0,0,1,19.11,9.17h0a60.93,60.93,0,0,1,7.25,7.38c.21.24.41.48.6.73s.23.28.34.43.39.48.57.73a56.69,56.69,0,0,1,5,7.79l0,0A46,46,0,0,1,904.42,488l-12.06,70.2,4.07,4,2.88,3.59,3.86,2.25Q904.6,574.58,906,581.07Z"/><polygon class="cls-4" points="897.4 560.46 897.39 562.25 904.64 561.83 902.72 560.48 897.4 560.46"/><polygon class="cls-4" points="904.13 569.88 911.38 569.46 909.46 567.22 904.14 567.2 904.13 569.88"/><path class="cls-4" d="M911.38,569.46l0,11.63-89.41-.31,0-11.63,6.77,0,0-7.6,6.55,0L829,490.43c.05-15.57,21-39.3,37.83-39.24.36,0,.73,0,1.1,0,6.27.4,13.07,4,19.11,9.17h0a60.93,60.93,0,0,1,7.25,7.38c.21.24.41.48.6.73s.23.28.34.43.39.48.57.73a56.69,56.69,0,0,1,5,7.79l0,0c2.51,4.75,4,9.49,4,13.62l-7.23,70.67,7,0,0,7.61Z"/><path class="cls-4" d="M895.27,469c.2.24.39.48.57.73l-7,9.12-3.05,5.05.08-.26h0l1.6-5.2,7.47-9.86C895.05,468.66,895.16,468.8,895.27,469Z"/><path class="cls-4" d="M894.93,468.52c.12.14.23.28.34.43l-6.67,9.64-2.8,5.2.05-.2h0l1.35-5.34,7.12-10.45C894.54,468,894.74,468.27,894.93,468.52Z"/><path class="cls-4" d="M840.21,519.38l-6.34,2.75-2.08-.35-5.59-3.46c0-.14,0-.28,0-.42l-.06-.75,5.52,3.91,2.17.7.08,0h0Z"/><path class="cls-4" d="M840.21,519.38,834,521.79h-.05l-.11,0-1.92-.33-5.71-3.53-.06-.75c0-.13,0-.27,0-.41h0l5.64,4,2.25.72Z"/><path class="cls-4" d="M815.33,566.6a19.62,19.62,0,0,1,8.58,9.28,18.4,18.4,0,0,1,1.43,6l-6.18-.67a16,16,0,0,0-3.83-14.61Z"/><path class="cls-4" d="M814.37,567.74a15.27,15.27,0,0,0,1.53,8.93,14.71,14.71,0,0,0,3.67,4.58l-3.71-.41a12.41,12.41,0,0,1-2.07-4A13.57,13.57,0,0,1,814.37,567.74Z"/><path class="cls-4" d="M816.16,570.44a9.45,9.45,0,0,1,1.8,6.46,8.89,8.89,0,0,1-1.47,4l3.72.41a12.62,12.62,0,0,0-.19-4.19A13.1,13.1,0,0,0,816.16,570.44Z"/><path class="cls-4" d="M526.5,606.92l-86.71-.06-4.46-2.31V592.1c2.49.15,5-.15,7.47,0v-6.45h5.25c-1.34-13.9-2.69-28.63-4-43.19,0-.14,0-.29,0-.43s-.05-.52-.07-.78,0-.28,0-.42v0c-.83-9-1.67-18-2.51-26.66a47.23,47.23,0,0,1,13.47-27.66,59.89,59.89,0,0,1,19.94-12,28.52,28.52,0,0,1,6.48-1.38,29.31,29.31,0,0,1,5.48,0l.13,0a54,54,0,0,1,19.74,9.4h0a63.19,63.19,0,0,1,7.5,7.58l.62.75.36.45.59.75a58.67,58.67,0,0,1,5.22,8s0,0,0,.05a47.38,47.38,0,0,1,3.65,10.8q-6.12,36.19-12.23,72.41l4.2,4.15,3,3.69,4,2.31Q525,600.23,526.5,606.92Z"/><polygon class="cls-4" points="517.55 585.7 517.55 587.54 525.02 587.09 523.03 585.7 517.55 585.7"/><polygon class="cls-4" points="524.52 595.39 531.99 594.93 530 592.62 524.52 592.62 524.52 595.39"/><path class="cls-4" d="M532,594.93v12l-92.18-.06v-12h7V587h6.75l-6.7-73.34c0-16.05,21.55-40.57,38.89-40.56.38,0,.75,0,1.13,0,6.47.39,13.5,4.1,19.74,9.4h0a63.19,63.19,0,0,1,7.5,7.58l.62.75.36.45.59.75a58.67,58.67,0,0,1,5.22,8s0,0,0,.05c2.6,4.89,4.15,9.77,4.15,14l-7.25,72.87H525v7.85Z"/><path class="cls-4" d="M515.1,491.36l.59.75-7.22,9.42-3.13,5.22.08-.27h0l1.63-5.36,7.68-10.2Z"/><path class="cls-4" d="M514.74,490.91l.36.45-6.86,10-2.87,5.36.05-.2h0l1.38-5.51,7.31-10.8Z"/><path class="cls-4" d="M458.47,543.51,452,546.37,449.8,546,444,542.46c0-.14,0-.29,0-.43s-.05-.52-.07-.78l5.7,4,2.24.71.09,0h0Z"/><path class="cls-4" d="M458.47,543.51,452,546H452l-.11,0-2-.33L444,542c0-.26-.05-.52-.07-.78s0-.28,0-.42v0l5.82,4.1,2.33.74Z"/><path class="cls-4" d="M433,592.26a20.25,20.25,0,0,1,8.88,9.55,19.08,19.08,0,0,1,1.49,6.18L437,607.3a16.51,16.51,0,0,0-4-15Z"/><path class="cls-4" d="M432,593.44a15.73,15.73,0,0,0,1.59,9.2,15.49,15.49,0,0,0,3.8,4.71l-3.82-.41a12.83,12.83,0,0,1-2.15-4.1A13.93,13.93,0,0,1,432,593.44Z"/><path class="cls-4" d="M433.83,596.22a9.74,9.74,0,0,1,1.87,6.65,9.23,9.23,0,0,1-1.5,4.14l3.83.41a12.91,12.91,0,0,0-.2-4.32A13.48,13.48,0,0,0,433.83,596.22Z"/><path class="cls-3" d="M1386.54,421.12l-104.3-18.85-4.86-3.74,2.71-15c3,.72,6,.9,9,1.62l1.4-7.76,6.32,1.14c1.39-17,3-35,4.49-52.83,0-.17,0-.35,0-.53s.05-.63.08-.94,0-.35,0-.52v0c1-11.07,1.88-22,2.75-32.62a57.81,57.81,0,0,1,22.19-30.36A73.33,73.33,0,0,1,1353,250.64a34.64,34.64,0,0,1,8.09-.26,35.62,35.62,0,0,1,6.59,1.19l.16.07a66.23,66.23,0,0,1,21.7,15.58l0,0a76.82,76.82,0,0,1,7.37,10.75c.2.34.4.69.59,1l.33.61c.19.34.37.68.55,1a70.27,70.27,0,0,1,4.54,10.77s0,.05,0,.07a58.08,58.08,0,0,1,2,13.78l-30.39,84.45,4.16,5.91,2.79,5.09,4.3,3.64C1386.08,410,1386.32,415.54,1386.54,421.12Z"/><polygon class="cls-3" points="1380.37 393.65 1379.97 395.87 1389.06 396.94 1386.96 394.84 1380.37 393.65"/><polygon class="cls-3" points="1386.65 406.81 1395.74 407.88 1393.85 404.68 1387.26 403.49 1386.65 406.81"/><path class="cls-3" d="M1395.74,407.89l-2.6,14.42-110.87-20,2.61-14.43,8.39,1.52,1.7-9.43,8.12,1.46,7.82-89.67c3.49-19.3,34.71-44.14,55.56-40.37.46.08.91.17,1.36.28,7.69,1.88,15.34,7.86,21.7,15.58l0,0a76.82,76.82,0,0,1,7.37,10.75c.2.34.4.69.59,1l.33.61c.19.34.37.68.55,1a70.27,70.27,0,0,1,4.54,10.77s0,.05,0,.07c2.07,6.44,2.87,12.65,2,17.77l-24.5,86.09,8.66,1.57-1.71,9.43Z"/><path class="cls-3" d="M1397.84,279.64c.19.34.37.68.55,1l-10.72,9.77-4.9,5.6.16-.3v0l3.13-6.1L1397.51,279Z"/><path class="cls-3" d="M1397.51,279l.33.61-10.4,10.49-4.61,5.83.1-.22v0l2.85-6.33,11.13-11.4C1397.12,278.33,1397.32,278.68,1397.51,279Z"/><path class="cls-3" d="M1318.43,330.11l-8.46,2-2.5-.89-6.18-5.52c0-.17,0-.35,0-.53s.05-.63.08-.94l6,6.06,2.54,1.34.1.05h0Z"/><path class="cls-3" d="M1318.43,330.11l-8.29,1.61-.06,0-.13-.05-2.31-.83-6.3-5.63c0-.31.05-.63.08-.94s0-.35,0-.52v0l6.11,6.19,2.64,1.39Z"/><path class="cls-3" d="M1277.2,383.23a24.79,24.79,0,0,1,8.6,13.4,23.41,23.41,0,0,1,.46,7.76l-7.53-2.2a20.14,20.14,0,0,0-1.53-19Z"/><path class="cls-3" d="M1275.75,384.44a19.39,19.39,0,0,0-.07,11.41,18.87,18.87,0,0,0,3.55,6.49l-4.51-1.32a15.77,15.77,0,0,1-1.69-5.4A17.07,17.07,0,0,1,1275.75,384.44Z"/><path class="cls-3" d="M1277.38,388.18a11.92,11.92,0,0,1,.81,8.41,11.34,11.34,0,0,1-2.7,4.66l4.52,1.32a16.08,16.08,0,0,0,.69-5.25A16.46,16.46,0,0,0,1277.38,388.18Z"/><path class="cls-4" d="M1130.65,539.54q-.15,5.37,0,10.49c-14.94,0-44.72,4.7-44.72,4.7a32.71,32.71,0,0,0-2.13-4.42,295.36,295.36,0,0,0-12.56-60.67q-1.62-5.06-3.37-9.92c2.77.91,6.46,1.63,9.19,0a4.47,4.47,0,0,0,1.17-1,3.46,3.46,0,0,0,.22-.31l.14-.21c.06-.11.12-.22.17-.33,1.9-3.93-1.15-11,4.12-15.72,11.63-10.49,33.68-11.91,46.55-2.55,5.25,6.25,5.22,17.65,5.2,19.14v1.84a7.64,7.64,0,0,0,5.8,0,6.91,6.91,0,0,0,1.55,1.13,8.58,8.58,0,0,0,5.21.85C1140.85,499.75,1131.31,516.48,1130.65,539.54Z"/><path class="cls-4" d="M1134.38,552.05l-48.45,2.68c0-3.06.2-7.2,0-10.37a194.85,194.85,0,0,0-14.09-61.81,17.36,17.36,0,0,0,5.21.57,16.9,16.9,0,0,0,2.45-.28c.1-.07.34-.22.61-.43,5.93-4.46,1.65-13.64,4.9-18,8.12-10.89,33.93-12.77,46-3.9l.12.09c.21.16.42.32.62.49l.18.14a18.16,18.16,0,0,1,2.07,2c5.25,6.26,5.22,17.66,5.21,19.14v.14a11.67,11.67,0,0,0,2.45.57,12.42,12.42,0,0,0,5.51-.57C1140.85,499.75,1134.28,548.63,1134.38,552.05Z"/><path class="cls-4" d="M1132.64,553.36a9,9,0,0,1,1.08-4,12.39,12.39,0,0,1,5-4.82,8.79,8.79,0,0,0-3.6,4.54,6.68,6.68,0,0,0,0,4Z"/><path class="cls-4" d="M1085.72,554.94a16,16,0,0,0,1.53-3.4,40.71,40.71,0,0,0,.92-6,37.75,37.75,0,0,1,.3,5.1,37,37,0,0,1-.23,4Z"/><path class="cls-4" d="M1084.84,555c-.32-.89-.63-1.83-.92-2.84-.4-1.4-.69-2.73-.92-4a14.93,14.93,0,0,0,1.84,3.69,15.63,15.63,0,0,0,2.52,2.83Z"/><path class="cls-4" d="M1085.37,554.93a8.36,8.36,0,0,1-.92-2.83,8.18,8.18,0,0,1,.62-4.25,7.24,7.24,0,0,0,0,4,7.64,7.64,0,0,0,1.53,2.83Z"/><path class="cls-4" d="M1083.1,553.24a9.75,9.75,0,0,1-.61-1.7,9.92,9.92,0,0,1-.31-2.27,3.94,3.94,0,0,0,.62,2.27,4.3,4.3,0,0,0,1.53,1.42Z"/><path class="cls-4" d="M1134.08,553.1a7.34,7.34,0,0,1,.92-2.83,6.82,6.82,0,0,1,2.45-2s-2.09,1.55-1.84,3.12a2.4,2.4,0,0,0,1,1.42Z"/><path class="cls-4" d="M1085.39,485.8l-3.85-4.68-3.31-2.41a3.46,3.46,0,0,0,.22-.31l.14-.21,3.5,2.1Z"/><path class="cls-4" d="M1085.39,485.8l-3.58-5-3.36-2.44.14-.21c.06-.11.12-.22.17-.33l3.6,2.16Z"/><path class="cls-4" d="M1132,461.23l-.9,3.38-10.18,2.76,9.35-3.31.93-3.46c.21.16.42.32.62.49Z"/><path class="cls-4" d="M1131.77,461.09l-1,3.25-9.9,3,9.35-3.86.81-3,.12.09C1131.36,460.76,1131.57,460.92,1131.77,461.09Z"/><path class="cls-5" d="M1953,1098l-2303,20c-13.3-49.71-110.11-432.46,105-655,220.59-228.21,620.84-134.48,798-93,291.76,68.32,355.62,180.89,645,273,299.61,95.37,573.18,83.57,762,57Q1956.51,899,1953,1098Z"/><path class="cls-5" d="M1192,502a28.61,28.61,0,0,1,19,31l-19,2.15a26.18,26.18,0,0,0,6-15.15A26.45,26.45,0,0,0,1192,502Z"/><path class="cls-5" d="M1195,482a69.3,69.3,0,0,1,22,30,67.1,67.1,0,0,1,4,19l-19,2.15a37.69,37.69,0,0,0,6-15.15C1211,498.74,1197.07,484.11,1195,482Z"/><path class="cls-5" d="M1233,499a44.54,44.54,0,0,0-10,30l-12,3.15a58.11,58.11,0,0,1,6-15.15A58.72,58.72,0,0,1,1233,499Z"/><path class="cls-6" d="M469,337.79c-8.84,11-36.59,4.65-36.69,4.61-19.55-7.36-18.18,5.29-36.83-10.52-14.58-19.82,17-42.85,37.92-36.23l1.07.32c1.27.37,2.5.67,3.68.92l.65.13c1.54.3,3,.51,4.38.68,12.29,1.43,19.55-1,29.3,19C476.29,324.52,474,331.49,469,337.79Z"/><path class="cls-7" d="M449.27,315.2c-.52,5.91-3.12,12.42-7.63,19.52-1.29,2-2.63,6.44-3.91,8.65-1.7.16-5.59-1.06-5.69-1.05a11.22,11.22,0,0,0,1.54-1.93c.81-1.7,1.59-4,2.34-5.83h0a49.94,49.94,0,0,0,3.81-14.33,43.5,43.5,0,0,0-3.71-21c-.21-.46-.42-.91-.64-1.36a12.81,12.81,0,0,1,3.36,2.13c.34-.1,1.08-.6,1.32-.29s.44.57.68.85C443.8,304.19,449.63,311.14,449.27,315.2Z"/><path class="cls-8" d="M416.35,328.85c-2.18-5.73-1.91-10.57,2.44-17.53,3-4.85,12.88-12.21,12.68-12C416.39,311.41,414.7,321.33,416.35,328.85Z"/><path class="cls-8" d="M394,329.62a15.94,15.94,0,0,1,.13-18.76c6.82-9.94,14.86-12,14.86-12A28.38,28.38,0,0,0,394,329.62Z"/><path class="cls-9" d="M465.39,310.67c.61,1.15,2.53,13.78-4,19.84-2.46,2.29-5.82,3.37-6.3,2.63s2.95-3.55,6.06-9.17C465.18,316.78,464.81,310.57,465.39,310.67Z"/><path class="cls-8" d="M465.33,310.51c2.48,5.55,2.48,10.4-1.37,17.72-2.64,5-11.58,13.09-11.39,12.91C466.28,327.86,467.38,317.91,465.33,310.51Z"/><path class="cls-10" d="M440.41,299.79l-2.32.38,2-13.47,4.41,1a52.77,52.77,0,0,0-3.51,8.26A11.7,11.7,0,0,0,440.41,299.79Z"/><path class="cls-11" d="M438.09,300.17l-1-1.35c.63-1.46.45-.87.57-3.08a65.46,65.46,0,0,0-.42-10.21l2.83,1.17Z"/><polygon class="cls-12" points="444.51 287.7 440.05 286.72 437.25 285.54 441.73 286.51 444.51 287.7"/><path class="cls-8" d="M446.08,300.19c-.3,0-.63-.05-1-.06a18.35,18.35,0,0,0-4.35.42l-.61.15-.5.14a13.54,13.54,0,0,1,1,1.22,14.91,14.91,0,0,1,2.24,4.28c0,.13.09.27.14.41a21.79,21.79,0,0,0-1.39-2.24,20,20,0,0,0-3-3.36h0c-.33-.29-.66-.56-1-.81-.55-.42-1.1-.78-1.63-1.11a17.59,17.59,0,0,0-6.94-2.4l2.2.09a11.53,11.53,0,0,1,4.1.95,12.81,12.81,0,0,1,3.36,2.13c.34-.1.68-.17,1-.24l.3-.05a12.66,12.66,0,0,1,4.82.16l.76.2Z"/><path class="cls-9" d="M418.66,295.48c-.51-.86-12.13,2.94-14.27,12.33-.81,3.53-.18,7.5.66,7.71s1.64-4.56,4.93-10.14C414.19,298.24,419,296.06,418.66,295.48Z"/><path class="cls-13" d="M611.63,162.91c-6.58,144.42-17.35,201.4-25.19,244.47l-105.25,5.55c2.1-25.07,3-62.89-3.09-114.5-4.34-37-13.63-92.93-34.69-167.41l148.15,28.09,1.37.25.67.13,1.36.26Z"/><path class="cls-14" d="M481.19,412.93l-15.45-12.6a648.79,648.79,0,0,0-4.94-107l0-.23c0-.44-.11-.88-.17-1.33-.15-1.2-.32-2.4-.48-3.61l-.21-1.49-.05-.32c-.05-.39-.1-.79-.16-1.17a658.93,658.93,0,0,0-29-120.69L443.41,131c12.09,42.75,24.25,93.15,31.81,145.48.06.37.11.74.15,1.1.14.87.26,1.75.37,2.61.1.63.19,1.26.26,1.88q1.14,8.15,2.1,16.34C482,332,484.6,372.44,481.19,412.93Z"/><path class="cls-15" d="M582.2,408.21a30.76,30.76,0,0,1,4.18-13.49c5.25-9,13.83-13.93,17.86-15.93-2.73,1.67-9.93,6.57-12.89,15.13a23.18,23.18,0,0,0-.46,13.61Z"/><path class="cls-15" d="M490.52,413.83a52.92,52.92,0,0,0,5.65-11.49s1.58-4.56,3.85-20.31a131.43,131.43,0,0,1,.45,17.54,130.07,130.07,0,0,1-1.27,13.59Z"/><path class="cls-15" d="M466.59,406.2c-1-3.07-1.95-6.35-2.82-9.83-1.2-4.86-2.07-9.46-2.68-13.72A49.94,49.94,0,0,0,467,395.5a53.12,53.12,0,0,0,8.31,10Z"/><path class="cls-15" d="M471.78,408.32a27.6,27.6,0,0,1-.22-24.34,25,25,0,0,0-.47,13.61,26,26,0,0,0,4.92,9.9Z"/><path class="cls-15" d="M464.46,407.1a33.5,33.5,0,0,1-2.69-13.72,13.3,13.3,0,0,0,1.84,7.85,14.68,14.68,0,0,0,5.08,5Z"/><path class="cls-15" d="M586.4,408.35c0-.93,1.39-6.89,3.49-9.61a23.09,23.09,0,0,1,8.63-6.52s-7.34,5.06-6.66,10.48a8,8,0,0,0,3.23,5Z"/><polygon class="cls-16" points="482.13 272.94 476.11 282.01 476 282.09 460.8 293.35 460.77 293.12 460.59 291.8 459.91 286.69 459.86 286.37 475.37 277.6 475.38 277.6 479.28 272.85 479.76 239.26 479.79 237.21 482.13 272.94"/><path class="cls-17" d="M480.94,272.61l-4.75,7.26-.45.34L460.6,291.79h0l-.68-5.11-.05-.32c-.05-.39-.1-.79-.16-1.17l15.52-8.7.38-.21,3-4.18,1.1-34.67.07,1.82Z"/><polygon class="cls-16" points="598.47 170.48 591.3 187.55 591.81 185.58 596.02 169.18 592.93 159.36 593.6 159.49 594.96 159.75 598.47 170.48"/><polygon class="cls-17" points="597.06 170.08 591.81 185.58 590.91 188.21 594.61 168.78 591.56 159.11 592.93 159.36 593.6 159.49 597.06 170.08"/><path class="cls-18" d="M-162.45,3.07C162,177.09,422,209.05,600.68,205.48c235.21-4.7,300.59-70.37,592.77-53,107.24,6.37,252.6,24.38,471.91,11.95,79.16-4.49,144.24-11.6,187.89-17.08a720.42,720.42,0,0,0,200.17-23.57A714.45,714.45,0,0,0,2154,89a716.48,716.48,0,0,0-202.6-13.57c-91.58,7.06-154,30.17-193,41.88C1608,162.59,1484.08,135.61,1344,119.8,884.67,68,760.15,193.49,405.36,114.15c-129.19-28.89-311.42-90-517.53-235.07Z"/><path class="cls-14" d="M1850.57,763.17,1648,754.22l-10.19-5.86,1.29-29.08c5.8.61,11.65.15,17.46.77l.66-15.08,12.28.54c-1.73-32.6-3.38-67.15-5-101.31,0-.33,0-.68,0-1,0-.61-.05-1.21-.08-1.82,0-.32,0-.66,0-1v0c-1-21.23-2.08-42.26-3.16-62.53,1.8-10.65,8.27-39.77,34.28-63.27,0,0,20.5-18,47.8-26a67.11,67.11,0,0,1,28.07-2l.31.1a126.05,126.05,0,0,1,45.15,24s0,0,0,0a146.35,146.35,0,0,1,16.74,18.47c.47.6.93,1.21,1.38,1.82l.78,1.07c.44.6.88,1.2,1.3,1.82a133.83,133.83,0,0,1,11.38,19.26.43.43,0,0,1,.05.12,110.23,110.23,0,0,1,7.42,25.6q-18,84-35.92,167.9l9.4,10.13,6.6,8.94,9.07,5.79Q1847.78,747.39,1850.57,763.17Z"/><polygon class="cls-14" points="1831.82 712.68 1831.63 716.99 1849.13 716.68 1844.62 713.25 1831.82 712.68"/><polygon class="cls-14" points="1847.11 736.03 1864.62 735.72 1860.2 730.13 1847.4 729.56 1847.11 736.03"/><path class="cls-13" d="M1864.62,735.72l-1.24,28-215.32-9.51,1.23-28,16.3.72.81-18.33,15.77.7-8.2-172c1.66-37.49,54.47-92.59,95-90.8.88,0,1.76.1,2.64.2,15.08,1.58,31.11,10.94,45.15,24,0,0,0,0,0,0a146.35,146.35,0,0,1,16.74,18.47c.47.6.93,1.21,1.38,1.82l.78,1.07c.44.6.88,1.2,1.3,1.82a133.83,133.83,0,0,1,11.38,19.26.43.43,0,0,1,.05.12c5.58,11.68,8.7,23.25,8.26,33.2l-24.34,169.49,16.82.74-.81,18.32Z"/><path class="cls-19" d="M1835.67,492.05c.44.6.88,1.2,1.3,1.82l-17.81,21.28L1811.32,527l.22-.61v0l4.36-12.36,19-23Z"/><path class="cls-17" d="M1834.89,491l.78,1.07-17,22.56-7.24,12.25.14-.46v0l3.78-12.74,18.18-24.47C1834,489.76,1834.44,490.37,1834.89,491Z"/><path class="cls-16" d="M1698.09,608.12l-15.53,6-5-1.06-13.13-8.87c0-.33,0-.68,0-1,0-.61-.05-1.21-.08-1.82l12.91,10,5.16,1.89.2.08.06,0Z"/><path class="cls-17" d="M1698.09,608.12l-15.3,5.18-.13,0-.26,0-4.59-1-13.4-9.06c0-.61-.05-1.21-.08-1.82,0-.32,0-.66,0-1v0l13.18,10.17,5.36,2Z"/><path class="cls-15" d="M1633.54,719.41c4.21,2.55,14.63,9.69,19.76,23.21a44.44,44.44,0,0,1,2.86,14.58L1641.32,755a38.54,38.54,0,0,0-7.78-35.56Z"/><path class="cls-15" d="M1631.12,722.07a37,37,0,0,0,2.8,21.67,36.14,36.14,0,0,0,8.39,11.38l-8.9-1.35a30.54,30.54,0,0,1-4.59-9.79A32.7,32.7,0,0,1,1631.12,722.07Z"/><path class="cls-15" d="M1635.17,728.75a22.77,22.77,0,0,1,3.69,15.73,21.69,21.69,0,0,1-3.92,9.52l8.9,1.35a30.17,30.17,0,0,0,0-10.12A31.58,31.58,0,0,0,1635.17,728.75Z"/><g id="gravsten"><polygon class="cls-14" points="1598.99 577.66 1427.8 595.81 1408.2 588.8 1579.38 570.65 1598.99 577.66"/><path class="cls-14" d="M1554.94,575.36c-30.18,2.39-68.3,8.47-98.12,14.22-3.6-.42-7.06-.18-10.84-.75-12.77-47.78-20.77-95.85-30.51-142.72-6.45-31,18.53-46.3,59-52.53,3.22-.5,10.47-1.06,13.64-1.27,39.86-2.64,71.43,7.44,70.81,38.13C1558,477.47,1555.59,528.18,1554.94,575.36Z"/><path class="cls-13" d="M1558.82,431c-.32,35.36-2.08,72.67-3.14,109.07,0,.53,0,1.05,0,1.57l0,1.15c0,.52,0,1,0,1.56-.3,10.62-.52,21.15-.62,31.53-30,2.17-68.65,8.29-97.83,13.6-10.45-46.74-18.65-98.08-31.58-144.47-8.43-30.27,31.55-48.26,57-51.51l4.72-.59C1529.7,390.16,1559.09,400.38,1558.82,431Z"/><rect class="cls-13" x="1427.84" y="586.71" width="172.15" height="11.62" transform="translate(-54.04 162.94) rotate(-6.05)"/><polygon class="cls-20" points="1428.93 607.38 1409.69 602.88 1408.2 588.8 1427.8 595.81 1428.93 607.38"/><path class="cls-16" d="M1555.63,541.62l0,1.15c0,.52,0,1,0,1.56l-11.88-3.69-16.85-22-.27-.35,19.13,20.47Z"/><path class="cls-17" d="M1555.68,540.05c0,.53,0,1.05,0,1.57l0,1.15L1543.5,539l-16.67-20.35-1.11-1.36,19.8,19.85Z"/></g><path class="cls-14" d="M700.75,877.51q-.66,22.79,0,44.55c-63.47,0-190,20-190,20s-5.6-13.94-9.07-18.76a1252.52,1252.52,0,0,0-53.32-257.71q-6.88-21.51-14.32-42.16c11.78,3.88,27.45,6.94,39,0a18.33,18.33,0,0,0,5-4.28,13.33,13.33,0,0,0,.95-1.32c.2-.29.39-.58.56-.88.27-.46.53-.94.75-1.42,8.08-16.67-4.87-46.61,17.48-66.76,49.44-44.55,143.1-50.58,197.75-10.83,22.28,26.54,22.17,75,22.1,81.28V627a32.52,32.52,0,0,0,24.61,0,31.08,31.08,0,0,0,6.62,4.82c9,4.87,18.28,4.13,22.11,3.61C744.05,708.47,703.55,779.56,700.75,877.51Z"/><path class="cls-13" d="M716.58,930.65,510.77,942c-.09-13,.83-30.56.05-44C505.07,798.57,481.2,710.4,451,635.45a74,74,0,0,0,22.12,2.4,70.94,70.94,0,0,0,10.41-1.2c.43-.28,1.43-.92,2.59-1.8,25.17-19,7-58,20.83-76.47,34.5-46.26,144.1-54.24,195.4-16.57l.53.38c.91.68,1.79,1.37,2.65,2.07.26.2.52.41.76.62a72.18,72.18,0,0,1,8.8,8.67c22.29,26.56,22.18,75,22.11,81.3v.6a51.1,51.1,0,0,0,10.41,2.4,53.64,53.64,0,0,0,23.41-2.4C744.05,708.47,716.15,916.14,716.58,930.65Z"/><path class="cls-15" d="M709.2,936.21a38,38,0,0,1,4.59-16.86c6.12-11.41,16.52-17.83,21.43-20.48-3.31,2.2-12,8.55-15.31,19.27a28.78,28.78,0,0,0,0,16.86Z"/><path class="cls-15" d="M509.87,942.91a65.8,65.8,0,0,0,6.51-14.45s1.76-5.71,3.9-25.29a164,164,0,0,1,1.3,21.68,160.4,160.4,0,0,1-1,16.86Z"/><path class="cls-15" d="M506.15,943.12c-1.37-3.76-2.69-7.78-3.9-12a172.51,172.51,0,0,1-3.9-16.86,62,62,0,0,0,7.8,15.65,65.4,65.4,0,0,0,10.72,12Z"/><path class="cls-15" d="M508.41,942.9a34.17,34.17,0,0,1-1.31-30.11,31.13,31.13,0,0,0,0,16.86,32.41,32.41,0,0,0,6.51,12Z"/><path class="cls-15" d="M498.76,935.72a42.46,42.46,0,0,1-2.6-7.23,41.15,41.15,0,0,1-1.3-9.63,16.52,16.52,0,0,0,2.6,9.63,18.22,18.22,0,0,0,6.51,6Z"/><path class="cls-15" d="M715.31,935.12c0-1.15,1.43-8.59,3.9-12a28.69,28.69,0,0,1,10.41-8.43s-8.87,6.58-7.81,13.25c.44,2.75,2.54,4.76,4.21,6Z"/><path class="cls-16" d="M508.47,649.21l-16.36-19.86-14.05-10.23a13.33,13.33,0,0,0,.95-1.32c.2-.29.39-.58.56-.88l14.88,8.92Z"/><path class="cls-17" d="M508.47,649.21l-15.19-21L479,617.8c.2-.29.39-.58.56-.88.27-.46.53-.94.75-1.42l15.3,9.17Z"/><path class="cls-16" d="M706.26,544.88l-3.83,14.36L659.2,570.93l39.72-14,3.93-14.72c.91.68,1.79,1.37,2.65,2.07C705.76,544.46,706,544.67,706.26,544.88Z"/><path class="cls-17" d="M705.5,544.26l-4.24,13.81L659.2,570.93l39.72-16.36,3.4-12.76.53.38C703.76,542.87,704.64,543.56,705.5,544.26Z"/><path class="cls-14" d="M335.21,1135.13.43,1160.54l-17.9-7.62-3.65-48.16c9.66-.13,19.18-2,28.86-2.19l-1.9-25,20.29-1.54c-9.31-53.33-18.87-109.9-28.39-165.81-.08-.55-.18-1.11-.28-1.66-.16-1-.33-2-.5-3-.08-.54-.18-1.08-.28-1.62v-.07c-5.9-34.75-11.8-69.18-17.59-102.35.85-17.88,5.7-67.11,43.81-111,0,0,30.12-33.75,73.43-52.2a110.9,110.9,0,0,1,24.6-7.26,112.5,112.5,0,0,1,21.15-1.6l.53.1a208.9,208.9,0,0,1,79,30.51l.08.05a243.73,243.73,0,0,1,31.17,27.1c.89.9,1.77,1.81,2.63,2.72.5.53,1,1.06,1.5,1.61.84.9,1.68,1.81,2.5,2.73A222.62,222.62,0,0,1,282,723.86a.86.86,0,0,1,.11.19,182.07,182.07,0,0,1,17.27,40.69q-12.87,141.78-25.76,283.58l17.46,14.82q6.31,6.69,12.62,13.4l16.07,7.74Q327.47,1109.71,335.21,1135.13Z"/><polygon class="cls-14" points="294.37 1055.71 294.91 1062.85 323.62 1058.88 315.52 1054.11 294.37 1055.71"/><polygon class="cls-14" points="324.14 1091.13 352.85 1087.15 344.48 1078.82 323.32 1080.42 324.14 1091.13"/><path class="cls-13" d="M352.86,1087.16l3.51,46.37-355.85,27L-3,1114.16l26.94-2-2.3-30.33,26.05-2L.12,798.2C-4.59,736.14,71.3,634.94,138.24,629.86c1.45-.11,2.9-.18,4.37-.19,25.09-.39,53.31,11.86,79,30.51l.08.05a243.73,243.73,0,0,1,31.17,27.1c.89.9,1.77,1.81,2.63,2.72.5.53,1,1.06,1.5,1.61.84.9,1.68,1.81,2.5,2.73A222.62,222.62,0,0,1,282,723.86a.86.86,0,0,1,.11.19c11.49,18.12,18.91,36.55,20.15,53L295.83,1061l27.8-2.11,2.3,30.33Z"/><path class="cls-19" d="M257,691.66c.84.9,1.68,1.81,2.5,2.73L234.4,733l-10.54,21.09.24-1V753l4.72-21.22,26.63-41.68C256,690.58,256.46,691.11,257,691.66Z"/><path class="cls-17" d="M255.46,690.05c.5.53,1,1.06,1.5,1.61l-23.52,40.53L224,753.79l.14-.78V753l3.7-21.72,25-43.9C253.72,688.23,254.6,689.14,255.46,690.05Z"/><path class="cls-16" d="M53.8,910,29.47,923l-8.39-.75-23.34-12c-.08-.55-.18-1.11-.28-1.66-.16-1-.33-2-.5-3l23.2,13.84L29,921.55l.34.09.09,0Z"/><path class="cls-17" d="M53.8,910,29.67,921.62l-.21,0-.43,0-7.75-.69L-2.54,908.6c-.16-1-.33-2-.5-3-.08-.54-.18-1.08-.28-1.62v-.07l23.69,14.12,9.2,2.17Z"/><path class="cls-15" d="M-35.82,980.69c12.46,7.67,37.36,25.43,54.06,57.94a144.89,144.89,0,0,1,14.91,49l-36,7.13a95.29,95.29,0,0,0,6.78-41C1.36,1011.65-29.42,985.84-35.82,980.69Z"/><path class="cls-15" d="M25.1,1016.86A126.27,126.27,0,0,1,44.32,1062a122.29,122.29,0,0,1,2.55,22.94l-26.19,5.17a71.57,71.57,0,0,0,10.9-25.56C36.29,1041.84,28.33,1023.42,25.1,1016.86Z"/><path class="cls-6" d="M645.26,427.89c-14.9,19.37-63.06,9.25-63.23,9.18-34-12.06-31.23,9.75-64-16.95-25.84-33.75,27.89-74.59,64.31-63.85l1.85.52c2.21.6,4.34,1.08,6.39,1.47l1.13.2c2.66.47,5.18.79,7.59,1,21.27,2.07,33.73-2.42,51.23,31.8C657.43,404.72,653.76,416.84,645.26,427.89Z"/><path class="cls-7" d="M610.43,389.52c-.7,10.22-5,21.56-12.53,34-2.16,3.55-4.33,11.21-6.46,15.06-2.93.34-9.69-1.65-9.87-1.61a19.8,19.8,0,0,0,2.6-3.4c1.33-2.95,2.61-6.91,3.86-10.14h0c3-7.83,5.53-16.35,6.11-24.89A75.05,75.05,0,0,0,587,362.35c-.36-.78-.74-1.56-1.13-2.33a22.11,22.11,0,0,1,5.86,3.56c.58-.17,1.85-1.06,2.27-.53s.79,1,1.21,1.45C600.61,370.68,610.92,382.48,610.43,389.52Z"/><path class="cls-8" d="M554,414.2c-4-9.84-3.65-18.19,3.64-30.37,5.07-8.48,21.85-21.52,21.5-21.23C553.51,384.06,550.92,401.26,554,414.2Z"/><path class="cls-8" d="M515.42,416.27c-6.08-8.47-8.28-20.46-.41-32.41,11.45-17.4,25.28-21.26,25.28-21.26C518.11,374.63,511.22,398.55,515.42,416.27Z"/><path class="cls-9" d="M638.13,381.15c1.1,2,4.84,23.73-6.18,34.42-4.17,4-9.93,6-10.8,4.75-1-1.44,5-6.24,10.17-16.05C638,391.71,637.13,381,638.13,381.15Z"/><path class="cls-8" d="M638,380.87c4.48,9.52,4.63,17.89-1.78,30.67-4.39,8.74-19.56,23-19.24,22.68C640.24,410.83,641.82,393.6,638,380.87Z"/><path class="cls-21" d="M628.4,421.5v.07c-.49,1.63-18.48,6.27-40.79,3.11-23.94-3.4-42.05-14.25-41.46-16,.05-.14.2-.21.46-.22,2.95-.09,18.94,7.44,31.89,3,1.86-.64,7.38-2.81,13.36-.91a16.53,16.53,0,0,1,5,2.58C607.16,420.55,628.36,419.82,628.4,421.5Z"/><path class="cls-22" d="M628.4,421.5v.07c-.49,1.63-18.48,6.27-40.79,3.11-23.94-3.4-42.05-14.25-41.46-16,.05-.14.2-.21.46-.22a111.45,111.45,0,0,0,81.8,13.05Z"/><path class="cls-21" d="M549.38,385.15c.41-.13,1.22-.36,2.34-.61a35.09,35.09,0,0,1,6.89-.81,24.37,24.37,0,0,1,15.5,4.8,23,23,0,0,1,4.49,4.68,57.65,57.65,0,0,0-8-14.35h0c-.08-.1-.16-.19-.23-.29s-.09-.11-.14-.17l0,0a29.42,29.42,0,0,0-6.92-6.48c-2.64-1.67-5.1-2.28-7.05-1.74C550.48,371.76,549.5,383.52,549.38,385.15Z"/><path class="cls-22" d="M549.1,385.37a26.78,26.78,0,0,1,2.62-.83,16.9,16.9,0,0,1,11.62-12.65c-2.64-1.67-4.94-2.8-6.89-2.26C550.64,371.25,549.22,383.74,549.1,385.37Z"/><path class="cls-21" d="M635.82,403.66c-.3-.3-.92-.89-1.79-1.62a34.66,34.66,0,0,0-5.75-3.89,24.3,24.3,0,0,0-16-2.88,22.68,22.68,0,0,0-6.14,2.08,57.81,57.81,0,0,1,13.67-9.08h0l.34-.15.2-.1h0a29.56,29.56,0,0,1,9.13-2.56c3.12-.27,5.58.32,7.06,1.7C641,391.27,636.47,402.15,635.82,403.66Z"/><path class="cls-22" d="M636,404A26.31,26.31,0,0,0,634,402a16.91,16.91,0,0,0-4.49-16.58c3.12-.27,5.67-.21,7.15,1.17C641.1,390.73,636.61,402.48,636,404Z"/><path class="cls-10" d="M594.61,363.19l-4,.73,3-23.34,7.64,1.52a91,91,0,0,0-5.79,14.39C594.43,360.37,594.77,360.43,594.61,363.19Z"/><path class="cls-11" d="M590.62,363.92l-1.75-2.29c1-2.55.75-1.52.88-5.34a112.2,112.2,0,0,0-1.06-17.62l4.93,1.91Z"/><polygon class="cls-12" points="601.3 342.17 593.56 340.63 588.69 338.67 596.45 340.21 601.3 342.17"/><path class="cls-8" d="M604.42,363.69c-.52,0-1.09-.06-1.7-.06a31,31,0,0,0-7.49.87c-.34.08-.7.18-1.05.28l-.87.25a24.4,24.4,0,0,1,1.84,2.08,25.71,25.71,0,0,1,4,7.31c.09.23.17.47.26.71a36,36,0,0,0-2.48-3.83,33.14,33.14,0,0,0-5.3-5.69l0,0c-.58-.48-1.15-.93-1.72-1.35a34,34,0,0,0-2.86-1.87A30.19,30.19,0,0,0,575,358.44l3.8.08a20.17,20.17,0,0,1,7.13,1.5,22.11,22.11,0,0,1,5.86,3.56c.58-.17,1.17-.31,1.76-.43l.51-.1a21.7,21.7,0,0,1,8.34.12c.44.09.87.19,1.31.31Z"/><path class="cls-9" d="M556.89,356.47C556,355,536,362,532.66,378.24c-1.28,6.13-.06,13,1.4,13.3,1.66.37,2.67-7.93,8.17-17.68C549.27,361.38,557.49,357.45,556.89,356.47Z"/><path class="cls-15" d="M421.52,965c3.44,1.55,33.32,15.83,43.16,57,6.81,28.47-.05,52.81-2.33,60H419c2.29-1.46,24-15.89,28.19-47.72C450.73,1007.59,440.55,979.74,421.52,965Z"/><path class="cls-15" d="M420.36,991.17c2,.83,24.52,10.83,31.49,41.57a81.64,81.64,0,0,1-4.67,49.26H403.82c15.8-8.16,26.78-26.67,28.2-47.72A68.73,68.73,0,0,0,420.36,991.17Z"/><path class="cls-15" d="M509,1002c-13.59,2.66-24.9,15.21-29.16,32.33-4.12,16.59-1,35,8.17,47.72H444.65c1.26-8.7,5.56-32,21.2-52.34C482.85,1007.59,502.55,1003.07,509,1002Z"/><path class="cls-5" d="M1892.81,645c-1.77,1.12-17.14,11.4-22.19,41a114.9,114.9,0,0,0,1.2,43.24h22.29c-1.18-1-12.32-11.44-14.5-34.37C1877.79,675.68,1883,655.62,1892.81,645Z"/><path class="cls-5" d="M1897.52,677.58c-1,.6-12.61,7.8-16.19,29.94a80.43,80.43,0,0,0,2.4,35.48H1906c-8.13-5.88-13.78-19.21-14.5-34.37C1890.7,691.49,1896.52,679.56,1897.52,677.58Z"/><path class="cls-5" d="M1847.82,665.93c7,1.92,12.81,11,15,23.29,2.12,11.95.5,25.17-4.2,34.37h22.3c-.65-6.26-2.86-23.09-10.9-37.7C1861.27,670,1851.14,666.74,1847.82,665.93Z"/><path class="cls-5" d="M452.81,289c-1.77,1.12-17.14,11.4-22.19,41a114.9,114.9,0,0,0,1.2,43.24h22.29c-1.18-1-12.32-11.44-14.5-34.37C437.79,319.68,443,299.62,452.81,289Z"/><path class="cls-5" d="M457.52,321.58c-1,.6-12.61,7.8-16.19,29.94a80.43,80.43,0,0,0,2.4,35.48H466c-8.13-5.88-13.78-19.21-14.5-34.37C450.7,335.49,456.52,323.56,457.52,321.58Z"/><path class="cls-5" d="M407.82,309.93c7,1.92,12.81,10.95,15,23.29,2.12,11.95.5,25.17-4.2,34.37h22.3c-.65-6.26-2.86-23.09-10.9-37.7C421.27,314,411.14,310.74,407.82,309.93Z"/><path class="cls-5" d="M30,285.73c1.77,1.12,17.14,11.4,22.19,41A114.9,114.9,0,0,1,51,370H28.74c1.18-1.05,12.32-11.44,14.5-34.37C45.06,316.41,39.82,296.35,30,285.73Z"/><path class="cls-5" d="M27.33,294.58c1,.6,12.61,7.8,16.19,29.94A80.43,80.43,0,0,1,41.12,360H18.82c8.13-5.88,13.78-19.21,14.5-34.37C34.15,308.49,28.33,296.56,27.33,294.58Z"/><path class="cls-5" d="M70,291.93c-7,1.92-12.81,10.95-15,23.29-2.12,11.95-.5,25.17,4.2,34.37H36.93c.65-6.26,2.86-23.09,10.9-37.7C56.58,296,66.71,292.74,70,291.93Z"/><path class="cls-15" d="M707.3,852c-3.43,1.14-33.32,11.64-43.15,41.87-6.81,20.92.05,38.81,2.33,44.13h43.36c-2.3-1.08-24-11.68-28.2-35.08C678.1,883.31,688.28,862.84,707.3,852Z"/><path class="cls-15" d="M708.47,871.24c-2,.61-24.53,8-31.5,30.55-5.67,18.41,3.11,33.6,4.67,36.21H725c-15.8-6-26.78-19.6-28.2-35.08C695.2,885.43,706.52,873.26,708.47,871.24Z"/><path class="cls-15" d="M619.82,879.16A36,36,0,0,1,649,902.92,34.42,34.42,0,0,1,640.82,938h43.36A73.1,73.1,0,0,0,663,899.53,77.43,77.43,0,0,0,619.82,879.16Z"/><path class="cls-23" d="M1596.92,647.21l-81,.1a213.77,213.77,0,0,0,2-23.1c1.7-53.67-17.48-97.7-34.25-126.31h145.15c-16.37,30.92-32.77,74.23-32.9,126.31C1595.9,632.17,1596.26,639.84,1596.92,647.21Z"/><polygon class="cls-23" points="1700.11 369.8 1700.11 369.8 1700.11 369.8 1554.68 324.06 1412.09 369.8 1412.09 369.8 1556.1 647.32 1700.11 369.8"/><polygon class="cls-24" points="1606.95 355.31 1558.09 453.66 1505.83 357.3 1555.25 328.04 1606.95 355.31"/><path class="cls-25" d="M1609.79,387.12a98.32,98.32,0,0,1-9.66-12.62l34.37-9a68,68,0,0,0-66.75-44.87q13.24,26.47,26.48,53c-6.84,26.68-28.9,53.36-36.14,80-7.39-26.68-35-53.36-41.82-80q13.24-26.47,26.48-53A68,68,0,0,0,1476,365.53l34.37,9a98.39,98.39,0,0,1-22.15,24.27,178.09,178.09,0,0,1,18.18,15.62c14,13.79,44.2,27.92,51.58,39.68h.22c7.19-11.76,31.91-25.88,45.91-39.67a176,176,0,0,1,18.18-15.62A97.63,97.63,0,0,1,1609.79,387.12Z"/><path class="cls-26" d="M1532.81,287.71H1576a0,0,0,0,1,0,0v49.42a21.59,21.59,0,0,1-21.59,21.59h0a21.59,21.59,0,0,1-21.59-21.59V287.71A0,0,0,0,1,1532.81,287.71Z"/><path class="cls-27" d="M1545.43,326.45l-12.62-17V288H1576v21.43l-12.62,17A11.17,11.17,0,0,1,1545.43,326.45Z"/><path class="cls-23" d="M1352.26,535.15l22.43,9.94a395,395,0,0,1,33-88.17,411.84,411.84,0,0,1,57-83.21l-52.34-6.54Z"/><path class="cls-23" d="M1729.8,551.66c-8.1,1.08-16.59-6.56-24.69-5.48,1.21-26.12,5.87-49.52-1.1-85.35A410.88,410.88,0,0,0,1672.62,365l52.08,8.41C1728.2,432.73,1726.3,492.29,1729.8,551.66Z"/><path class="cls-25" d="M1676.25,415.81a37.61,37.61,0,0,1,3.41-23.57c9.38-18,22.69-23.91,24.26-24-3.79,1-12.75,9.93-22,26.58A46.35,46.35,0,0,0,1676.25,415.81Z"/><path class="cls-25" d="M1556.1,647.31c2.3-39.38,3.55-80.71,3.41-123.85q-.1-35.52-1.42-69.3c2.13,22.59,3.57,46.68,4,72.14A927.72,927.72,0,0,1,1556.1,647.31Z"/><path class="cls-25" d="M1436.5,415.81a37.47,37.47,0,0,0-3.41-23.57c-9.37-18-19.61-24.91-21.17-25,3.78,1,9.66,10.93,18.9,27.58A46.18,46.18,0,0,1,1436.5,415.81Z"/><path class="cls-24" d="M1645.85,126.67a102.78,102.78,0,0,0-20-22.43,86.33,86.33,0,0,1,9.46-.59,88.63,88.63,0,0,1,27.84,4.26,77.67,77.67,0,0,0-39.49-19.32l22.45-29.82a117.1,117.1,0,0,1-35.79,22.15,116.3,116.3,0,0,1-16.31,5c-5.76-24,23.27-35.37,30.51-33.15-3.41-3.41-32-4.17-46.58-1.13-20.46,4.26-36.65,11.64-47.44,26.7-5.31,7.4-7.35,13.54-7.48,18.74l-.17-.06c-23.14-25.92-13.92-28.6-13.65-35.16-7.67,10.51-7.67,19.88-4.43,28.82.31.86.64,1.7,1,2.52-13.87-2.61-19.42-17.37-14.26-25.66-13,10.51-13.69,17.32-11.55,27a24.64,24.64,0,0,0,8.81,13.63c-8.55.1-20.48-.72-32.39,4.83-20.73,9.66-33.23,22.72-41.06,21.3,13.8,4.26,24-12.12,45-6.53a54.84,54.84,0,0,1,15,6.53,77.37,77.37,0,0,0-39.11,25.85A39.75,39.75,0,0,1,1458.39,150a37.53,37.53,0,0,1,11.65.56c-.35,1.52-.76,3.07-1.18,4.65a77.76,77.76,0,0,0-5.92,11,80,80,0,0,0-6.76,30.12,28.33,28.33,0,0,1,8.64-17.24c.46,5.24,5.51,17.7,10,22.34l90.61,18.46,66.18-11.65s9.94-16.19,13.63-26.41c1-2.79,1.4-7.52,1.29-13l.13.24a75.32,75.32,0,0,1,8,21.3,52.17,52.17,0,0,0-5.69-43.45,58.08,58.08,0,0,1,11.94,17.32A103,103,0,0,0,1645.85,126.67Z"/><path class="cls-24" d="M1579.4,295.09a12.53,12.53,0,0,1-4-10.1q-1.86,4.72-3.73,9.43a14.43,14.43,0,0,0,4.6,3.23,15.81,15.81,0,0,0,11.36.28A12,12,0,0,1,1579.4,295.09Z"/><path class="cls-24" d="M1534.19,281.59a16.8,16.8,0,0,1-10.75,14.92,21.39,21.39,0,0,0,6.2-.82,16.29,16.29,0,0,1-6.2,3.95,19.79,19.79,0,0,0,9.88-2,18.84,18.84,0,0,0,4.6-3.23l-1-2.53c.37-.3.7-.59,1-.87Q1536.06,286.3,1534.19,281.59Z"/><polygon class="cls-28" points="1616.04 196.27 1636.2 196.27 1660.06 230.96 1619.45 263.28 1599.85 261.62 1611.03 214.99 1616.04 196.27"/><polygon class="cls-29" points="1650.12 229.78 1633.93 207.2 1622.85 235.72 1627.4 243.08 1613.44 255.23 1617.15 255.23 1650.12 229.78"/><polygon class="cls-28" points="1493.07 196.24 1472.91 196.24 1449.05 230.94 1489.66 263.25 1509.27 261.59 1498.08 214.96 1493.07 196.24"/><polygon class="cls-29" points="1458.99 229.75 1475.18 207.18 1486.26 235.69 1481.71 243.06 1495.67 255.2 1491.96 255.2 1458.99 229.75"/><path class="cls-26" d="M1621.44,211.76l-.65,1.85q-2.68,7.6-5.45,15.09c-9.16,24.66-19.22,47.54-31.85,62.7-7.23,8.69-27.67,21.3-27.67,21.3s-17.61-9.65-31.2-21.3c-16.55-19.4-31-51.08-38.08-77.72-.24-.92-.48-1.83-.71-2.74a111.4,111.4,0,0,1-3-34.86c2.44-32.13,20.07-64.51,68-67.38,49.25-2.94,71.19,31.38,73.69,67.09C1625.42,188.05,1625.32,200.72,1621.44,211.76Z"/><polygon class="cls-27" points="1555.95 246.04 1549.14 249 1547.45 253.66 1552.72 248.39 1555.95 246.04"/><polygon class="cls-27" points="1535.65 282.31 1543.46 276.35 1548.66 269.19 1554.95 274.93 1561.61 269.19 1566.22 276.91 1572.29 281.17 1557.33 276.91 1551.7 276.94 1535.65 282.31"/><polygon class="cls-29" points="1545.19 287.71 1551.05 285.72 1559.2 285.72 1563.14 287.71 1545.19 287.71"/><path class="cls-24" d="M1583,266.49c-7.35-3.59-15.69-13.51-25.2-7.7a1.83,1.83,0,0,1-3.62,0c-9.51-5.81-17.85,4.11-25.2,7.7-7.7,3.76-16.31,3.31-21.71,3.59a89.43,89.43,0,0,0,20,4.36,94.53,94.53,0,0,0,16.1.26c1-.14,8.48-1.3,11.9-6.42A12.34,12.34,0,0,0,1556,267a12.34,12.34,0,0,0,.76,1.28c3.42,5.12,10.94,6.28,11.9,6.42a94.53,94.53,0,0,0,16.1-.26,89.43,89.43,0,0,0,20-4.36C1599.28,269.8,1590.67,270.25,1583,266.49Z"/><path class="cls-24" d="M1606,210.28c-3.59,15-19.3,15.54-27.14,11s-12.58-12.27-12.32-19.17,4.55-9.57,12.89-9.76S1609.55,195.27,1606,210.28Z"/><path class="cls-24" d="M1503.84,210.28c3.58,15,19.29,15.54,27.14,11s12.58-12.27,12.31-19.17-4.55-9.57-12.89-9.76S1500.25,195.27,1503.84,210.28Z"/><path class="cls-24" d="M1610.64,108.47l-45.47-27.26-52.81,23.86-37.49,57.09,7.66,18.42c-.61,10.76-.53,21.48,2.88,31.18.21.62,2.34,6.59,2.56,7.21l3.88-9.61a11.1,11.1,0,0,0,.26-7.6l-.23-.71,2.87,2.58-3.55-6.11h0l3,2.71-4.43-13.7c-.71-21.49,5.78-39.31,29.43-42,3.93-.44,8.15-.69,11.61,1.23l14.68,8.14-3.23-4.2a129,129,0,0,1,15.85,10.45c7.3-5.83,13.82-9.78,19.64-12.19l-2.6,3.39,8.23-4.57a14.35,14.35,0,0,1,5.7-1.75c20.77-1.69,29.1,20.61,29.3,40.08l-4.88,15.09,2.51-2.29h0l-3.65,6.26,2.26-2-.06.2a9.33,9.33,0,0,0,.22,6.4l4.12,10.2,2.56-7.21a88,88,0,0,0,4.79-25.69l17.64-30.44Z"/><path class="cls-29" d="M1564.63,191.13c3-2.08,14.61-2.36,16.19-2.84l-9.86-1.14c-4.23,0-7.62,2.78-9.56,6.53a27.53,27.53,0,0,0-1.4,3.45,9.37,9.37,0,0,0-.38,4.43l6.43,40.42-8.24,15.14,17.61-8.9-14.67-45.88a7.49,7.49,0,0,1-.15-4.09C1561.15,196,1562.31,192.73,1564.63,191.13Z"/><path class="cls-30" d="M1538.78,143.7c-11.64-7.11-14.93-15.65-15.91-18.75-5.47-17.42,6.41-40.68,31.25-53.69-20.82,12.53-31.8,33.45-27.84,51.7C1528.4,132.76,1534.37,139.67,1538.78,143.7Z"/><path class="cls-29" d="M1512.44,225.56c-.8.05-6.92.29-10.19-4.06-3-4-1.86-9.57-1.37-9.63s.24,4.75,3.5,8.77A15.33,15.33,0,0,0,1512.44,225.56Z"/><path class="cls-29" d="M1599.57,223.54c.8,0,6.9-.49,9.67-5.17,2.54-4.32.78-9.72.28-9.72s.3,4.74-2.49,9.1A15.32,15.32,0,0,1,1599.57,223.54Z"/><path class="cls-30" d="M1557.24,115c2.85-6.54,8-15.72,17.61-22.44,9.87-6.93,18-6.72,32.38-11.65a131.3,131.3,0,0,0,33-17,92.41,92.41,0,0,1-29.35,19c-14.13,5.59-22.32,4.44-33.8,11.36A58.06,58.06,0,0,0,1557.24,115Z"/><polygon class="cls-31" points="1556.92 1008.41 1556.92 1042.21 1655.92 1042.21 1556.92 1008.41"/><polygon class="cls-31" points="1556.92 1008.41 1556.92 1042.21 1457.92 1042.21 1556.92 1008.41"/><path class="cls-23" d="M1361.92,509.21c17,9,17.95,17,35,26,3.46,13.69,20,51,28,73l-16,4c-23.83-24.32-42.93-53.33-58-74Z"/><path class="cls-23" d="M1717,521c-16,13-17,15-33.08,27.21-3.46,13.69-26.84,63.58-39.92,83.79l16,5c23.82-24.32,54.84-65.12,69.92-85.79Z"/><path class="cls-23" d="M1545,1028.21h0l-12-12.29c.28-60.68-.94-124.09-4.07-190-3-62.49-7.42-122.56-13-180l41-9.68V1016Z"/><path class="cls-23" d="M1567.88,1028.21h0l12-12.29c-.27-60.68,1-124.09,4.08-190,3-62.49,7.42-122.56,13-180l-41-9.68V1016Z"/><rect class="cls-25" x="1556.01" y="637.21" width="1.82" height="378"/><path class="cls-32" d="M1629,620.29q-2.29,30.71-4.58,61.42a9.65,9.65,0,0,0,6.38,9.86,31.85,31.85,0,0,0,6,1.47c4.43.64,13.32,1.92,16.71-3,2.83-4.13,1.18-11.7-4.64-17.74,16.81,17.62,14.42,28.74,13.83,31-4.43,17-37.39,28.56-82.93,21.15q13.17-47.71,26.33-95.43Z"/><path class="cls-32" d="M1496.82,649.63,1527,703.34a9.68,9.68,0,0,1-1.62,11.64,31.58,31.58,0,0,1-4.82,3.87c-3.74,2.45-11.26,7.38-16.41,4.34-4.31-2.54-6-10.1-3.31-18-7.77,23.07-.9,32.14.58,33.93,11.2,13.48,46,10,84.1-15.93q-32.13-37.67-64.25-75.32Z"/><path class="cls-33" d="M1560.05,683.28h40.33a0,0,0,0,1,0,0v46.17a20.17,20.17,0,0,1-20.17,20.17h0a20.17,20.17,0,0,1-20.17-20.17V683.28A0,0,0,0,1,1560.05,683.28Z" transform="translate(-117.72 359.52) rotate(-12.52)"/><path class="cls-34" d="M1572.7,721.22l-15-13-4.34-19.54,39.38-8.74,4.34,19.54-8.07,18.09A10.42,10.42,0,0,1,1572.7,721.22Z"/><path class="cls-35" d="M1623,559.16c1.08-.33,16.79-4.65,29.81,5.9,22.88,18.55,6.48,39.55-4.43,48.94a48.5,48.5,0,0,1-25.78,11.32Q1622.85,592.24,1623,559.16Z"/><path class="cls-34" d="M1636.06,570.82a14.62,14.62,0,0,0-7.28,7.92c-1.89,5.29-.24,11.47,4.19,15.75a11,11,0,0,1,3.09,7.66c-.16,4.58-3.69,8.8-8.83,10.3,1,0,16-.64,22.89-12.73a24.94,24.94,0,0,0,3-14.57,16,16,0,0,0-6-11.19A15.81,15.81,0,0,0,1636.06,570.82Z"/><path class="cls-35" d="M1476.29,593.14c-1.12.15-17.19,2.88-24.52,18-12.88,26.49,10.87,38.58,24.72,42.47a48.46,48.46,0,0,0,28.15-.65Z"/><path class="cls-34" d="M1469.42,609.21a14.58,14.58,0,0,1,9.95,4.09c4,4,5.07,10.29,2.87,16.05a11,11,0,0,0,.44,8.24c2.09,4.08,7.07,6.42,12.36,5.6-.94.41-14.74,6.17-26.12-1.85a24.92,24.92,0,0,1-8.91-11.92,16,16,0,0,1,.67-12.66A15.8,15.8,0,0,1,1469.42,609.21Z"/><path class="cls-33" d="M1623,559.16c10.4,46.83-9.54,137.66-44.85,145.5s-93.28-66.39-103.68-113.22,21.83-85.47,57.14-93.31S1612.65,512.34,1623,559.16Z"/><polygon class="cls-34" points="1557.56 588.25 1576.09 608.95 1566.54 628.67 1569.45 610.42 1557.56 588.25"/><polygon class="cls-34" points="1563.69 615.43 1558.07 619.52 1557.48 624.1 1561.21 618.24 1563.69 615.43"/><path class="cls-36" d="M1616.33,623.15c.77,7.35-2,17.71-5.55,28.27-1.17,3.5-2.41,7-3.62,10.46-.86,2.43-1.7,4.82-2.48,7.14a108.05,108.05,0,0,0-4.41,15.54c-.75-.55-10-8.74-28.6-2.55-13.85,4.6-15.92,10.69-17,12.67l-14.86-18.46-21.19-26.32c-6.05-6-1.9-13.44,5.86-16.95a22.58,22.58,0,0,1,8.62-2c12.26-.39,20.44,9.27,35.5,4,7.92-2.77,20.32-22.35,26.48-25.76a11,11,0,0,1,6.27-1.47C1609.32,608.27,1615.76,617.6,1616.33,623.15Z"/><path class="cls-37" d="M1610.78,651.42c-1.17,3.5-2.41,7-3.62,10.46-.86,2.43-1.7,4.82-2.48,7.14a45.47,45.47,0,0,1-13.93,6.08c-16.06,3.57-25.83-1.19-27.75-9.85s-1.34-19.28,14.72-22.85C1590.05,639.67,1602.88,647.58,1610.78,651.42Z"/><path class="cls-16" d="M1607.34,662.73c-3,8.6-5.86,16.7-6.88,22.67-.75-.54-10-8.73-28.61-2.54-13.84,4.6-15.92,10.68-17,12.66L1540,677.07a117.22,117.22,0,0,1,67.33-14.34Z"/><path class="cls-16" d="M1601.17,606.87l3.4,15.34a120,120,0,0,1-78.6,17.45l-1.67-7.56a22.77,22.77,0,0,1,8.63-2c12.25-.38,20.43,9.27,35.49,4,7.92-2.77,20.32-22.35,26.48-25.76A11.12,11.12,0,0,1,1601.17,606.87Z"/><path class="cls-32" d="M1623.08,559.15c0,.23.07.46.11.68h0l-.14,0c-5.83-1.28-12-2.88-18.33-4.89-1.92-.6-3.85-1.24-5.81-1.91l-1.69-.6q-6-2.16-11.66-4.55c-2.09-.89-4.13-1.79-6.14-2.72l-1.25-.58a218.61,218.61,0,0,1-39-23.65h0c-.81-.6-1.59-1.21-2.37-1.81-.37.75-.75,1.49-1.14,2.25a218.61,218.61,0,0,1-25,38.28c-.19.24-.38.47-.58.7a211.37,211.37,0,0,1-14.7,16.11l-.82.81a215.13,215.13,0,0,1-18.29,15.93l-1.05.82-.23.17c-.06-.22-.13-.46-.2-.69a73.18,73.18,0,0,1-2.52-14.69,79,79,0,0,1,.68-13.55,94.63,94.63,0,0,1,4.57-19.55,69.17,69.17,0,0,1,15.74-25.78c11.29-11.39,20.6-17.78,34.38-22,15.88-3.08,27.93-4.9,47.68,2.38a69.69,69.69,0,0,1,26.35,17.93A95.46,95.46,0,0,1,1614,534.72a74,74,0,0,1,5.14,10A72.64,72.64,0,0,1,1623.08,559.15Z"/><path class="cls-38" d="M1614,534.72a20.63,20.63,0,0,1-9.45,3.53c-7.52.75-10-3.48-16.23-1.27-4.63,1.64-6.58,5.09-8.92,8.14l-1.25-.58a218.61,218.61,0,0,1-39-23.65h0c-.16-.22-.33-.44-.49-.67,15.3,9.09,24,8.43,29.21,6,6.73-3.13,7.8-8.2,15-10.27,6.23-1.8,8.69,1.86,18.17,2.22l.6,0A95.46,95.46,0,0,1,1614,534.72Z"/><path class="cls-38" d="M1535.61,521.32a218.61,218.61,0,0,1-25,38.28c-.19.24-.38.47-.58.7l-1-.56c-3.09-1.68-6.17-3.56-10.63-3.12-6.62.65-7,5.51-14.17,8a20.77,20.77,0,0,1-11.15.61l-.14,0a94.63,94.63,0,0,1,4.57-19.55l.46-.21,1-.51c8.44-4.33,9.12-8.69,15.53-9.7,7.36-1.16,10.48,3,17.9,3C1517.92,538.2,1525.88,535.24,1535.61,521.32Z"/><path d="M1618.13,590.28a4.79,4.79,0,0,1-2.49-.28c-3.79-1.33-7.06-5.36-8.5-7.36l.55-3.27a27.22,27.22,0,0,0,5.62,4.28,12.08,12.08,0,0,0,3.26,1.31Z"/><path d="M1614.93,603.3a3,3,0,0,1-1.94-.47c-3.57-1.88-7.12-7.06-8.74-9.69l1-2.8a45.41,45.41,0,0,0,5.51,5.95,14.14,14.14,0,0,0,2.65,1.92Z"/><path d="M1605.67,610.65a12.22,12.22,0,0,1-1.72-1.92,58.5,58.5,0,0,1-6-11.24l1.13.3c.19.3.47.74.79,1.27,1.45,2.36,2,3.55,2.47,4.25.54.86,1.27,1.65,2.15,1.52a27.94,27.94,0,0,0,.47,3.2A18.92,18.92,0,0,0,1605.67,610.65Z"/><ellipse cx="1590.16" cy="572.85" rx="20.34" ry="31.44" transform="translate(-86.36 358.26) rotate(-12.52)"/><path class="cls-19" d="M1570.69,575.73c-3.17-14.26,3.36-25.38,13.92-27.72s22.44,10.6,25.6,24.85-3.56,24.44-14.13,26.79S1573.86,590,1570.69,575.73Z"/><ellipse cx="1589.13" cy="571.54" rx="2.5" ry="6.99" transform="translate(-86.1 358.01) rotate(-12.52)"/><path d="M1496.78,618.24a4.78,4.78,0,0,0,2.14-1.31c2.87-2.8,4.14-7.84,4.6-10.26l-1.9-2.73a26.88,26.88,0,0,1-3.27,6.26,12.21,12.21,0,0,1-2.4,2.56Z"/><path d="M1505.2,628.69a3.17,3.17,0,0,0,1.56-1.25c2.44-3.21,3.46-9.41,3.81-12.48l-2-2.13a45.77,45.77,0,0,1-2.48,7.71,13.87,13.87,0,0,1-1.59,2.87Z"/><path d="M1516.7,631.43a12.92,12.92,0,0,0,.74-2.47,58.59,58.59,0,0,0,.68-12.73l-.9.75c0,.36-.11.87-.18,1.49-.31,2.76-.33,4.07-.43,4.9-.13,1-.45,2-1.31,2.29a25.13,25.13,0,0,1,.93,3.09A19.66,19.66,0,0,1,1516.7,631.43Z"/><ellipse cx="1514.76" cy="590.61" rx="20.34" ry="31.44" transform="translate(-92 342.34) rotate(-12.52)"/><path class="cls-19" d="M1533.61,585c-3.16-14.26-13.78-21.57-24.35-19.22s-15.84,19.09-12.67,33.35,13.57,20.63,24.14,18.29S1536.78,599.24,1533.61,585Z"/><ellipse cx="1515.13" cy="588.99" rx="2.5" ry="6.99" transform="translate(-91.64 342.38) rotate(-12.52)"/><path class="cls-34" d="M1462.85,644.5c9.28,4.94,16.78,8,23.17,9.74l-1.18,1.28-21.91,5.09-4.06-1.93-3.34-1.57-1.49-.71-.54-2.36-1.75-2.61,4.53-3,.7-.47,1.45-1,.53-.3,3.37-1.88Z"/><path class="cls-34" d="M1486.35,638.18l-2.07,3.56-2.48,1.65a5,5,0,0,1-.56-.07,12.24,12.24,0,0,1-4-1.4c-2-1-3.5-1.91-4.86-2.74l5.26-3c.68-1,1.61-2.46,2.75-4.15.51.34,1,.69,1.51,1a14.49,14.49,0,0,1,3.72,3.81A13.68,13.68,0,0,1,1486.35,638.18Z"/><path class="cls-34" d="M1485.48,643.17c.41-.34.86-.69,1.33-1l0,.06a1.84,1.84,0,0,1-.54.57A3.07,3.07,0,0,1,1485.48,643.17Z"/><path class="cls-35" d="M1469.66,634.75a9.29,9.29,0,0,0-7.73,16.33l-26.26-12.43,7.73-16.33Z"/><path class="cls-35" d="M1471.51,638.1c-5.56-2.47-10-.2-10,4.2,0,3.61,4.74,5.53,6.43,10.23-8.75-4.14-21-8.08-29.79-12.22l7.73-16.34Z"/><path class="cls-33" d="M1508.92,662.16l-34.73,3.5-1-.21-10.29-4.84-4.06-1.93-3.34-1.57-1.49-.71-9.4-4.43a2.09,2.09,0,0,1-.47-.3s-24.73-21.52-25-23.07c-.17-.89-10.18-16.05-10.18-16.05s7-17.28,14.07-6.63l7.66,8.44a5.19,5.19,0,0,0,2.91.73,12.15,12.15,0,0,0,1.7-.12,33.44,33.44,0,0,0,4.14-.88l.13,0c5.4-1.08,13.24,1.09,13.37,1.17,4.17,2.68,20.29,12,24.93,15.06l1.1.73,1.39,1c.51.34,1,.69,1.51,1a14.49,14.49,0,0,1,3.72,3.81,13.68,13.68,0,0,1,.77,1.35c.62,1.21,1.14,2.81.46,4l0,.06a1.84,1.84,0,0,1-.54.57,3.07,3.07,0,0,1-.76.41,8.56,8.56,0,0,1-3.68.22,5,5,0,0,1-.56-.07,12.24,12.24,0,0,1-4-1.4c-2-1-3.5-1.91-4.86-2.74l-1.16-.71c-.6-.38-1.17-.74-1.76-1.09h0a38.69,38.69,0,0,0-4.29-2.29l-.06,0h0c-2.15-.92-6.79-.46-8.07,1.47l-1.51,2.28a3.21,3.21,0,0,0-.5,1.29c-.36,2.36,1.78,5.15,3.46,6.88a5.47,5.47,0,0,0,1,.82,6.32,6.32,0,0,0,.88.51l3.78,1.79,3.6,1.69.91.43,7.26,3.43h0l9-.13,2.49,0c.51,0,1.86-.07,3.49-.14,3.5-.17,8.35-.4,9.2-.28a10.36,10.36,0,0,1,4,.94,8.49,8.49,0,0,1,1.7,1.07A9.24,9.24,0,0,1,1508.92,662.16Z"/><path class="cls-34" d="M1628.65,681.49l-1,3,.08,2.42-1.25,1.07-2.82,2.38-3.43,2.91-20.56.67-1.92.06,3.31-.83a121.07,121.07,0,0,0,12.49-8c.68-2.94,2.5-5.19,3.18-7.38l3.74,1,.59.15.1,0,1.55.53.8.28Z"/><path class="cls-34" d="M1591.81,677.62l2.92,2.91,2.82,1,.52-.21a12.21,12.21,0,0,0,3.54-2.4c1.64-1.47,2.89-2.75,4-3.9l-5.87-1.59c-.92-.83-2.19-2-3.73-3.3-.4.46-.79.93-1.19,1.4a14.57,14.57,0,0,0-2.61,4.64A12.57,12.57,0,0,0,1591.81,677.62Z"/><path class="cls-34" d="M1593.93,682.22c-.48-.23-1-.45-1.55-.67l0,.05a1.77,1.77,0,0,0,.66.42A3.82,3.82,0,0,0,1593.93,682.22Z"/><path class="cls-35" d="M1607.05,670a9.3,9.3,0,0,1,11.68,13.79L1640.89,665l-11.68-13.79Z"/><path class="cls-35" d="M1638.9,667.25c-2.42,2-5.2,4.17-8.12,6.33-2.65,1.95-5.41,3.93-8.08,5.89-1,.7-1.9,1.39-2.82,2.08-2.36,1.77-4.61,3.51-6.61,5.2,0-.27.06-.55.1-.81a6.27,6.27,0,0,1,.17-.75c.68-2.94,2.5-5.19,3.18-7.38a4.61,4.61,0,0,0,.11-2.6c-1-3.71-4.78-5-8.87-2.74,0,0,0,0,0,0a12.82,12.82,0,0,0-1.84,1.23l4.8-4.6,16.29-15.65,6.94,8.19,4.47,5.28Z"/><path class="cls-33" d="M1660,632.89s-5.76,17.23-5.69,18.13c.1,1.58-18.24,28.75-18.24,28.75a1.84,1.84,0,0,1-.38.41l-7.94,6.71-1.25,1.07-2.82,2.38-3.43,2.91-8.69,7.33-.89.45q-17.22,2.81-34.45,5.58a8.81,8.81,0,0,1,.18-2.08,9.06,9.06,0,0,1,1.61-3.66,8.86,8.86,0,0,1,1.36-1.47,10.4,10.4,0,0,1,3.62-1.94c.79-.33,5.53-1.36,9-2.1l3.41-.76,2.41-.62,3.31-.83,5.42-1.36v0l6.12-5.18.77-.65,3.05-2.56,3.19-2.71a6,6,0,0,0,.71-.72,5.13,5.13,0,0,0,.56-.76l.17-.28c1.18-2.11,2.52-5.35,1.57-7.54a3.27,3.27,0,0,0-.82-1.12l-2-1.81c-1.73-1.54-6.33-.78-8.17.66h0l0,0a37.52,37.52,0,0,0-3.56,3.32s0,0,0,0c-.48.49-.94,1-1.42,1.51-.31.32-.61.65-.94,1-1.1,1.15-2.35,2.43-4,3.9a12.21,12.21,0,0,1-3.54,2.4l-.52.21a9.31,9.31,0,0,1-3.24.75.49.49,0,0,1-.17,0h-.21a3.82,3.82,0,0,1-.84-.2,1.77,1.77,0,0,1-.66-.42l0-.05c-1-.92-.86-2.6-.57-3.93a12.57,12.57,0,0,1,.39-1.5,14.57,14.57,0,0,1,2.61-4.64c.4-.47.79-.94,1.19-1.4l1.1-1.27.88-1c.45-.51,1.06-1.16,1.76-1.89h0c.46-.5,1-1,1.54-1.63,5.38-5.61,14.24-14.54,16.89-17.46.1-.11,7.12-4.23,12.61-4.58h.13a33,33,0,0,0,4.23-.22,11.72,11.72,0,0,0,1.67-.32,5.62,5.62,0,0,0,2.33-1.16,2.13,2.13,0,0,0,.3-.3L1645,630C1653,620,1660,632.89,1660,632.89Z"/><path class="cls-6" d="M1622.82,1037c30,30,67,19.43,110.41,21.08l1,0c6.26.27,12.08.75,17.58,1.31l1.17.13c44.79,4.76,68,14.87,130.79-41,44.94-66.36-73.4-134-145.37-110.53-1.24.4-2.47.79-3.69,1.16-4.43,1.34-8.7,2.46-12.82,3.4l-2.28.5c-5.37,1.16-10.49,2-15.39,2.74-43.36,6.25-69.55-.44-102,64.89C1589.08,1007,1603.09,1017.27,1622.82,1037Z"/><path class="cls-7" d="M1685.67,972.49c2.95,19.1,13.58,40,31.43,62.85,5.14,6.57,11.93,15.77,17.1,23,6.26.26,12.08.74,17.58,1.31l1.17.12a78.89,78.89,0,0,1-5.16-6.77c-3.34-5.55-6.71-13-9.89-19.1h0c-7.69-14.62-14.34-30.5-16.92-46.55-3.54-22.07-.38-45.92,8.86-67.71.62-1.46,1.27-2.92,2-4.36a44.76,44.76,0,0,0-11.44,7.16c-1.22-.24-4-1.72-4.74-.7s-1.47,1.84-2.26,2.78C1703.23,936.45,1683.66,959.46,1685.67,972.49Z"/><path class="cls-8" d="M1807.49,1011.91c6.23-19.09,3.9-34.72-13.54-56.44-12-15-48.74-36.8-48-36.31C1802.51,955.4,1811.3,987.1,1807.49,1011.91Z"/><path class="cls-8" d="M1888.28,1011c10.55-16.75,12.17-39.43-6.82-60.58-27.29-30.39-56.23-35.77-56.23-35.77C1873,933.83,1892.71,977.11,1888.28,1011Z"/><path class="cls-21" d="M1706.35,979.91a116.37,116.37,0,0,1-32.08,13c-6.29,1.41-16.38-1.6-18.85-6.88-3.85-8.22,2.52-20.25,6.81-16.68,7.46,6.2,18,12.11,31,12.3A46.08,46.08,0,0,0,1706.35,979.91Z"/><path class="cls-22" d="M1675.43,992.61c-16.64,4-29.39,1.9-34-4.44-7.19-10,6.23-29.92,8.11-32.66a70.25,70.25,0,0,0,13,14.08C1654.12,986.32,1660.91,991.41,1675.43,992.61Z"/><path class="cls-21" d="M1740.28,976.66c16.7,5.86,32.09,8.5,45.15,8.67,8.54.11,20.82-7.09,22.6-15.23,2.76-12.65-8.76-27.62-13.37-21.35-8,10.9-20,22.29-36.91,26.43A57.52,57.52,0,0,1,1740.28,976.66Z"/><path class="cls-22" d="M1783.85,985.3c22.67.63,38.66-6,42.87-16.28,6.63-16.09-16.19-40.08-19.38-43.36a103.46,103.46,0,0,1-13,23.58C1809.8,970.17,1802.36,979.32,1783.85,985.3Z"/><path class="cls-9" d="M1627,960.29c-2,3.79-7.4,45.21,17.13,64.21,9.32,7.23,21.78,10.28,23.44,7.74,1.9-2.89-11.36-11.33-23.55-29.37C1628.52,980,1629,959.89,1627,960.29Z"/><path class="cls-8" d="M1627.16,959.77c-8.25,18.31-7.62,34.1,7.37,57.57,10.35,16.21,44.47,41.86,43.76,41.28C1626,1016.49,1620.69,984,1627.16,959.77Z"/><path class="cls-21" d="M1631.15,1003.64a55,55,0,0,0,9.25,23l.09.14a55,55,0,0,0,16.86,15.57l8.33-2.47,2.42-.71.41-.13.21.13,1.9,1.11.05,0,14.38,8.45,1.59-1.29.31-.26,11.54-9.41.14.06,21.55,9.66,2.2-1.93,9.6-8.41.21.13,21.3,13.52,4.83-4.08,12.33-10.39.17,0,26.5,6.57h0l1-.63q2.07-1.33,4.34-2.95a117.74,117.74,0,0,0,44.28-61.74,97,97,0,0,1-63.08,45.06l-17.79-6-3.55-1.2-1.79-.61L1749,1029.28l0,.07-18.31-12.21-2.42-1.61-1-.66-12.66,15.68-.37.45-15-10.73-4.07-2.92-14.7,15.73-.18.19L1669,1021.45l-.94-1-10.75,7.23c-.62,0-1.38-.1-2.25-.22a27.87,27.87,0,0,1-12.22-4.74C1633.7,1016.31,1631.6,1006.38,1631.15,1003.64Z"/><path class="cls-22" d="M1640.49,1026.8a54.91,54.91,0,0,0,16.82,15.57l8.31-2.47a42.18,42.18,0,0,1-25.13-13.1Z"/><polygon class="cls-22" points="1668.1 1039.18 1668.51 1039.06 1668.72 1039.18 1670.62 1040.3 1670.67 1040.33 1685.05 1048.78 1686.64 1047.49 1673.06 1037.62 1668.1 1039.18"/><polygon class="cls-22" points="1698.63 1037.88 1720.17 1047.54 1722.38 1045.61 1702.21 1034.93 1698.63 1037.88"/><polygon class="cls-22" points="1732.19 1037.33 1753.49 1050.85 1758.32 1046.77 1736.74 1033.48 1732.19 1037.33"/><path class="cls-22" d="M1770.82,1036.42c8,6.15,16.43,10.2,26.5,6.57h0l1-.63q2.07-1.33,4.34-2.95a69.2,69.2,0,0,1-17.74-1.78,67.89,67.89,0,0,1-9.3-5.38Z"/><polygon class="cls-22" points="1748.99 1029.28 1751.01 1029.14 1762.51 1015.48 1760.72 1014.87 1748.99 1029.28"/><polygon class="cls-22" points="1714.2 1031 1715.03 1031 1728.21 1015.53 1727.23 1014.87 1714.2 1031"/><polygon class="cls-22" points="1695.18 1017.36 1680.48 1033.08 1682.57 1032.45 1696.72 1018.46 1695.18 1017.36"/><path class="cls-22" d="M1667.89,1020c-3.57,2.41-7.38,5.24-11,7.65h2.48l9.17-6.72Z"/><path class="cls-10" d="M1714.41,922.05l8.3.86L1713,881.23l-15.3,3.58c3.18,4.4,10.89,17.42,13.95,25.19C1714.35,916.91,1713.66,917.06,1714.41,922.05Z"/><path class="cls-11" d="M1722.71,922.91l3.22-4.37c-2.54-4.5-1.77-2.67-2.66-9.57-1.16-9-1.37-25.79-.62-31.7l-9.68,4Z"/><polygon class="cls-12" points="1697.59 884.93 1713.09 881.31 1722.65 877.27 1707.15 880.89 1697.59 884.93"/><path class="cls-8" d="M1694.36,924.11c1.07-.11,2.23-.22,3.48-.3a71.71,71.71,0,0,1,15.5.7c.73.11,1.47.24,2.21.38l1.81.36a46.91,46.91,0,0,0-3.44,4,44.47,44.47,0,0,0-7.12,13.87c-.14.44-.27.89-.41,1.34a63.46,63.46,0,0,1,14.51-18.37l.07-.06c1.1-.95,2.2-1.84,3.31-2.67a61.41,61.41,0,0,1,5.55-3.74,66,66,0,0,1,24-8.5l-7.76.59a44.87,44.87,0,0,0-25.74,10.71c-1.22-.24-2.45-.44-3.68-.59l-1.06-.11a50.39,50.39,0,0,0-17.08,1.19c-.89.22-1.77.47-2.65.73Z"/><path class="cls-9" d="M1790.26,905.48c1.55-2.76,43.48,7.46,53.84,36.7,3.93,11.12,2.93,23.9,0,24.69-3.34.9-7.21-14.35-20.51-31.57C1806.71,913.45,1789.24,907.31,1790.26,905.48Z"/><path class="cls-15" d="M1918.3,923c-3.43,2.36-33.32,24.08-43.16,86.66-6.8,43.3.06,80.33,2.34,91.34h43.36c-2.3-2.23-24-24.17-28.2-72.61C1889.1,987.8,1899.28,945.43,1918.3,923Z"/><path class="cls-15" d="M1927.47,991.81c-2,1.27-24.53,16.48-31.5,63.24a184.31,184.31,0,0,0,4.67,75H1944c-15.8-12.41-26.78-40.58-28.2-72.61C1914.2,1021.2,1925.52,996,1927.47,991.81Z"/><path class="cls-15" d="M1830.82,967.21c13.59,4,24.91,23.14,29.16,49.18,4.13,25.26,1,53.19-8.16,72.61h43.36c-1.27-13.23-5.56-48.77-21.2-79.63C1857,975.8,1837.27,968.91,1830.82,967.21Z"/><polygon class="cls-14" points="669.21 679.73 1262.04 653.43 1229.92 214.77 640.92 281.97 669.21 679.73"/><polygon class="cls-39" points="689.07 649.86 1262.04 679.73 1247.7 251.84 671.6 266.19 689.07 649.86"/><polygon class="cls-40" points="1274 273.36 1263.67 624.75 1262.05 679.73 669.22 679.73 669.22 273.36 1274 273.36"/><polygon class="cls-39" points="1263.67 624.75 1262.05 679.73 669.22 679.73 669.22 624.75 1263.67 624.75"/><rect class="cls-39" x="694" y="337.06" width="551" height="7.17"/><text class="cls-41" transform="translate(781.36 330.96)"><tspan class="cls-42">g</tspan><tspan x="44.78" y="0">ame </tspan><tspan class="cls-43" x="187.22" y="0">o</tspan><tspan x="231.07" y="0">ve</tspan><tspan class="cls-44" x="304.85" y="0">r</tspan></text><text class="cls-45" transform="translate(840.36 380.96)"><tspan class="cls-46">y</tspan><tspan class="cls-47" x="19.83" y="0">o</tspan><tspan x="45.47" y="0">u</tspan><tspan class="cls-48" x="69.46" y="0">r</tspan><tspan x="91.24" y="0" xml:space="preserve"> s</tspan><tspan class="cls-49" x="119.52" y="0">c</tspan><tspan class="cls-50" x="142.1" y="0">o</tspan><tspan x="167.6" y="0">re:</tspan></text><rect class="cls-51" x="974.09" y="275.78" width="42.51" height="11.81" transform="translate(-35.92 200.75) rotate(-11.31)"/><path class="cls-52" d="M1031,274.57c1,6.31-.86,12.7-4.48,15.66-4.32,3.54-11,2.07-15-5.63-5.36-10.43-2.08-23.15,6.45-24.16C1024.38,259.67,1029.74,266.84,1031,274.57Z"/><g id="knife"><path class="cls-24" d="M1410.67,446.52a174.88,174.88,0,0,0-50.87-45q5.76-13.28,11.53-26.53l57.57,74.85Z"/><circle class="cls-53" cx="1404.26" cy="427.11" r="1.82"/><circle class="cls-53" cx="1376.53" cy="391.63" r="1.82"/><path class="cls-54" d="M1474.92,505.93q11.31,13.91,22.62,27.8l-11.23,24.47-2.8,6.11c-1.3-1.07-2.59-2.18-3.91-3.31-.87-.74-1.74-1.49-2.61-2.26s-1.89-1.66-2.84-2.52q-2.82-2.52-5.67-5.2c-1-.89-1.91-1.79-2.87-2.71s-1.64-1.57-2.44-2.37c-1.45-1.41-2.88-2.83-4.27-4.23l-.54-.55c-.68-.69-1.35-1.39-2-2.08s-1.46-1.51-2.18-2.27l-.83-.87-.17-.19c-.53-.57-1.06-1.12-1.57-1.68s-1.16-1.25-1.72-1.87c-1-1.11-2-2.21-3-3.32l-1.47-1.64c-5.23-5.93-10-11.7-14.26-17.22-.47-.6-.92-1.2-1.39-1.79-1-1.38-2.07-2.72-3-4.06-.47-.63-.93-1.26-1.4-1.88-4.61-6.29-8.57-12.13-11.93-17.32a33.52,33.52,0,0,0,3.18-12.62c0-.36,0-.71,0-1.07s0-.59,0-.89a2,2,0,0,0,0-.35c0-.28,0-.56,0-.85,0-.82,0-1.65-.11-2.45,0-.37,0-.72-.1-1.07-.13-1.36-.32-2.68-.56-4a58.48,58.48,0,0,0-5.2-15.17h.15l15.87.39.71.86c11.53,14.16,23,28,34.55,42.15l3.71,4.56.7.86C1469.21,498.89,1472.06,502.41,1474.92,505.93Z"/><path class="cls-55" d="M1466,536.34c6.82,7.77,13.79,15.18,20.32,21.86l-2.8,6.11c-1.3-1.07-2.59-2.18-3.91-3.31-.87-.74-1.74-1.49-2.61-2.26s-1.89-1.66-2.84-2.52c-1.88-1.67-3.77-3.41-5.67-5.2-1-.89-1.91-1.79-2.87-2.71s-1.64-1.57-2.44-2.37c-1.45-1.41-2.88-2.83-4.27-4.23l-.54-.55c-.68-.69-1.35-1.39-2-2.08s-1.46-1.51-2.18-2.27l-.83-.87-.17-.19c-.53-.57-1.06-1.12-1.57-1.68s-1.16-1.25-1.72-1.87q-1.53-1.63-3-3.32l-1.47-1.64c-5.23-5.93-10-11.7-14.26-17.22-.47-.6-.92-1.2-1.39-1.79-1-1.38-2.07-2.72-3-4.06-.47-.63-.93-1.26-1.4-1.88-4.61-6.29-8.57-12.13-11.93-17.32a33.52,33.52,0,0,0,3.18-12.62c0-.36,0-.71,0-1.07s0-.6,0-.89a2,2,0,0,0,0-.35c0-.28,0-.56,0-.85,0-.82,0-1.65-.11-2.45,0-.36,0-.72-.1-1.07-.13-1.36-.32-2.68-.56-4a336.75,336.75,0,0,0,37.26,59.17l.62.78c.93,1.17,1.86,2.35,2.82,3.5.25.32.51.63.76.94C1460.14,529.56,1463.05,533,1466,536.34Z"/><path class="cls-56" d="M1463.17,545.94q-4.7-4.58-9-9.13l12.17-41.44,8.6,10.56Z"/><path class="cls-56" d="M1453.34,535.94c-1.19-1.25-2.34-2.49-3.47-3.73L1461.92,490l3.72,4.57Z"/></g><path class="cls-57" d="M1492.31,550.68l8-19.36h-2.79l-15.17,34.39.88,3.92a56,56,0,0,1-2,17.15,2.79,2.79,0,0,0,1.76,3.14,2.84,2.84,0,0,0,3.22-2.75q0-4.36-.28-9c-.2-3.54-.49-6.93-.84-10.18l4.17-10.07c-.74,8.76,0,13,.64,15,.26.88,1,3.22,1.7,3.18s1.2-2.71,1.39-3.88C1492.77,565.61,1492.25,558.55,1492.31,550.68Z"/><path class="cls-19" d="M1483,583l-1,4a1,1,0,0,0,1,1,.94.94,0,0,0,.67-1c.23-1.33.45-2.67.68-4,0-.5-.11-.92-.35-1S1483.21,582.27,1483,583Z"/><path class="cls-57" d="M1603,726l-.22,1c0,.32,0,.63,0,1-.71,3-3.61,12.32-12.8,16-8.86,3.6-19.69.44-26-8a22.15,22.15,0,0,0,1,2.28c.1,5.53,0,10.15,0,13.62-.11,4.2-.25,6.06,0,6.1.46.07,2.18-4.27,2-9,0-1.31-.24-2.43-.22-4.84,0-1,0-1.91.12-2.8a21.48,21.48,0,0,0,10,7.49c-.56,5.4-1.59,16.45-.91,20.15.1.55.35,1.83,1,2s1.84-.57,2-2q-.46-9.88-.94-19.78c.43.13.87.23,1.31.33-.47,2.12-.86,4.62-.37,5.66a1.56,1.56,0,0,0,2,.79,1.83,1.83,0,0,0,1-2c-.2-1.37-.39-2.73-.58-4.1a18.74,18.74,0,0,0,8.58-.9,19.61,19.61,0,0,0,10.66-9.46q-.83,6.23-1.66,12.46c.16,1.43,1.29,2.19,2,2a1.87,1.87,0,0,0,1-2V736.41a21.84,21.84,0,0,0,.93-3.89c0,.83,0,1.65.07,2.48.12.56.43,1,.78,1a.85.85,0,0,0,.44-.13,1.63,1.63,0,0,0,.56-.65C1605,734.68,1604.32,731,1603,726Z"/></g></svg>