<svg id="Layer_1" data-name="Layer 1" xmlns="http://www.w3.org/2000/svg" width="100" height="82.05" viewBox="0 0 100 82.05"><polygon points="0 35.99 0 41.69 0 77.58 43.92 77.58 43.92 67.03 17.5 67.03 17.5 41.69 17.55 41.69 17.55 26.82 37.38 26.82 37.38 16.91 17.55 16.91 17.55 10.56 44.22 10.56 44.22 0 0 0 0 35.99"/><path d="M71.73,49.57a8.53,8.53,0,0,1,8.68,7.89l17.4.15a.43.43,0,0,0,0,0H100a41.93,41.93,0,0,0-.84-9.22c-.05-.35-.4-1.79-.84-3.52l-.85-3.13-.44,0h.34a35.2,35.2,0,0,1-1.63-11.4,7.43,7.43,0,0,0-6.15-8,10.86,10.86,0,0,0,7-10.31c0-7.34-5.8-11.9-17-11.9H47.05V50.53a21.46,21.46,0,0,0-2.19,9.65c0,13.74,10.66,21.87,26.48,21.87,15,0,25.33-7.59,26.47-19.83H80.51a8.74,8.74,0,0,1-8.83,8.28C66.48,70.5,63,67.22,63,60S66.48,49.57,71.73,49.57ZM64.45,9.91l10.26.1c2.82,0,4.51,1.39,4.51,4s-1.69,4-4.51,4H64.45ZM75,27.12c2.38,0,3.42,1,3.42,3.67a35.69,35.69,0,0,0,.71,8.31,38.76,38.76,0,0,0-7.75-.83,39.53,39.53,0,0,0-6.89.64V27.12Z"/></svg>