<svg xmlns="http://www.w3.org/2000/svg" xmlns:xlink="http://www.w3.org/1999/xlink" width="1920" height="1080" viewBox="0 0 1920 1080"><defs><style>.cls-1{fill:#294a7a;}.cls-2{fill:#dce5e5;}.cls-3{fill:#1a376b;}.cls-4{fill:#122b60;}.cls-5{fill:#141e3d;}.cls-17,.cls-6{fill:#c8dced;}.cls-6{opacity:0.31;}.cls-7{fill:#493999;}.cls-8{fill:#59519e;}.cls-9{fill:#6161bc;}.cls-10{fill:#5c6b70;}.cls-11{fill:#8fa0a7;}.cls-12{fill:#25427c;}.cls-13{fill:#fff;}.cls-14{fill:#2d373a;}.cls-15{fill:#f6f0f7;}.cls-16{fill:#6f8087;}.cls-17{opacity:0.21;}.cls-18{fill:#b6c3cc;}.cls-19{fill:#dce1e2;}.cls-20{font-size:20.24px;fill:#4c6970;font-family:NouvelleVague-Black, Nouvelle Vague;font-weight:800;}.cls-21{letter-spacing:0.01em;}.cls-22{letter-spacing:0.03em;}.cls-23{letter-spacing:0.01em;}.cls-24{letter-spacing:0.02em;}.cls-25{letter-spacing:0.06em;}.cls-26{letter-spacing:0.02em;}.cls-27{fill:#ba4a52;}.cls-28{fill:#f7bcec;}.cls-29{fill:#d667c6;}.cls-30{fill:#ed7ac4;}.cls-31{fill:#4c141c;}.cls-32{fill:#b71a4e;}.cls-33{fill:#e56157;}.cls-34{fill:#98acaf;}.cls-35{fill:#8094a0;}.cls-36{fill:#05213a;}.cls-37{fill:#0a0a0a;}.cls-38{fill:#03355b;}.cls-39{fill:#c7e1ef;}.cls-40{fill:#6999c9;}.cls-41{fill:#b5d7e5;}.cls-42{fill:#8ab8dd;}.cls-43{fill:#242c47;}.cls-44{fill:#d16800;}.cls-45{fill:#d67513;}.cls-46{fill:#c14d1a;}.cls-47{fill:#e58410;}.cls-48{fill:#bbce46;}.cls-49{fill:#a8a424;}.cls-50{fill:#898011;}.cls-51{fill:#f4f2f2;}.cls-52{fill:#c3d5e0;}.cls-53{stroke:#000;stroke-miterlimit:10;stroke-width:3px;}.cls-54{opacity:0.67;filter:url(#AI_GaussianBlur_4);}.cls-55,.cls-58,.cls-59{fill:#f3f8ff;}.cls-56{fill:#c7d1e0;}.cls-57{fill:#e4e9f2;}.cls-58{opacity:0.71;}.cls-59{opacity:0.28;}.cls-60{fill:#931212;}</style><filter id="AI_GaussianBlur_4" name="AI_GaussianBlur_4"><feGaussianBlur stdDeviation="4"/></filter></defs><g id="Layer_1" data-name="Layer 1"><rect class="cls-1" width="1920" height="1080"/></g><g id="Layer_2" data-name="Layer 2"><ellipse class="cls-2" cx="1387.87" cy="508.45" rx="384.18" ry="396.46"/><path class="cls-3" d="M1920,1080H-48V500c79.81,1.81,206,2.37,360.5-7.5C733.26,465.63,906.72,349.13,1183,380l737,120Z"/><path class="cls-3" d="M484,481h16.31A34.41,34.41,0,0,1,497,470a35.39,35.39,0,0,1,3.31-19.55A43.22,43.22,0,0,0,487,468,42.26,42.26,0,0,0,484,481Z"/><path class="cls-3" d="M493,480h16.31A38.31,38.31,0,0,1,506,469c-2.3-16.44,7.14-29.37,10-33a75.7,75.7,0,0,0-20,31A71.47,71.47,0,0,0,493,480Z"/><path class="cls-3" d="M500,479h16.31c-.37-.25-6.52-4.46-6.31-12a14.5,14.5,0,0,1,6-11,22.8,22.8,0,0,0-13,10A22.46,22.46,0,0,0,500,479Z"/><path class="cls-3" d="M1093.31,380H1077a64.54,64.54,0,0,0,3.31-15.64,69.05,69.05,0,0,0-3.31-27.81,63.14,63.14,0,0,1,13.31,25A81.56,81.56,0,0,1,1093.31,380Z"/><path class="cls-3" d="M1084.31,378.58H1068a71.71,71.71,0,0,0,3.31-15.65c2.31-23.38-7.14-41.77-10-46.93a118.37,118.37,0,0,1,20,44.09A138.52,138.52,0,0,1,1084.31,378.58Z"/><path class="cls-3" d="M1077.31,377.16H1061a23.56,23.56,0,0,0,6.31-17.07c-.19-9.7-5.43-15.08-6-15.65,1.68.7,8.71,3.92,13,14.23A43.18,43.18,0,0,1,1077.31,377.16Z"/><path class="cls-3" d="M1205.11,285.91c-2.64,57.86-6.95,80.68-10.09,97.94l-42.16,2.22c.84-10,1.18-25.19-1.24-45.87-1.74-14.82-5.46-37.22-13.9-67.06l59.35,11.25.55.1.27.05.54.11Z"/><path class="cls-3" d="M1152.86,386.07l-6.19-5.05a260.26,260.26,0,0,0-2-42.85v-.1c0-.17,0-.35-.07-.53-.06-.48-.13-1-.19-1.45l-.09-.59,0-.13-.06-.47a263.88,263.88,0,0,0-11.62-48.35l5.09-13.41a456.21,456.21,0,0,1,12.75,58.28l.06.44c0,.35.1.7.14,1s.08.51.11.76c.3,2.17.58,4.36.84,6.54C1153.19,353.66,1154.22,369.85,1152.86,386.07Z"/><path class="cls-3" d="M1193.32,384.18a12.39,12.39,0,0,1,1.67-5.4,17.08,17.08,0,0,1,7.16-6.39,12.11,12.11,0,0,0-5.16,6.06,9.25,9.25,0,0,0-.19,5.46Z"/><path class="cls-3" d="M1156.59,386.43a20.88,20.88,0,0,0,2.27-4.6,54.87,54.87,0,0,0,1.54-8.14,51.14,51.14,0,0,1,.18,7,50.41,50.41,0,0,1-.51,5.44Z"/><path class="cls-3" d="M1147,383.37c-.4-1.23-.78-2.54-1.13-3.94-.48-1.94-.83-3.78-1.08-5.49a20.47,20.47,0,0,0,2.36,5.15,21.06,21.06,0,0,0,3.33,4Z"/><path class="cls-3" d="M1149.09,384.22a11.07,11.07,0,0,1-1.13-3.93,11.22,11.22,0,0,1,1-5.82,10,10,0,0,0-.19,5.46,10.39,10.39,0,0,0,2,4Z"/><path class="cls-3" d="M1146.15,383.73a14,14,0,0,1-.76-2.36,13.49,13.49,0,0,1-.31-3.13,5.34,5.34,0,0,0,.73,3.14,6,6,0,0,0,2,2Z"/><path class="cls-3" d="M1195,384.24a10,10,0,0,1,1.39-3.86,9.31,9.31,0,0,1,3.46-2.61s-2.94,2-2.67,4.2a3.25,3.25,0,0,0,1.29,2Z"/><polygon class="cls-3" points="1153.23 329.99 1150.83 333.62 1150.78 333.66 1144.69 338.17 1144.68 338.07 1144.61 337.55 1144.33 335.5 1144.32 335.37 1150.53 331.86 1150.53 331.86 1152.09 329.95 1152.29 316.5 1152.3 315.68 1153.23 329.99"/><path class="cls-3" d="M1152.76,329.86l-1.91,2.91-.18.13-6.06,4.64h0l-.28-2.05,0-.13-.06-.47,6.22-3.48.15-.09,1.2-1.67.44-13.89,0,.73Z"/><polygon class="cls-3" points="1199.84 288.95 1196.97 295.78 1197.17 294.99 1198.86 288.43 1197.62 284.49 1197.89 284.54 1198.43 284.65 1199.84 288.95"/><polygon class="cls-3" points="1199.27 288.79 1197.17 294.99 1196.81 296.05 1198.29 288.26 1197.07 284.39 1197.62 284.49 1197.89 284.54 1199.27 288.79"/><path class="cls-3" d="M675.11,470.94l-61.56,6.53-3.34-1.3-.94-8.84c1.78-.08,3.53-.49,5.31-.57l-.49-4.58,3.74-.39c-2-9.77-4.09-20.12-6.15-30.36,0-.1,0-.2-.06-.3s-.07-.36-.11-.54,0-.2-.06-.3h0c-1.28-6.36-2.55-12.67-3.8-18.74a33.69,33.69,0,0,1,7.47-20.65,42.79,42.79,0,0,1,13.24-10,20.56,20.56,0,0,1,8.38-1.88h.1a38.74,38.74,0,0,1,14.72,5.18h0a45,45,0,0,1,5.89,4.81l.5.49.29.29c.16.16.32.32.47.49a41.1,41.1,0,0,1,4.31,5.29l0,0a33.19,33.19,0,0,1,3.4,7.39q-1.59,26.16-3.19,52.32l3.3,2.63,2.4,2.4,3,1.33Z"/><polygon class="cls-3" points="667.15 456.56 667.28 457.87 672.55 456.98 671.04 456.14 667.15 456.56"/><polygon class="cls-3" points="672.83 462.91 678.1 462.02 676.51 460.53 672.62 460.94 672.83 462.91"/><path class="cls-3" d="M678.1,462l.9,8.51-65.43,6.94-.91-8.51,5-.53-.59-5.57,4.79-.51L611.51,410.8c-1.21-11.39,12.22-30.43,24.53-31.74l.8-.06c4.63-.21,9.89,1.89,14.72,5.18h0a45,45,0,0,1,5.89,4.81l.5.49.29.29c.16.16.32.32.47.49a41.1,41.1,0,0,1,4.31,5.29l0,0a22.22,22.22,0,0,1,4,9.64l.38,52.28,5.11-.55.59,5.57Z"/><path class="cls-3" d="M658.26,389.78c.16.16.32.32.47.49l-4.4,7.23-1.83,3.94,0-.19h0l.75-3.93,4.68-7.82Z"/><path class="cls-3" d="M658,389.49l.29.29-4.12,7.59-1.62,4,0-.14h0l.56-4,4.37-8.22Z"/><path class="cls-3" d="M622,431.08l-4.41,2.53-1.55-.09-4.37-2.09c0-.1,0-.2-.06-.3s-.07-.36-.11-.54l4.36,2.42,1.64.33h.08Z"/><path class="cls-3" d="M622,431.08l-4.38,2.27h-.12l-1.43-.08-4.46-2.13c0-.18-.07-.36-.11-.54s0-.2-.06-.3h0l4.45,2.47,1.7.34Z"/><path class="cls-3" d="M607.6,467.62a14.41,14.41,0,0,1,7,6.11,13.54,13.54,0,0,1,1.53,4.27h-4.58a11.75,11.75,0,0,0-4-10.38Z"/><path class="cls-3" d="M607,468.54a11.28,11.28,0,0,0,1.83,6.41,11.12,11.12,0,0,0,3,3.05h-2.74a9.27,9.27,0,0,1-1.84-2.75A9.93,9.93,0,0,1,607,468.54Z"/><path class="cls-3" d="M608.52,470.37a7,7,0,0,1,1.83,4.58,6.72,6.72,0,0,1-.75,3.05h2.75a9.22,9.22,0,0,0-.48-3.05A9.56,9.56,0,0,0,608.52,470.37Z"/><path class="cls-4" d="M906,581.07l-84.12-.29-4.32-2.25,0-12.08c2.42.16,4.84-.13,7.25,0l0-6.26,5.1,0c-1.27-13.48-2.54-27.78-3.81-41.91,0-.14,0-.28,0-.42l-.06-.75c0-.13,0-.27,0-.41h0c-.78-8.78-1.57-17.49-2.36-25.87a45.79,45.79,0,0,1,13.14-26.8,58.24,58.24,0,0,1,19.37-11.57,28.42,28.42,0,0,1,6.29-1.32,29,29,0,0,1,5.31,0l.14,0a52.25,52.25,0,0,1,19.11,9.17h0a60.93,60.93,0,0,1,7.25,7.38c.21.24.41.48.6.73s.23.28.34.43.39.48.57.73a56.69,56.69,0,0,1,5,7.79l0,0A46,46,0,0,1,904.42,488l-12.06,70.2,4.07,4,2.88,3.59,3.86,2.25Q904.6,574.58,906,581.07Z"/><polygon class="cls-4" points="897.4 560.46 897.39 562.25 904.64 561.83 902.72 560.48 897.4 560.46"/><polygon class="cls-4" points="904.13 569.88 911.38 569.46 909.46 567.22 904.14 567.2 904.13 569.88"/><path class="cls-4" d="M911.38,569.46l0,11.63-89.41-.31,0-11.63,6.77,0,0-7.6,6.55,0L829,490.43c.05-15.57,21-39.3,37.83-39.24.36,0,.73,0,1.1,0,6.27.4,13.07,4,19.11,9.17h0a60.93,60.93,0,0,1,7.25,7.38c.21.24.41.48.6.73s.23.28.34.43.39.48.57.73a56.69,56.69,0,0,1,5,7.79l0,0c2.51,4.75,4,9.49,4,13.62l-7.23,70.67,7,0,0,7.61Z"/><path class="cls-4" d="M895.27,469c.2.24.39.48.57.73l-7,9.12-3.05,5.05.08-.26h0l1.6-5.2,7.47-9.86C895.05,468.66,895.16,468.8,895.27,469Z"/><path class="cls-4" d="M894.93,468.52c.12.14.23.28.34.43l-6.67,9.64-2.8,5.2.05-.2h0l1.35-5.34,7.12-10.45C894.54,468,894.74,468.27,894.93,468.52Z"/><path class="cls-4" d="M840.21,519.38l-6.34,2.75-2.08-.35-5.59-3.46c0-.14,0-.28,0-.42l-.06-.75,5.52,3.91,2.17.7.08,0h0Z"/><path class="cls-4" d="M840.21,519.38,834,521.79h-.05l-.11,0-1.92-.33-5.71-3.53-.06-.75c0-.13,0-.27,0-.41h0l5.64,4,2.25.72Z"/><path class="cls-4" d="M815.33,566.6a19.62,19.62,0,0,1,8.58,9.28,18.4,18.4,0,0,1,1.43,6l-6.18-.67a16,16,0,0,0-3.83-14.61Z"/><path class="cls-4" d="M814.37,567.74a15.27,15.27,0,0,0,1.53,8.93,14.71,14.71,0,0,0,3.67,4.58l-3.71-.41a12.41,12.41,0,0,1-2.07-4A13.57,13.57,0,0,1,814.37,567.74Z"/><path class="cls-4" d="M816.16,570.44a9.45,9.45,0,0,1,1.8,6.46,8.89,8.89,0,0,1-1.47,4l3.72.41a12.62,12.62,0,0,0-.19-4.19A13.1,13.1,0,0,0,816.16,570.44Z"/><path class="cls-4" d="M526.5,606.92l-86.71-.06-4.46-2.31V592.1c2.49.15,5-.15,7.47,0v-6.45h5.25c-1.34-13.9-2.69-28.63-4-43.19,0-.14,0-.29,0-.43s-.05-.52-.07-.78,0-.28,0-.42v0c-.83-9-1.67-18-2.51-26.66a47.23,47.23,0,0,1,13.47-27.66,59.89,59.89,0,0,1,19.94-12,28.52,28.52,0,0,1,6.48-1.38,29.31,29.31,0,0,1,5.48,0l.13,0a54,54,0,0,1,19.74,9.4h0a63.19,63.19,0,0,1,7.5,7.58l.62.75.36.45.59.75a58.67,58.67,0,0,1,5.22,8s0,0,0,.05a47.38,47.38,0,0,1,3.65,10.8q-6.12,36.19-12.23,72.41l4.2,4.15,3,3.69,4,2.31Q525,600.23,526.5,606.92Z"/><polygon class="cls-4" points="517.55 585.7 517.55 587.54 525.02 587.09 523.03 585.7 517.55 585.7"/><polygon class="cls-4" points="524.52 595.39 531.99 594.93 530 592.62 524.52 592.62 524.52 595.39"/><path class="cls-4" d="M532,594.93v12l-92.18-.06v-12h7V587h6.75l-6.7-73.34c0-16.05,21.55-40.57,38.89-40.56.38,0,.75,0,1.13,0,6.47.39,13.5,4.1,19.74,9.4h0a63.19,63.19,0,0,1,7.5,7.58l.62.75.36.45.59.75a58.67,58.67,0,0,1,5.22,8s0,0,0,.05c2.6,4.89,4.15,9.77,4.15,14l-7.25,72.87H525v7.85Z"/><path class="cls-4" d="M515.1,491.36l.59.75-7.22,9.42-3.13,5.22.08-.27h0l1.63-5.36,7.68-10.2Z"/><path class="cls-4" d="M514.74,490.91l.36.45-6.86,10-2.87,5.36.05-.2h0l1.38-5.51,7.31-10.8Z"/><path class="cls-4" d="M458.47,543.51,452,546.37,449.8,546,444,542.46c0-.14,0-.29,0-.43s-.05-.52-.07-.78l5.7,4,2.24.71.09,0h0Z"/><path class="cls-4" d="M458.47,543.51,452,546H452l-.11,0-2-.33L444,542c0-.26-.05-.52-.07-.78s0-.28,0-.42v0l5.82,4.1,2.33.74Z"/><path class="cls-4" d="M433,592.26a20.25,20.25,0,0,1,8.88,9.55,19.08,19.08,0,0,1,1.49,6.18L437,607.3a16.51,16.51,0,0,0-4-15Z"/><path class="cls-4" d="M432,593.44a15.73,15.73,0,0,0,1.59,9.2,15.49,15.49,0,0,0,3.8,4.71l-3.82-.41a12.83,12.83,0,0,1-2.15-4.1A13.93,13.93,0,0,1,432,593.44Z"/><path class="cls-4" d="M433.83,596.22a9.74,9.74,0,0,1,1.87,6.65,9.23,9.23,0,0,1-1.5,4.14l3.83.41a12.91,12.91,0,0,0-.2-4.32A13.48,13.48,0,0,0,433.83,596.22Z"/><path class="cls-5" d="M1689.93,474.46l-105.94,3-5.53-2.67-.43-15.21c3,.1,6.08-.36,9.13-.26l-.22-7.88,6.42-.18c-2.13-16.93-4.29-34.89-6.45-52.63,0-.18,0-.35-.07-.53s-.07-.63-.11-.94l-.06-.51v0c-1.34-11-2.68-21.95-4-32.48a57.8,57.8,0,0,1,15.49-34.28,73.26,73.26,0,0,1,23.94-15.33,34.44,34.44,0,0,1,7.87-1.91,35.46,35.46,0,0,1,6.69-.19l.17,0a66.11,66.11,0,0,1,24.44,10.79l0,0a76.93,76.93,0,0,1,9.42,9c.27.29.53.59.79.89l.45.53.75.9a70.12,70.12,0,0,1,6.65,9.61l0,.06a57.75,57.75,0,0,1,4.83,13.07q-6.2,44.44-12.4,88.89l5.29,4.93,3.77,4.41c1.65.89,3.31,1.78,5,2.68Z"/><polygon class="cls-5" points="1678.25 448.84 1678.31 451.1 1687.43 450.28 1684.95 448.65 1678.25 448.84"/><polygon class="cls-5" points="1687.1 460.44 1696.22 459.62 1693.7 456.87 1687.01 457.06 1687.1 460.44"/><path class="cls-5" d="M1696.22,459.62l.41,14.65L1584,477.43l-.41-14.65,8.53-.24-.27-9.58,8.24-.24-10.76-89.36c-.55-19.61,24.91-50.33,46.09-50.93.46,0,.92,0,1.39,0,7.91.25,16.63,4.53,24.44,10.79l0,0a76.93,76.93,0,0,1,9.42,9c.27.29.53.59.79.89l.45.53.75.9a70.12,70.12,0,0,1,6.65,9.61l0,.06c3.35,5.88,5.41,11.8,5.55,17l-6.3,89.28,8.8-.24.27,9.58Z"/><path class="cls-5" d="M1671.94,333.67l.75.9-8.49,11.77-3.64,6.48.09-.33v0l1.81-6.61,9-12.72Z"/><path class="cls-5" d="M1671.49,333.14l.45.53-8,12.41-3.31,6.65.05-.24v0l1.49-6.78,8.55-13.44C1671,332.54,1671.23,332.84,1671.49,333.14Z"/><path class="cls-5" d="M1604.59,399.37l-7.87,3.72-2.63-.36-7.18-4.13c0-.18,0-.35-.07-.53s-.07-.63-.11-.94l7.11,4.71,2.76.78.11,0,0,0Z"/><path class="cls-5" d="M1604.59,399.37l-7.79,3.28h-.06l-.14,0-2.43-.33-7.33-4.22c0-.31-.07-.63-.11-.94l-.06-.51v0l7.26,4.81,2.86.82Z"/><path class="cls-5" d="M1575.13,459.83a24.76,24.76,0,0,1,11.18,11.35,23.24,23.24,0,0,1,2,7.5l-7.82-.61a20.11,20.11,0,0,0-5.4-18.24Z"/><path class="cls-5" d="M1574,461.31a19.3,19.3,0,0,0,2.28,11.19,18.84,18.84,0,0,0,4.8,5.61l-4.69-.36a16,16,0,0,1-2.76-4.94A17.06,17.06,0,0,1,1574,461.31Z"/><path class="cls-5" d="M1576.33,464.64a11.91,11.91,0,0,1,2.52,8.06,11.41,11.41,0,0,1-1.68,5.11l4.69.37a16,16,0,0,0-.4-5.28A16.42,16.42,0,0,0,1576.33,464.64Z"/><path class="cls-4" d="M1130.65,539.54q-.15,5.37,0,10.49c-14.94,0-44.72,4.7-44.72,4.7a32.71,32.71,0,0,0-2.13-4.42,295.36,295.36,0,0,0-12.56-60.67q-1.62-5.06-3.37-9.92c2.77.91,6.46,1.63,9.19,0a4.47,4.47,0,0,0,1.17-1,3.46,3.46,0,0,0,.22-.31l.14-.21c.06-.11.12-.22.17-.33,1.9-3.93-1.15-11,4.12-15.72,11.63-10.49,33.68-11.91,46.55-2.55,5.25,6.25,5.22,17.65,5.2,19.14v1.84a7.64,7.64,0,0,0,5.8,0,6.91,6.91,0,0,0,1.55,1.13,8.58,8.58,0,0,0,5.21.85C1140.85,499.75,1131.31,516.48,1130.65,539.54Z"/><path class="cls-4" d="M1134.38,552.05l-48.45,2.68c0-3.06.2-7.2,0-10.37a194.85,194.85,0,0,0-14.09-61.81,17.36,17.36,0,0,0,5.21.57,16.9,16.9,0,0,0,2.45-.28c.1-.07.34-.22.61-.43,5.93-4.46,1.65-13.64,4.9-18,8.12-10.89,33.93-12.77,46-3.9l.12.09c.21.16.42.32.62.49l.18.14a18.16,18.16,0,0,1,2.07,2c5.25,6.26,5.22,17.66,5.21,19.14v.14a11.67,11.67,0,0,0,2.45.57,12.42,12.42,0,0,0,5.51-.57C1140.85,499.75,1134.28,548.63,1134.38,552.05Z"/><path class="cls-4" d="M1132.64,553.36a9,9,0,0,1,1.08-4,12.39,12.39,0,0,1,5-4.82,8.79,8.79,0,0,0-3.6,4.54,6.68,6.68,0,0,0,0,4Z"/><path class="cls-4" d="M1085.72,554.94a16,16,0,0,0,1.53-3.4,40.71,40.71,0,0,0,.92-6,37.75,37.75,0,0,1,.3,5.1,37,37,0,0,1-.23,4Z"/><path class="cls-4" d="M1084.84,555c-.32-.89-.63-1.83-.92-2.84-.4-1.4-.69-2.73-.92-4a14.93,14.93,0,0,0,1.84,3.69,15.63,15.63,0,0,0,2.52,2.83Z"/><path class="cls-4" d="M1085.37,554.93a8.36,8.36,0,0,1-.92-2.83,8.18,8.18,0,0,1,.62-4.25,7.24,7.24,0,0,0,0,4,7.64,7.64,0,0,0,1.53,2.83Z"/><path class="cls-4" d="M1083.1,553.24a9.75,9.75,0,0,1-.61-1.7,9.92,9.92,0,0,1-.31-2.27,3.94,3.94,0,0,0,.62,2.27,4.3,4.3,0,0,0,1.53,1.42Z"/><path class="cls-4" d="M1134.08,553.1a7.34,7.34,0,0,1,.92-2.83,6.82,6.82,0,0,1,2.45-2s-2.09,1.55-1.84,3.12a2.4,2.4,0,0,0,1,1.42Z"/><path class="cls-4" d="M1085.39,485.8l-3.85-4.68-3.31-2.41a3.46,3.46,0,0,0,.22-.31l.14-.21,3.5,2.1Z"/><path class="cls-4" d="M1085.39,485.8l-3.58-5-3.36-2.44.14-.21c.06-.11.12-.22.17-.33l3.6,2.16Z"/><path class="cls-4" d="M1132,461.23l-.9,3.38-10.18,2.76,9.35-3.31.93-3.46c.21.16.42.32.62.49Z"/><path class="cls-4" d="M1131.77,461.09l-1,3.25-9.9,3,9.35-3.86.81-3,.12.09C1131.36,460.76,1131.57,460.92,1131.77,461.09Z"/><path class="cls-5" d="M1920,1080l-1920.5.5a3246.34,3246.34,0,0,1,607-357c131.18-59,369.59-164.35,703-223A2758.65,2758.65,0,0,1,1920,462Z"/><path class="cls-5" d="M1199,497a28.61,28.61,0,0,1,19,31l-19,2.15a26.18,26.18,0,0,0,6-15.15A26.45,26.45,0,0,0,1199,497Z"/><path class="cls-5" d="M1202,477a69.3,69.3,0,0,1,22,30,67.1,67.1,0,0,1,4,19l-19,2.15a37.69,37.69,0,0,0,6-15.15C1218,493.74,1204.07,479.11,1202,477Z"/><path class="cls-5" d="M1240,494a44.54,44.54,0,0,0-10,30l-12,3.15a58.11,58.11,0,0,1,6-15.15A58.72,58.72,0,0,1,1240,494Z"/><path class="cls-6" d="M-90.45,73.07C234,247.09,494,279.05,672.68,275.48c235.21-4.7,300.59-70.37,592.77-53,107.24,6.37,252.6,24.38,471.91,11.95,79.16-4.49,144.24-11.6,187.89-17.08a720.42,720.42,0,0,0,200.17-23.57A714.45,714.45,0,0,0,2226,159a716.48,716.48,0,0,0-202.6-13.57c-91.58,7.06-154,30.17-193,41.88C1680,232.59,1556.08,205.61,1416,189.8c-459.29-51.84-583.81,73.69-938.6-5.65-129.19-28.89-311.42-90-517.53-235.07Z"/><polygon class="cls-7" points="-23 165 -99 146.3 -147 42 -33 130 7.41 146.3 86 206 67 289 -23 165"/><path class="cls-8" d="M408,1119.51c-13.63,8.15-39.1,151.49-39.1,151.49H-19.61S-39,1202.59-66,1179.37C-16.22,941.58,21.12,601.3,48,247,58.27,75.26,24.31-15.31,5-95.06Q3-103.59,1.16-112q4.08,0,8,0c11.84-.11,22.77-.49,33-1C122.27-117.53,158.8-134,255-134c-21.63,100.11,18,273,28,485C320,740,332,923.43,408,1119.51Z"/><polygon class="cls-7" points="209 640 408 1164.65 321 1217 223 968 209 640"/><polygon class="cls-7" points="157 -17 209 53.79 209 289 238 156 238 22.93 197.5 -36.41 157 -17"/><path class="cls-7" d="M648-51,513,101,408,125l-83,81L259,400a481.26,481.26,0,0,1-9-122c.07-1.34.15-2.68.24-4A478,478,0,0,1,259,208.08L378,99,496,70,594.53-8.44Z"/><path class="cls-9" d="M594.53-8.44,502,79,384,110,250.24,274A478,478,0,0,1,259,208.08L378,99,496,70Z"/><path class="cls-9" d="M74-89C85.22,81.81,90.33,266,86,462a6289.64,6289.64,0,0,1-70.33,809H-19.61S-39,1202.59-66,1179.37C-16.22,941.58,21.12,601.3,48,247,58.27,75.26,24.31-15.31,5-95.06l4.14-17,5.35-22,27.63,20.91Z"/><polygon class="cls-8" points="41 754 -23 928 -168.26 1126.85 -88.24 1189.36 10 928 41 754"/><path class="cls-10" d="M1876.63,296.91c-6.58,144.42-17.35,201.4-25.19,244.47l-105.25,5.55c2.1-25.07,3-62.89-3.09-114.5-4.34-37-13.63-92.93-34.69-167.41l148.15,28.09,1.37.25.67.13,1.36.26Z"/><path class="cls-11" d="M1746.19,546.93l-15.45-12.6a648.79,648.79,0,0,0-4.94-107l0-.23c0-.44-.11-.88-.17-1.33-.15-1.2-.32-2.4-.48-3.61l-.21-1.49-.05-.32c0-.39-.1-.79-.16-1.17a658.93,658.93,0,0,0-29-120.69L1708.41,265c12.09,42.75,24.25,93.15,31.81,145.48.06.37.11.74.15,1.1.14.87.26,1.75.37,2.61.1.63.19,1.26.26,1.88q1.14,8.15,2.1,16.34C1747,466,1749.6,506.44,1746.19,546.93Z"/><path class="cls-12" d="M1847.2,542.21a30.76,30.76,0,0,1,4.18-13.49c5.25-9,13.83-13.93,17.86-15.93-2.73,1.67-9.93,6.57-12.89,15.13a23.18,23.18,0,0,0-.46,13.61Z"/><path class="cls-12" d="M1755.52,547.83a52.92,52.92,0,0,0,5.65-11.49s1.58-4.56,3.85-20.31a131.43,131.43,0,0,1,.45,17.54,130.07,130.07,0,0,1-1.27,13.59Z"/><path class="cls-12" d="M1731.59,540.2c-1-3.07-1.95-6.35-2.82-9.83-1.2-4.86-2.07-9.46-2.68-13.72A49.94,49.94,0,0,0,1732,529.5a53.12,53.12,0,0,0,8.31,10Z"/><path class="cls-12" d="M1736.78,542.32a27.6,27.6,0,0,1-.22-24.34,25,25,0,0,0-.47,13.61,26,26,0,0,0,4.92,9.9Z"/><path class="cls-12" d="M1729.46,541.1a33.5,33.5,0,0,1-2.69-13.72,13.3,13.3,0,0,0,1.84,7.85,14.68,14.68,0,0,0,5.08,5Z"/><path class="cls-12" d="M1851.4,542.35c0-.93,1.39-6.89,3.49-9.61a23.09,23.09,0,0,1,8.63-6.52s-7.34,5.06-6.66,10.48a8,8,0,0,0,3.23,5Z"/><polygon class="cls-13" points="1747.13 406.94 1741.11 416.01 1741.01 416.09 1725.8 427.35 1725.77 427.12 1725.59 425.8 1724.91 420.69 1724.86 420.37 1740.37 411.6 1740.38 411.6 1744.28 406.85 1744.76 373.26 1744.79 371.21 1747.13 406.94"/><path class="cls-14" d="M1745.94,406.61l-4.75,7.26-.45.34-15.14,11.58h0l-.68-5.11-.05-.32c0-.39-.1-.79-.16-1.17l15.52-8.7.38-.21,3-4.18,1.1-34.67.07,1.82Z"/><polygon class="cls-13" points="1863.47 304.48 1856.3 321.55 1856.81 319.58 1861.02 303.18 1857.93 293.36 1858.6 293.49 1859.96 293.75 1863.47 304.48"/><polygon class="cls-14" points="1862.06 304.08 1856.81 319.58 1855.91 322.21 1859.61 302.78 1856.56 293.11 1857.93 293.36 1858.6 293.49 1862.06 304.08"/><path class="cls-11" d="M875.13,736.88,673.49,758.26,662.55,754l-3.07-29c5.83-.26,11.54-1.59,17.38-1.84l-1.59-15,12.22-1.3c-6.58-32-13.36-65.9-20.11-99.42-.07-.33-.13-.67-.2-1l-.36-1.77c-.06-.33-.13-.66-.2-1v0c-4.19-20.83-8.36-41.48-12.46-61.36.2-10.79,2.24-40.55,24.46-67.67,0,0,17.57-20.89,43.39-32.8A67.41,67.41,0,0,1,736.73,437a68.43,68.43,0,0,1,12.73-1.35l.33.05a126.24,126.24,0,0,1,48.22,17l0,0a147.19,147.19,0,0,1,19.31,15.76l1.64,1.6.93.94c.53.53,1,1.06,1.56,1.6A135,135,0,0,1,835.61,490a.75.75,0,0,1,.07.12,109.59,109.59,0,0,1,11.16,24.21Q841.62,600,836.38,685.67l10.81,8.62c2.61,2.62,5.24,5.23,7.86,7.85,3.27,1.45,6.56,2.91,9.83,4.38Q870,721.7,875.13,736.88Z"/><polygon class="cls-11" points="849.05 689.76 849.5 694.05 866.77 691.13 861.79 688.41 849.05 689.76"/><polygon class="cls-11" points="867.65 710.56 884.92 707.64 879.72 702.77 866.97 704.13 867.65 710.56"/><path class="cls-10" d="M884.92,707.65l3,27.88L673.54,758.26l-2.95-27.89,16.22-1.72-1.93-18.24,15.69-1.66L666.8,539.89c-4-37.32,40-99.69,80.35-104,.88-.09,1.75-.16,2.64-.2,15.14-.69,32.39,6.19,48.22,17l0,0a147.19,147.19,0,0,1,19.31,15.76l1.64,1.6.93.94c.53.53,1,1.06,1.56,1.6A135,135,0,0,1,835.61,490a.75.75,0,0,1,.07.12c7.26,10.71,12.07,21.69,13.12,31.59L850,692.9l16.74-1.77,1.93,18.24Z"/><path class="cls-15" d="M819.93,471c.53.53,1,1.06,1.56,1.6l-14.44,23.71-6,12.9.12-.64v0l2.47-12.88L819,470.08Z"/><path class="cls-14" d="M819,470.08l.93.94-13.47,24.86-5.33,13.18.06-.47v0L803,495.4l14.32-26.92Z"/><path class="cls-13" d="M701.21,606.32l-14.45,8.27-5.08-.3-14.3-6.82c-.07-.33-.13-.67-.2-1l-.36-1.77,14.25,7.92,5.39,1.09.21,0,.06,0Z"/><path class="cls-14" d="M701.21,606.32l-14.36,7.42-.12,0h-.27l-4.69-.28-14.59-7-.36-1.77c-.06-.33-.13-.66-.2-1v0l14.56,8.08,5.59,1.14Z"/><path class="cls-12" d="M654,726c4.54,1.9,15.91,7.4,23,20a44.36,44.36,0,0,1,5,14H667a38.55,38.55,0,0,0-13-34Z"/><path class="cls-12" d="M652,729a36.88,36.88,0,0,0,6,21,36,36,0,0,0,10,10h-9a30.5,30.5,0,0,1-6-9A32.64,32.64,0,0,1,652,729Z"/><path class="cls-12" d="M657,735a22.77,22.77,0,0,1,6,15,21.77,21.77,0,0,1-2.45,10h9A30.29,30.29,0,0,0,668,750,31.52,31.52,0,0,0,657,735Z"/><g id="gravsten"><polygon class="cls-11" points="1599.47 610.23 1307.13 641.23 1273.65 629.26 1566 598.26 1599.47 610.23"/><path class="cls-11" d="M1524.26,606.31c-51.55,4.09-116.64,14.47-167.57,24.29-6.15-.73-12.06-.32-18.51-1.29-21.82-81.6-35.47-163.68-52.11-243.73-11-53,31.65-79.08,100.8-89.72,5.49-.84,17.88-1.8,23.29-2.16,68.07-4.51,122,12.72,120.93,65.11C1529.49,439.13,1525.37,525.73,1524.26,606.31Z"/><path class="cls-10" d="M1530.88,359.74c-.54,60.38-3.55,124.1-5.36,186.27,0,.9-.06,1.79-.08,2.68,0,.66,0,1.31,0,2,0,.88-.05,1.77-.07,2.66-.51,18.13-.89,36.12-1.07,53.83-51.25,3.72-117.23,14.17-167.06,23.24-17.85-79.82-31.86-167.5-53.93-246.72-14.41-51.7,53.87-82.42,97.38-88l8.07-1C1481.15,290,1531.34,307.49,1530.88,359.74Z"/><rect class="cls-10" x="1307.2" y="625.69" width="293.99" height="19.84" transform="translate(-58.92 156.88) rotate(-6.05)"/><polygon class="cls-16" points="1309.07 660.98 1276.2 653.3 1273.65 629.26 1307.13 641.23 1309.07 660.98"/><path class="cls-13" d="M1525.44,548.69c0,.66,0,1.31,0,2,0,.88-.05,1.77-.07,2.66L1505,547l-28.77-37.55-.45-.6,32.66,35Z"/><path class="cls-14" d="M1525.52,546c0,.9-.06,1.79-.08,2.68,0,.66,0,1.31,0,2l-20.66-6.43-28.48-34.76-1.89-2.32,33.81,33.91Z"/></g><path class="cls-11" d="M1051,958.67q-2.67,22.64-4,44.37c-63.22-5.65-191,3-191,3s-4.33-14.38-7.36-19.49a1253.06,1253.06,0,0,0-30.15-261.44q-4.95-22-10.5-43.27c11.38,4.92,26.72,9.36,38.87,3.48a18.18,18.18,0,0,0,5.32-3.82,12.51,12.51,0,0,0,1.08-1.23c.22-.27.43-.54.63-.83s.61-.88.88-1.34c9.52-15.89-.71-46.86,23.35-64.94,53.21-40,147-37.63,197.93,6.83,19.83,28.42,15.41,76.64,14.77,82.93l-.69,7.8a32.5,32.5,0,0,0,24.51,2.19,31.06,31.06,0,0,0,6.15,5.39c8.56,5.65,17.85,5.74,21.71,5.56C1109.16,794.16,1062.49,861.36,1051,958.67Z"/><path class="cls-10" d="M1062,1013l-206-7c1.07-13,3.55-30.37,4-43.87,3.13-99.52-12.79-189.47-36.22-266.82a74.21,74.21,0,0,0,21.82,4.37,73.41,73.41,0,0,0,10.48-.27c.45-.24,1.5-.8,2.74-1.56,26.76-16.65,12.16-57.13,27.55-74.32,38.49-43,148.37-41.18,196.11.91l.49.43c.85.76,1.66,1.52,2.46,2.3.24.22.47.45.7.68a71.43,71.43,0,0,1,8,9.42c19.84,28.44,15.41,76.66,14.78,83l-.06.59a51.1,51.1,0,0,0,10.16,3.32,53.55,53.55,0,0,0,23.53-.31C1109.16,794.16,1062.87,998.51,1062,1013Z"/><path class="cls-12" d="M1054.16,1017.88a38,38,0,0,1,6.07-16.38c7.12-10.82,18-16.29,23.17-18.49-3.49,1.89-12.72,7.45-17,17.83a28.65,28.65,0,0,0-1.5,16.79Z"/><path class="cls-12" d="M855,1006.8A65.7,65.7,0,0,0,862.79,993s2.26-5.53,6.14-24.84a161.51,161.51,0,0,1-3.13,38.41Z"/><path class="cls-12" d="M851.3,1006.67c-1-3.86-2-8-2.81-12.34-1.16-6.09-1.91-11.83-2.39-17.14a62.51,62.51,0,0,0,6.38,16.29,65.54,65.54,0,0,0,9.6,12.95Z"/><path class="cls-12" d="M853.57,1006.65a34.15,34.15,0,0,1,1.38-30.1,31.1,31.1,0,0,0-1.5,16.79,32.37,32.37,0,0,0,5.41,12.58Z"/><path class="cls-12" d="M844.6,998.64a41.67,41.67,0,0,1-1.94-7.43,40.8,40.8,0,0,1-.44-9.71,16.42,16.42,0,0,0,1.73,9.83,18.31,18.31,0,0,0,5.94,6.58Z"/><path class="cls-12" d="M1060.34,1017.34c.07-1.15,2.19-8.43,5-11.64a28.65,28.65,0,0,1,11.12-7.47s-9.42,5.76-9,12.5c.2,2.78,2.11,5,3.66,6.37Z"/><path class="cls-13" d="M879.8,714.14,865.27,692.9l-13.09-11.44a12.51,12.51,0,0,0,1.08-1.23c.22-.27.43-.54.63-.83l14,10.22Z"/><path class="cls-14" d="M879.8,714.14l-13.26-22.3-13.28-11.61c.22-.27.43-.54.63-.83s.61-.88.88-1.34l14.41,10.5Z"/><path class="cls-13" d="M1086.1,627.85l-5.1,14-44.1,7.79,40.82-10.43,5.22-14.3c.85.76,1.66,1.52,2.46,2.3C1085.64,627.39,1085.87,627.62,1086.1,627.85Z"/><path class="cls-14" d="M1085.4,627.17l-5.46,13.37-43,9.06,41-12.76,4.52-12.4.49.43C1083.79,625.63,1084.6,626.39,1085.4,627.17Z"/><path class="cls-11" d="M1696.88,1200.81,1363.63,1160l-16.07-11,5.87-47.94c9.5,1.77,19.21,1.75,28.73,3.52l3-24.85,20.2,2.47c1.33-54.12,3.06-111.47,4.69-168.16,0-.55,0-1.13.05-1.68,0-1,.06-2,.09-3,0-.54,0-1.1,0-1.65v-.06c1-35.24,2-70.15,2.84-103.81,4.34-17.37,18.75-64.69,64.72-100.21,0,0,36.16-27.19,82.25-36.79a110.52,110.52,0,0,1,25.54-2.28,111.85,111.85,0,0,1,21.06,2.57l.5.2a209,209,0,0,1,71.45,45.42l.06.06A243.89,243.89,0,0,1,1704,745.55q1,1.59,2,3.18c.38.62.77,1.24,1.15,1.88.66,1,1.29,2.1,1.92,3.17a222.41,222.41,0,0,1,16.3,33.31.68.68,0,0,1,.07.2,182.74,182.74,0,0,1,9,43.29q-40.44,136.5-80.9,273,7.11,9,14.22,18,4.86,7.82,9.74,15.62,7.11,5.36,14.24,10.75Q1694.28,1174.36,1696.88,1200.81Z"/><path class="cls-10" d="M1723.6,1157.23l-5.65,46.16-354.24-43.34,5.65-46.16,26.81,3.28,3.7-30.19,25.93,3.17,8.6-285.46c7.56-61.78,101.83-146.13,168.46-138,1.45.18,2.89.4,4.33.67,24.68,4.55,50,22.09,71.45,45.42l.06.06A243.89,243.89,0,0,1,1704,745.55q1,1.59,2,3.18c.38.62.77,1.24,1.15,1.88.66,1,1.29,2.1,1.92,3.17a222.41,222.41,0,0,1,16.3,33.31.68.68,0,0,1,.07.2c7.72,20,11.37,39.56,9.36,56l-62,277.13,27.67,3.39-3.7,30.19Z"/><path class="cls-15" d="M1707.15,750.61c.66,1,1.29,2.1,1.92,3.17l-32.14,32.9-14.48,18.62.45-1,0-.06,8.79-19.88L1706,748.73C1706.38,749.35,1706.77,750,1707.15,750.61Z"/><path class="cls-14" d="M1706,748.73c.38.62.77,1.24,1.15,1.88l-31,35.12-13.53,19.32.29-.73,0-.06,7.89-20.58L1704,745.55Q1705,747.14,1706,748.73Z"/><path class="cls-13" d="M1465.1,924.89l-26.4,8-8.09-2.39-20.52-16.35c0-.55,0-1.13.05-1.68,0-1,.06-2,.09-3l20,18.12,8.29,3.78.32.15.1,0Z"/><path class="cls-14" d="M1465.1,924.89l-25.93,6.61-.2-.07-.42-.12-7.46-2.2-20.95-16.69c0-1,.06-2,.09-3,0-.54,0-1.1,0-1.65v-.06l20.46,18.49,8.6,3.93Z"/><path class="cls-12" d="M1363.36,976.58c10.71,10,31.65,32.26,41.64,67.42a144.7,144.7,0,0,1,5,51l-36.7-.08A95.37,95.37,0,0,0,1388,1056C1393.75,1014.23,1368.63,982.88,1363.36,976.58Z"/><path class="cls-12" d="M1416,1024a126.2,126.2,0,0,1,10,48,123.32,123.32,0,0,1-2,23l-26.7-.08A71.34,71.34,0,0,0,1413,1072C1422.08,1050.68,1417.88,1031.07,1416,1024Z"/><path class="cls-17" d="M2007.64,420.76c-138.31-69.88-234.73-74.42-299.56-63.13-76,13.24-135.68,52.94-223.15,38.77-46.34-7.51-72.31-25.58-91.7-35.44-172-87.56-466,145.07-797.8,98.57C427,435.92,419.76,364.34,227.09,349.88,76.15,338.56-53.45,372.44-139.72,403q-7.64-59.81-15.28-119.61A719.43,719.43,0,0,0,39.1,312.22c161,1.49,219.8-53.44,330.13-35.44C480.72,295,463.23,358,580.14,396.4c185.77,61,440.35-29,527.29-59.81,117.23-41.47,179-83.89,290.39-77.53,76.85,4.39,126.78,29.11,160.48,42.09,100.46,38.69,276,57.51,603.7-42.09Z"/><path class="cls-12" d="M421.52,965c3.44,1.55,33.32,15.83,43.16,57,6.81,28.47-.05,52.81-2.33,60H419c2.29-1.46,24-15.89,28.19-47.72C450.73,1007.59,440.55,979.74,421.52,965Z"/><path class="cls-12" d="M420.36,991.17c2,.83,24.52,10.83,31.49,41.57a81.64,81.64,0,0,1-4.67,49.26H403.82c15.8-8.16,26.78-26.67,28.2-47.72A68.73,68.73,0,0,0,420.36,991.17Z"/><path class="cls-12" d="M509,1002c-13.59,2.66-24.9,15.21-29.16,32.33-4.12,16.59-1,35,8.17,47.72H444.65c1.26-8.7,5.56-32,21.2-52.34C482.85,1007.59,502.55,1003.07,509,1002Z"/><polygon class="cls-11" points="40.9 532.05 291.94 520.92 278.34 335.16 28.92 363.62 40.9 532.05"/><polygon class="cls-18" points="49.31 519.4 291.94 532.05 285.86 350.86 41.91 356.94 49.31 519.4"/><polygon class="cls-19" points="297 359.97 292.63 508.77 291.94 532.05 40.9 532.05 40.9 359.97 297 359.97"/><rect class="cls-18" x="52.2" y="404.51" width="86.04" height="97.18"/><polygon class="cls-18" points="292.63 508.77 291.94 532.05 40.9 532.05 40.9 508.77 292.63 508.77"/><rect class="cls-18" x="144.31" y="459.17" width="147.79" height="3.04"/><rect class="cls-18" x="144.31" y="465.24" width="147.79" height="3.04"/><rect class="cls-18" x="144.31" y="471.32" width="147.79" height="3.04"/><rect class="cls-18" x="144.31" y="477.39" width="147.79" height="3.04"/><rect class="cls-18" x="144.31" y="483.47" width="147.79" height="3.04"/><rect class="cls-18" x="144.31" y="489.54" width="147.79" height="3.04"/><rect class="cls-18" x="144.31" y="496.62" width="147.79" height="3.04"/><text class="cls-20" transform="translate(48.16 384.94)"><tspan class="cls-21">B</tspan><tspan class="cls-22" x="17.25" y="0">R</tspan><tspan x="34.78" y="0">E</tspan><tspan class="cls-23" x="47.98" y="0">A</tspan><tspan class="cls-24" x="62.98" y="0">K</tspan><tspan class="cls-25" x="80.21" y="0">I</tspan><tspan x="90.69" y="0">NG </tspan><tspan class="cls-26" x="127.82" y="0">N</tspan><tspan x="143.39" y="0">EWS</tspan></text><path class="cls-27" d="M179,429.76q-1.78,5.91-3.56,11.82a1.91,1.91,0,0,0,.82,2.2,6.38,6.38,0,0,0,1.11.55c.83.32,2.52.95,3.39.14s.74-2.24-.13-3.67c2.52,4.17,1.57,6.24,1.36,6.66-1.61,3.12-8.56,4-17.14.53q4.65-8.76,9.29-17.52Z"/><path class="cls-27" d="M151.85,429.76q1.78,5.91,3.56,11.82a1.91,1.91,0,0,1-.82,2.2,6.38,6.38,0,0,1-1.11.55c-.84.32-2.52.95-3.4.14s-.74-2.24.14-3.67c-2.52,4.17-1.57,6.24-1.36,6.66,1.6,3.12,8.55,4,17.14.53l-9.3-17.52Z"/><path class="cls-28" d="M161.22,439.81h8.08a0,0,0,0,1,0,0v9.3a4,4,0,0,1-4,4h-.1a4,4,0,0,1-4-4v-9.3A0,0,0,0,1,161.22,439.81Z"/><path class="cls-29" d="M163.58,447.06l-2.36-3.19v-4h8.08v4l-2.36,3.19A2.09,2.09,0,0,1,163.58,447.06Z"/><path class="cls-30" d="M180.46,417.55A6.91,6.91,0,0,1,186,420c3.67,4.62-.45,8-3,9.38a9.66,9.66,0,0,1-5.54,1.09Q179,424,180.46,417.55Z"/><path class="cls-29" d="M182.5,420.4a3,3,0,0,0-1.77,1.23,3,3,0,0,0,.14,3.26,2.18,2.18,0,0,1,.27,1.63,2.34,2.34,0,0,1-2.17,1.64,5.78,5.78,0,0,0,5-1.5,5,5,0,0,0,1.22-2.72,3.19,3.19,0,0,0-.68-2.45A3.14,3.14,0,0,0,182.5,420.4Z"/><path class="cls-30" d="M150.29,417.82a7,7,0,0,0-5.58,2.45c-3.67,4.62.45,8,3,9.38a9.78,9.78,0,0,0,5.54,1.1Q151.76,424.29,150.29,417.82Z"/><path class="cls-29" d="M148.25,420.67A3,3,0,0,1,150,421.9a3,3,0,0,1-.14,3.26,2.21,2.21,0,0,0-.27,1.64,2.34,2.34,0,0,0,2.17,1.63,5.74,5.74,0,0,1-5-1.5,5,5,0,0,1-1.22-2.72,3.1,3.1,0,0,1,2.72-3.54Z"/><path class="cls-28" d="M180.46,417.55c0,9.61-7.84,26.51-15.09,26.51S150,427,150,417.42a15.24,15.24,0,1,1,30.45.13Z"/><polygon class="cls-29" points="166.4 420.4 169.12 425.25 166.4 428.69 167.76 425.25 166.4 420.4"/><polygon class="cls-29" points="166.41 425.98 165.14 426.54 164.82 427.41 165.81 426.42 166.41 425.98"/><path class="cls-31" d="M176.37,429.78a15.51,15.51,0,0,1-2.31,5.28c-.38.64-.78,1.27-1.16,1.89-.28.44-.54.87-.8,1.29a20.1,20.1,0,0,0-1.53,2.85c-.13-.14-1.58-2.15-5.49-1.74-2.91.3-3.58,1.39-3.87,1.74l-2.1-4.26-3-6.07c-.92-1.42.22-2.71,1.89-3.06a4.57,4.57,0,0,1,1.77,0c2.41.45,3.59,2.7,6.77,2.32,1.67-.2,4.94-3.49,6.29-3.89a2.18,2.18,0,0,1,1.29,0C175.65,426.56,176.5,428.67,176.37,429.78Z"/><path class="cls-32" d="M174.06,435.06c-.38.64-.78,1.27-1.16,1.89-.28.44-.54.87-.8,1.29a9,9,0,0,1-3,.58c-3.29,0-5-1.35-5-3.13s.58-3.83,3.87-3.83C170.52,431.86,172.68,434,174.06,435.06Z"/><path class="cls-13" d="M172.9,437.12a31.42,31.42,0,0,0-2.33,4.14c-.13-.14-1.58-2.14-5.49-1.74-2.91.3-3.58,1.4-3.87,1.74l-2.1-4.25a23.37,23.37,0,0,1,7.42-1A24,24,0,0,1,172.9,437.12Z"/><path class="cls-13" d="M174.11,425.93v3.15a24,24,0,0,1-16.12,0v-1.55a4.57,4.57,0,0,1,1.77,0c2.41.46,3.59,2.7,6.77,2.33,1.67-.2,4.94-3.49,6.29-3.89A2.27,2.27,0,0,1,174.11,425.93Z"/><path class="cls-27" d="M180.47,417.55v.14h0l0,0c-1.08-.5-2.21-1.08-3.37-1.75L176,415.3l-.3-.19c-.73-.46-1.42-.93-2.09-1.4-.37-.26-.73-.53-1.08-.8l-.22-.17a44,44,0,0,1-6.61-6.32h0l-.38-.45-.32.38a44.12,44.12,0,0,1-6.56,6.4l-.15.12q-1.65,1.29-3.57,2.51l-.2.12a41.53,41.53,0,0,1-4.27,2.32l-.24.12-.05,0v-.14a14.19,14.19,0,0,1,.15-3,15.8,15.8,0,0,1,.72-2.62,18.39,18.39,0,0,1,1.74-3.62,13.78,13.78,0,0,1,4.2-4.36,15.33,15.33,0,0,1,7.68-2.81c3.24.09,5.67.26,9.22,2.54a14,14,0,0,1,4.37,4.65,19.19,19.19,0,0,1,1.72,3.77,16.43,16.43,0,0,1,.57,2.18A14.79,14.79,0,0,1,180.47,417.55Z"/><path class="cls-33" d="M179.76,412.38a4.11,4.11,0,0,1-2,.28c-1.51-.18-1.8-1.11-3.12-1a3.88,3.88,0,0,0-2.1,1.2l-.22-.17a44,44,0,0,1-6.61-6.32h0l-.06-.15c2.59,2.44,4.33,2.69,5.45,2.45,1.45-.32,1.88-1.27,3.37-1.36,1.29-.08,1.62.74,3.45,1.22l.12,0A19.19,19.19,0,0,1,179.76,412.38Z"/><path class="cls-33" d="M165,406.35a44.12,44.12,0,0,1-6.56,6.4l-.15.12-.18-.16a3.49,3.49,0,0,0-1.94-1.07c-1.32-.16-1.62.77-3.12.95a4.22,4.22,0,0,1-2.21-.36l0,0a18.39,18.39,0,0,1,1.74-3.62l.1,0,.22-.06c1.84-.48,2.16-1.3,3.46-1.22,1.49.09,1.92,1,3.37,1.36C160.81,408.89,162.5,408.65,165,406.35Z"/><path d="M178.15,423.42a.9.9,0,0,1-.47-.16,4.13,4.13,0,0,1-1.35-1.81l.25-.61a5.64,5.64,0,0,0,.92,1.08,2.33,2.33,0,0,0,.58.4Z"/><path d="M177,425.83a.57.57,0,0,1-.36-.17,6,6,0,0,1-1.29-2.28l.31-.5a8.84,8.84,0,0,0,.82,1.4,3.59,3.59,0,0,0,.43.49Z"/><path d="M174.83,426.87a2.19,2.19,0,0,1-.25-.45,11.54,11.54,0,0,1-.69-2.46l.21.11.1.28c.18.52.24.78.3.94s.17.38.35.39a6.41,6.41,0,0,0,0,.64A5.34,5.34,0,0,0,174.83,426.87Z"/><ellipse cx="173.44" cy="418.8" rx="4.07" ry="6.3"/><path class="cls-15" d="M169.51,418.52c0-2.93,1.75-4.82,3.92-4.82s3.93,3.05,3.93,6-1.76,4.63-3.93,4.63S169.51,421.44,169.51,418.52Z"/><ellipse cx="173.29" cy="418.5" rx="0.5" ry="1.4"/><path d="M153.21,423.62a.9.9,0,0,0,.47-.16,4.21,4.21,0,0,0,1.35-1.81l-.26-.61a5.21,5.21,0,0,1-.91,1.08,2.52,2.52,0,0,1-.58.4Z"/><path d="M154.4,426a.59.59,0,0,0,.36-.17,6,6,0,0,0,1.28-2.28l-.3-.5a9.68,9.68,0,0,1-.82,1.4,2.94,2.94,0,0,1-.44.49Z"/><path d="M156.53,427.07a2.79,2.79,0,0,0,.25-.45,12.15,12.15,0,0,0,.69-2.46l-.21.11a2.68,2.68,0,0,0-.1.28c-.18.52-.24.78-.3.94s-.18.38-.35.39c0,.13,0,.37,0,.64A3.81,3.81,0,0,1,156.53,427.07Z"/><ellipse cx="157.92" cy="419" rx="4.07" ry="6.3"/><path class="cls-15" d="M161.85,418.72c0-2.93-1.76-4.82-3.92-4.82s-3.93,3.05-3.93,6,1.76,4.63,3.93,4.63S161.85,421.64,161.85,418.72Z"/><ellipse cx="158.06" cy="418.7" rx="0.5" ry="1.4"/><path class="cls-27" d="M230,429.76q-1.78,5.91-3.56,11.82a1.94,1.94,0,0,0,.82,2.2,6.38,6.38,0,0,0,1.11.55c.84.32,2.52.95,3.4.14.73-.69.74-2.24-.14-3.67,2.52,4.17,1.58,6.24,1.36,6.66-1.6,3.12-8.55,4-17.13.53q4.63-8.76,9.29-17.52Z"/><path class="cls-27" d="M202.84,429.76q1.77,5.91,3.56,11.82a1.94,1.94,0,0,1-.82,2.2,6.38,6.38,0,0,1-1.11.55c-.84.32-2.52.95-3.4.14-.73-.69-.74-2.24.13-3.67-2.52,4.17-1.57,6.24-1.35,6.66,1.6,3.12,8.55,4,17.13.53q-4.64-8.76-9.29-17.52Z"/><path class="cls-28" d="M212.2,439.81h8.08a0,0,0,0,1,0,0v9.3a4,4,0,0,1-4,4h-.1a4,4,0,0,1-4-4v-9.3a0,0,0,0,1,0,0Z"/><path class="cls-29" d="M214.57,447.06l-2.37-3.19v-4h8.08v4l-2.36,3.19A2.08,2.08,0,0,1,214.57,447.06Z"/><path class="cls-30" d="M231.45,417.55A6.91,6.91,0,0,1,237,420c3.67,4.62-.45,8-3,9.38a9.63,9.63,0,0,1-5.53,1.09Q230,424,231.45,417.55Z"/><path class="cls-29" d="M233.49,420.4a2.91,2.91,0,0,0-1.77,1.23,3,3,0,0,0,.14,3.26,2.23,2.23,0,0,1,.27,1.63,2.35,2.35,0,0,1-2.18,1.64,5.78,5.78,0,0,0,5-1.5,5,5,0,0,0,1.23-2.72,3.28,3.28,0,0,0-.68-2.45A3.16,3.16,0,0,0,233.49,420.4Z"/><path class="cls-30" d="M201.27,417.82a6.94,6.94,0,0,0-5.57,2.45c-3.67,4.62.45,8,3,9.38a9.75,9.75,0,0,0,5.53,1.1Q202.75,424.29,201.27,417.82Z"/><path class="cls-29" d="M199.23,420.67A2.91,2.91,0,0,1,201,421.9a3,3,0,0,1-.14,3.26,2.26,2.26,0,0,0-.27,1.64,2.36,2.36,0,0,0,2.18,1.63,5.74,5.74,0,0,1-5-1.5,5,5,0,0,1-1.23-2.72,3.26,3.26,0,0,1,.68-2.44A3.2,3.2,0,0,1,199.23,420.67Z"/><path class="cls-28" d="M231.45,417.55c0,9.61-7.85,26.51-15.09,26.51S201,427,201,417.42a15.24,15.24,0,1,1,30.45.13Z"/><polygon class="cls-29" points="217.38 420.4 220.1 425.25 217.38 428.69 218.74 425.25 217.38 420.4"/><polygon class="cls-29" points="217.4 425.98 216.12 426.54 215.81 427.41 216.79 426.42 217.4 425.98"/><path class="cls-31" d="M227.36,429.78a15.37,15.37,0,0,1-2.32,5.28c-.38.64-.77,1.27-1.16,1.89-.27.44-.54.87-.79,1.29a21.37,21.37,0,0,0-1.54,2.85c-.12-.14-1.58-2.15-5.48-1.74-2.91.3-3.58,1.39-3.87,1.74l-2.11-4.26-3-6.07c-.92-1.42.21-2.71,1.88-3.06a4.57,4.57,0,0,1,1.77,0c2.42.45,3.6,2.7,6.77,2.32,1.67-.2,5-3.49,6.3-3.89a2.18,2.18,0,0,1,1.29,0C226.63,426.56,227.49,428.67,227.36,429.78Z"/><path class="cls-32" d="M225,435.06c-.38.64-.77,1.27-1.16,1.89-.27.44-.54.87-.79,1.29a9.06,9.06,0,0,1-3,.58c-3.3,0-5-1.35-5-3.13s.57-3.83,3.87-3.83C221.5,431.86,223.67,434,225,435.06Z"/><path class="cls-13" d="M223.88,437.12a33.91,33.91,0,0,0-2.33,4.14c-.12-.14-1.58-2.14-5.48-1.74-2.91.3-3.58,1.4-3.87,1.74L210.09,437a23.43,23.43,0,0,1,7.43-1A23.89,23.89,0,0,1,223.88,437.12Z"/><path class="cls-13" d="M225.1,425.93v3.15a24.06,24.06,0,0,1-16.13,0v-1.55a4.57,4.57,0,0,1,1.77,0c2.42.46,3.6,2.7,6.77,2.33,1.67-.2,5-3.49,6.3-3.89A2.27,2.27,0,0,1,225.1,425.93Z"/><path class="cls-27" d="M231.46,417.55v.14h0l0,0c-1.09-.5-2.22-1.08-3.37-1.75L227,415.3l-.3-.19c-.72-.46-1.42-.93-2.08-1.4-.37-.26-.73-.53-1.09-.8l-.21-.17a43.49,43.49,0,0,1-6.61-6.32h0l-.39-.45c-.1.13-.21.25-.32.38a43.17,43.17,0,0,1-6.56,6.4l-.14.12a42.49,42.49,0,0,1-3.58,2.51l-.19.12a41.53,41.53,0,0,1-4.27,2.32l-.24.12,0,0v-.14a14.79,14.79,0,0,1,.14-3,15.8,15.8,0,0,1,.72-2.62,19.07,19.07,0,0,1,1.75-3.62,13.74,13.74,0,0,1,4.19-4.36,15.36,15.36,0,0,1,7.68-2.81c3.24.09,5.67.26,9.22,2.54a14,14,0,0,1,4.38,4.65,18.53,18.53,0,0,1,1.71,3.77,13.65,13.65,0,0,1,.57,2.18A14.9,14.9,0,0,1,231.46,417.55Z"/><path class="cls-33" d="M230.74,412.38a4.1,4.1,0,0,1-2,.28c-1.5-.18-1.79-1.11-3.12-1a3.91,3.91,0,0,0-2.1,1.2l-.21-.17a43.49,43.49,0,0,1-6.61-6.32h0a1,1,0,0,1-.07-.15c2.6,2.44,4.33,2.69,5.45,2.45,1.45-.32,1.88-1.27,3.37-1.36,1.3-.08,1.62.74,3.46,1.22l.12,0A18.53,18.53,0,0,1,230.74,412.38Z"/><path class="cls-33" d="M216,406.35a43.17,43.17,0,0,1-6.56,6.4l-.14.12-.18-.16a3.49,3.49,0,0,0-1.94-1.07c-1.33-.16-1.62.77-3.12.95a4.22,4.22,0,0,1-2.21-.36l0,0a19.07,19.07,0,0,1,1.75-3.62l.09,0,.23-.06c1.83-.48,2.16-1.3,3.45-1.22,1.49.09,1.92,1,3.38,1.36C211.8,408.89,213.48,408.65,216,406.35Z"/><path d="M229.14,423.42a.9.9,0,0,1-.48-.16,4.1,4.1,0,0,1-1.34-1.81l.25-.61a5.55,5.55,0,0,0,.91,1.08,2.52,2.52,0,0,0,.58.4Z"/><path d="M227.94,425.83a.57.57,0,0,1-.35-.17,5.85,5.85,0,0,1-1.29-2.28l.3-.5a10.7,10.7,0,0,0,.82,1.4,3.48,3.48,0,0,0,.44.49Z"/><path d="M225.81,426.87a2.79,2.79,0,0,1-.25-.45,11.55,11.55,0,0,1-.68-2.46l.2.11a2.68,2.68,0,0,1,.1.28c.18.52.25.78.3.94s.18.38.36.39a4.34,4.34,0,0,0-.05.64A3.81,3.81,0,0,0,225.81,426.87Z"/><ellipse cx="224.42" cy="418.8" rx="4.07" ry="6.3"/><path class="cls-15" d="M220.49,418.52c0-2.93,1.76-4.82,3.93-4.82s3.92,3.05,3.92,6-1.75,4.63-3.92,4.63S220.49,421.44,220.49,418.52Z"/><ellipse cx="224.28" cy="418.5" rx="0.5" ry="1.4"/><path d="M204.19,423.62a1,1,0,0,0,.48-.16,4.18,4.18,0,0,0,1.34-1.81l-.25-.61a5.55,5.55,0,0,1-.91,1.08,2.76,2.76,0,0,1-.58.4Z"/><path d="M205.38,426a.57.57,0,0,0,.36-.17,5.85,5.85,0,0,0,1.29-2.28l-.31-.5a8.84,8.84,0,0,1-.82,1.4,3,3,0,0,1-.43.49Z"/><path d="M207.51,427.07a2.71,2.71,0,0,0,.26-.45,12.17,12.17,0,0,0,.68-2.46l-.21.11-.1.28c-.18.52-.24.78-.29.94s-.18.38-.36.39a6.41,6.41,0,0,1,0,.64A3.45,3.45,0,0,1,207.51,427.07Z"/><ellipse cx="208.91" cy="419" rx="4.07" ry="6.3"/><path class="cls-15" d="M212.84,418.72c0-2.93-1.76-4.82-3.93-4.82s-3.93,3.05-3.93,6,1.76,4.63,3.93,4.63S212.84,421.64,212.84,418.72Z"/><ellipse cx="209.05" cy="418.7" rx="0.5" ry="1.4"/><path class="cls-27" d="M280.56,429.76q-1.77,5.91-3.56,11.82a1.94,1.94,0,0,0,.82,2.2,6.38,6.38,0,0,0,1.11.55c.84.32,2.53.95,3.4.14s.74-2.24-.13-3.67c2.52,4.17,1.57,6.24,1.35,6.66-1.6,3.12-8.55,4-17.13.53l9.29-17.52Z"/><path class="cls-27" d="M253.45,429.76q1.78,5.91,3.56,11.82a1.94,1.94,0,0,1-.82,2.2,6.38,6.38,0,0,1-1.11.55c-.84.32-2.52.95-3.4.14s-.74-2.24.14-3.67c-2.52,4.17-1.57,6.24-1.36,6.66,1.6,3.12,8.55,4,17.13.53q-4.63-8.76-9.29-17.52Z"/><path class="cls-28" d="M262.82,439.81h8.08a0,0,0,0,1,0,0v9.3a4,4,0,0,1-4,4h-.1a4,4,0,0,1-4-4v-9.3A0,0,0,0,1,262.82,439.81Z"/><path class="cls-29" d="M265.18,447.06l-2.36-3.19v-4h8.08v4l-2.37,3.19A2.08,2.08,0,0,1,265.18,447.06Z"/><path class="cls-30" d="M282.06,417.55a6.9,6.9,0,0,1,5.57,2.45c3.67,4.62-.45,8-3,9.38a9.62,9.62,0,0,1-5.53,1.09Q280.58,424,282.06,417.55Z"/><path class="cls-29" d="M284.1,420.4a2.94,2.94,0,0,0-1.77,1.23,3,3,0,0,0,.14,3.26,2.23,2.23,0,0,1,.27,1.63,2.35,2.35,0,0,1-2.18,1.64c.21,0,3.16.56,5-1.5a4.93,4.93,0,0,0,1.23-2.72,3.24,3.24,0,0,0-.68-2.45A3.16,3.16,0,0,0,284.1,420.4Z"/><path class="cls-30" d="M251.88,417.82a6.94,6.94,0,0,0-5.57,2.45c-3.67,4.62.45,8,3,9.38a9.75,9.75,0,0,0,5.53,1.1Q253.36,424.29,251.88,417.82Z"/><path class="cls-29" d="M249.84,420.67a2.91,2.91,0,0,1,1.77,1.23,3,3,0,0,1-.13,3.26,2.24,2.24,0,0,0-.28,1.64,2.37,2.37,0,0,0,2.18,1.63,5.74,5.74,0,0,1-5-1.5,5,5,0,0,1-1.22-2.72,3.1,3.1,0,0,1,2.71-3.54Z"/><path class="cls-28" d="M282.06,417.55c0,9.61-7.84,26.51-15.09,26.51s-15.36-17-15.36-26.64a15.24,15.24,0,1,1,30.45.13Z"/><polygon class="cls-29" points="267.99 420.4 270.72 425.25 267.99 428.69 269.35 425.25 267.99 420.4"/><polygon class="cls-29" points="268.01 425.98 266.73 426.54 266.42 427.41 267.4 426.42 268.01 425.98"/><path class="cls-31" d="M278,429.78a15.51,15.51,0,0,1-2.31,5.28c-.38.64-.78,1.27-1.17,1.89-.27.44-.54.87-.79,1.29a21.37,21.37,0,0,0-1.54,2.85c-.12-.14-1.57-2.15-5.48-1.74-2.91.3-3.58,1.39-3.87,1.74l-2.11-4.26-3-6.07c-.92-1.42.21-2.71,1.88-3.06a4.62,4.62,0,0,1,1.78,0c2.41.45,3.59,2.7,6.76,2.32,1.67-.2,4.95-3.49,6.3-3.89a2.18,2.18,0,0,1,1.29,0C277.24,426.56,278.1,428.67,278,429.78Z"/><path class="cls-32" d="M275.66,435.06c-.38.64-.78,1.27-1.17,1.89-.27.44-.54.87-.79,1.29a9.06,9.06,0,0,1-3,.58c-3.29,0-5-1.35-5-3.13s.58-3.83,3.87-3.83C272.11,431.86,274.28,434,275.66,435.06Z"/><path class="cls-13" d="M274.49,437.12a33.91,33.91,0,0,0-2.33,4.14c-.12-.14-1.57-2.14-5.48-1.74-2.91.3-3.58,1.4-3.87,1.74L260.7,437a23.48,23.48,0,0,1,7.43-1A23.89,23.89,0,0,1,274.49,437.12Z"/><path class="cls-13" d="M275.71,425.93v3.15a24.06,24.06,0,0,1-16.13,0v-1.55a4.62,4.62,0,0,1,1.78,0c2.41.46,3.59,2.7,6.76,2.33,1.67-.2,4.95-3.49,6.3-3.89A2.27,2.27,0,0,1,275.71,425.93Z"/><path class="cls-27" d="M282.07,417.55v.14h0l0,0c-1.08-.5-2.21-1.08-3.37-1.75l-1.05-.62-.31-.19c-.72-.46-1.42-.93-2.08-1.4-.37-.26-.73-.53-1.08-.8a1.84,1.84,0,0,1-.22-.17,43.49,43.49,0,0,1-6.61-6.32h0l-.38-.45-.33.38a43.17,43.17,0,0,1-6.56,6.4l-.14.12q-1.65,1.29-3.57,2.51l-.2.12a41.53,41.53,0,0,1-4.27,2.32l-.24.12-.05,0v-.14a14.79,14.79,0,0,1,.14-3,16.94,16.94,0,0,1,.72-2.62,19.07,19.07,0,0,1,1.75-3.62,13.74,13.74,0,0,1,4.19-4.36,15.39,15.39,0,0,1,7.68-2.81c3.24.09,5.68.26,9.22,2.54a14,14,0,0,1,4.38,4.65,18.53,18.53,0,0,1,1.71,3.77,13.65,13.65,0,0,1,.57,2.18A14.19,14.19,0,0,1,282.07,417.55Z"/><path class="cls-33" d="M281.35,412.38a4.08,4.08,0,0,1-2,.28c-1.5-.18-1.79-1.11-3.12-1a3.88,3.88,0,0,0-2.09,1.2,1.84,1.84,0,0,1-.22-.17,43.49,43.49,0,0,1-6.61-6.32h0a1,1,0,0,0-.07-.15c2.6,2.44,4.34,2.69,5.45,2.45,1.46-.32,1.88-1.27,3.38-1.36,1.29-.08,1.61.74,3.45,1.22l.12,0A18.53,18.53,0,0,1,281.35,412.38Z"/><path class="cls-33" d="M266.6,406.35a43.17,43.17,0,0,1-6.56,6.4l-.14.12-.18-.16a3.49,3.49,0,0,0-1.94-1.07c-1.33-.16-1.62.77-3.12.95a4.22,4.22,0,0,1-2.21-.36l0,0a19.07,19.07,0,0,1,1.75-3.62l.1,0,.22-.06c1.84-.48,2.16-1.3,3.46-1.22,1.49.09,1.92,1,3.37,1.36C262.41,408.89,264.1,408.65,266.6,406.35Z"/><path d="M279.75,423.42a1,1,0,0,1-.48-.16,4.1,4.1,0,0,1-1.34-1.81l.25-.61a5.55,5.55,0,0,0,.91,1.08,2.76,2.76,0,0,0,.58.4Z"/><path d="M278.56,425.83a.57.57,0,0,1-.36-.17,5.85,5.85,0,0,1-1.29-2.28l.31-.5a8.84,8.84,0,0,0,.82,1.4,3,3,0,0,0,.43.49Z"/><path d="M276.43,426.87a2.71,2.71,0,0,1-.26-.45,12.17,12.17,0,0,1-.68-2.46l.21.11.1.28c.18.52.24.78.29.94s.18.38.36.39a4.34,4.34,0,0,0-.05.64A3.45,3.45,0,0,0,276.43,426.87Z"/><ellipse cx="275.03" cy="418.8" rx="4.07" ry="6.3"/><path class="cls-15" d="M271.1,418.52c0-2.93,1.76-4.82,3.93-4.82s3.93,3.05,3.93,6-1.76,4.63-3.93,4.63S271.1,421.44,271.1,418.52Z"/><ellipse cx="274.89" cy="418.5" rx="0.5" ry="1.4"/><path d="M254.8,423.62a.93.93,0,0,0,.48-.16,4.1,4.1,0,0,0,1.34-1.81l-.25-.61a5.55,5.55,0,0,1-.91,1.08,2.52,2.52,0,0,1-.58.4Z"/><path d="M256,426a.57.57,0,0,0,.36-.17,5.85,5.85,0,0,0,1.29-2.28l-.31-.5a9.56,9.56,0,0,1-.81,1.4,3.48,3.48,0,0,1-.44.49Z"/><path d="M258.12,427.07a2.15,2.15,0,0,0,.26-.45,12.17,12.17,0,0,0,.68-2.46l-.21.11-.09.28c-.19.52-.25.78-.3.94s-.18.38-.36.39a4.34,4.34,0,0,1,0,.64A3.45,3.45,0,0,1,258.12,427.07Z"/><ellipse cx="259.52" cy="419" rx="4.07" ry="6.3"/><path class="cls-15" d="M263.45,418.72c0-2.93-1.76-4.82-3.93-4.82s-3.92,3.05-3.92,6,1.75,4.63,3.92,4.63S263.45,421.64,263.45,418.72Z"/><ellipse cx="259.66" cy="418.7" rx="0.5" ry="1.4"/><rect class="cls-34" x="170" y="361" width="18" height="5" transform="translate(-67.84 42.18) rotate(-11.31)"/><path class="cls-35" d="M194.08,360.48c.42,2.68-.37,5.38-1.9,6.64-1.83,1.5-4.67.87-6.34-2.39-2.27-4.41-.88-9.8,2.73-10.23C191.3,354.18,193.57,357.21,194.08,360.48Z"/><path class="cls-36" d="M440.92,859.21l-81,.1a213.77,213.77,0,0,0,2-23.1c1.7-53.67-17.48-97.7-34.25-126.31H472.82c-16.37,30.92-32.77,74.23-32.9,126.31C439.9,844.17,440.26,851.84,440.92,859.21Z"/><polygon class="cls-36" points="544.11 581.8 544.11 581.8 544.11 581.79 398.68 536.06 256.09 581.79 256.09 581.79 400.1 859.32 544.11 581.8"/><polygon class="cls-37" points="450.95 567.31 402.09 665.66 349.83 569.3 399.25 540.04 450.95 567.31"/><path class="cls-38" d="M453.79,599.12a98.32,98.32,0,0,1-9.66-12.62l34.37-9a68,68,0,0,0-66.75-44.87l26.48,53c-6.84,26.68-28.9,53.36-36.14,80-7.39-26.68-35-53.36-41.82-80q13.25-26.48,26.48-53A68,68,0,0,0,320,577.53l34.37,9a98.39,98.39,0,0,1-22.15,24.27,178.09,178.09,0,0,1,18.18,15.62c14,13.79,44.2,27.92,51.58,39.68h.22c7.19-11.76,31.91-25.88,45.91-39.67a176,176,0,0,1,18.18-15.62A97.63,97.63,0,0,1,453.79,599.12Z"/><path class="cls-39" d="M376.81,499.71H420a0,0,0,0,1,0,0v49.42a21.59,21.59,0,0,1-21.59,21.59h0a21.59,21.59,0,0,1-21.59-21.59V499.71a0,0,0,0,1,0,0Z"/><path class="cls-40" d="M389.43,538.45l-12.62-17V500H420v21.43l-12.62,17A11.17,11.17,0,0,1,389.43,538.45Z"/><path class="cls-36" d="M615.92,742.21c-7.37,3.56-16.29,15.08-23.65,18.64a415.36,415.36,0,0,0-36.48-89.38,430.63,430.63,0,0,0-60.43-83.74l52.2-7.9C569.83,636.61,593.65,685.43,615.92,742.21Z"/><path class="cls-36" d="M196.26,747.15l22.43,9.94a395,395,0,0,1,32.95-88.17,411.84,411.84,0,0,1,57.05-83.21l-52.34-6.54Z"/><path class="cls-38" d="M520.25,627.81a37.61,37.61,0,0,1,3.41-23.57c9.38-18,22.69-23.91,24.26-24-3.79,1-12.75,9.93-22,26.58A46.35,46.35,0,0,0,520.25,627.81Z"/><path class="cls-38" d="M400.1,859.31c2.3-39.38,3.55-80.71,3.41-123.85q-.11-35.52-1.42-69.3c2.13,22.59,3.57,46.68,4,72.14A927.72,927.72,0,0,1,400.1,859.31Z"/><path class="cls-38" d="M280.5,627.81a37.47,37.47,0,0,0-3.41-23.57c-9.37-18-19.61-24.91-21.17-25,3.78,1,9.66,10.93,18.9,27.58A46.18,46.18,0,0,1,280.5,627.81Z"/><path class="cls-37" d="M489.85,338.67a102.78,102.78,0,0,0-20-22.43,86.33,86.33,0,0,1,9.46-.59,88.63,88.63,0,0,1,27.84,4.26,77.67,77.67,0,0,0-39.49-19.32l22.45-29.82A116.46,116.46,0,0,1,438.05,298c-5.76-24,23.27-35.37,30.51-33.15-3.41-3.41-32-4.17-46.58-1.13-20.46,4.26-36.65,11.64-47.44,26.7-5.31,7.4-7.35,13.54-7.48,18.74l-.17-.06c-23.14-25.92-13.92-28.6-13.65-35.16-7.67,10.51-7.67,19.88-4.43,28.82.31.86.64,1.7,1,2.52-13.87-2.61-19.42-17.37-14.26-25.66-13,10.51-13.69,17.32-11.55,27a24.64,24.64,0,0,0,8.81,13.63c-8.55.1-20.48-.72-32.39,4.83-20.73,9.66-33.23,22.72-41.06,21.3,13.8,4.26,24-12.12,45-6.53a54.84,54.84,0,0,1,15,6.53,77.37,77.37,0,0,0-39.11,25.85A39.75,39.75,0,0,1,302.39,362a37.53,37.53,0,0,1,11.65.56c-.35,1.52-.76,3.07-1.18,4.65a77.76,77.76,0,0,0-5.92,11,80,80,0,0,0-6.76,30.12A28.33,28.33,0,0,1,308.82,391c.46,5.24,5.51,17.7,10.05,22.34l90.61,18.46,66.18-11.65s9.94-16.19,13.63-26.41c1-2.79,1.4-7.52,1.29-13l.13.24a75.32,75.32,0,0,1,8,21.3A52.17,52.17,0,0,0,493,358.83a58.08,58.08,0,0,1,11.94,17.32A103,103,0,0,0,489.85,338.67Z"/><path class="cls-37" d="M423.4,507.09a12.53,12.53,0,0,1-4-10.1q-1.86,4.72-3.73,9.43a14.43,14.43,0,0,0,4.6,3.23,15.81,15.81,0,0,0,11.36.28A12,12,0,0,1,423.4,507.09Z"/><path class="cls-37" d="M378.19,493.59a16.8,16.8,0,0,1-10.75,14.92,21.39,21.39,0,0,0,6.2-.82,16.29,16.29,0,0,1-6.2,3.95,19.79,19.79,0,0,0,9.88-2,18.84,18.84,0,0,0,4.6-3.23l-1-2.53c.37-.3.7-.59,1-.87Q380.06,498.3,378.19,493.59Z"/><polygon class="cls-41" points="460.04 408.27 480.2 408.27 504.06 442.96 463.45 475.28 443.85 473.62 455.03 426.99 460.04 408.27"/><polygon class="cls-42" points="494.12 441.77 477.93 419.2 466.85 447.71 471.4 455.08 457.44 467.23 461.15 467.23 494.12 441.77"/><polygon class="cls-41" points="337.07 408.24 316.91 408.24 293.05 442.94 333.67 475.25 353.26 473.59 342.08 426.96 337.07 408.24"/><polygon class="cls-42" points="302.99 441.75 319.18 419.18 330.26 447.69 325.71 455.06 339.67 467.2 335.96 467.2 302.99 441.75"/><path class="cls-39" d="M465.44,423.76l-.65,1.85q-2.69,7.61-5.45,15.09c-9.16,24.66-19.22,47.54-31.85,62.7-7.23,8.69-27.67,21.3-27.67,21.3s-17.61-9.65-31.2-21.3c-16.55-19.4-31-51.08-38.08-77.72-.24-.92-.48-1.83-.71-2.74a111.4,111.4,0,0,1-3-34.86c2.44-32.13,20.07-64.51,68-67.38,49.25-2.94,71.19,31.38,73.69,67.09C469.42,400.05,469.32,412.72,465.44,423.76Z"/><polygon class="cls-40" points="399.95 458.04 393.14 461 391.45 465.65 396.72 460.39 399.95 458.04"/><polygon class="cls-40" points="379.65 494.31 387.46 488.35 392.66 481.19 398.95 486.93 405.61 481.19 410.22 488.91 416.29 493.17 401.33 488.91 395.7 488.94 379.65 494.31"/><polygon class="cls-42" points="389.19 499.71 395.05 497.72 403.2 497.72 407.14 499.71 389.19 499.71"/><path class="cls-37" d="M427,478.49c-7.35-3.59-15.69-13.51-25.2-7.7a6.49,6.49,0,0,0-1.81,1.58,6.49,6.49,0,0,0-1.81-1.58c-9.51-5.81-17.85,4.11-25.2,7.7-7.7,3.76-16.31,3.31-21.71,3.59a89.43,89.43,0,0,0,20,4.36,94.53,94.53,0,0,0,16.1.26c1-.14,8.48-1.3,11.9-6.42A12.34,12.34,0,0,0,400,479a12.34,12.34,0,0,0,.76,1.28c3.42,5.12,10.94,6.28,11.9,6.42a94.53,94.53,0,0,0,16.1-.26,89.43,89.43,0,0,0,20-4.36C443.28,481.8,434.67,482.25,427,478.49Z"/><path class="cls-37" d="M450,422.28c-3.59,15-19.3,15.54-27.14,11S410.25,421,410.51,414.07s4.55-9.57,12.89-9.76S453.55,407.27,450,422.28Z"/><path class="cls-37" d="M347.84,422.28c3.58,15,19.29,15.54,27.14,11s12.58-12.27,12.31-19.17-4.55-9.57-12.89-9.76S344.25,407.27,347.84,422.28Z"/><path class="cls-37" d="M454.64,320.47l-45.47-27.26-52.81,23.86-37.49,57.09,7.66,18.42c-.61,10.76-.53,21.48,2.88,31.18.21.62,2.34,6.59,2.56,7.21l3.88-9.61a11.1,11.1,0,0,0,.26-7.6l-.23-.71,2.87,2.58-3.55-6.11h0l3,2.71-4.43-13.7c-.71-21.49,5.78-39.31,29.43-42,3.93-.44,8.15-.69,11.61,1.23l14.68,8.14-3.23-4.2a129,129,0,0,1,15.85,10.45c7.3-5.83,13.82-9.78,19.64-12.19l-2.6,3.39,8.23-4.57a14.35,14.35,0,0,1,5.7-1.75c20.77-1.69,29.1,20.61,29.3,40.08l-4.88,15.09,2.51-2.29h0l-3.65,6.26,2.26-2-.06.2a9.33,9.33,0,0,0,.22,6.4l4.12,10.2,2.56-7.21a88,88,0,0,0,4.79-25.69l17.64-30.44Z"/><path class="cls-42" d="M408.63,403.13c3-2.08,14.61-2.36,16.19-2.84L415,399.15c-4.23,0-7.62,2.78-9.56,6.53a27.53,27.53,0,0,0-1.4,3.45,9.37,9.37,0,0,0-.38,4.43L410.05,454l-8.24,15.14,17.61-8.9-14.67-45.88a7.49,7.49,0,0,1-.15-4.09C405.15,408,406.31,404.73,408.63,403.13Z"/><path class="cls-43" d="M382.78,355.7c-11.64-7.11-14.93-15.65-15.91-18.75-5.47-17.42,6.41-40.68,31.25-53.69-20.82,12.53-31.8,33.45-27.84,51.7C372.4,344.76,378.37,351.67,382.78,355.7Z"/><path class="cls-42" d="M356.44,437.56c-.8.05-6.92.29-10.19-4.06-3-4-1.86-9.57-1.37-9.63s.24,4.75,3.5,8.77A15.33,15.33,0,0,0,356.44,437.56Z"/><path class="cls-42" d="M443.57,435.54c.8,0,6.9-.49,9.67-5.17,2.54-4.32.78-9.72.28-9.72s.3,4.74-2.49,9.1A15.32,15.32,0,0,1,443.57,435.54Z"/><path class="cls-43" d="M401.24,327c2.85-6.54,8-15.72,17.61-22.44,9.87-6.93,18-6.72,32.38-11.65a131.3,131.3,0,0,0,33-17,92.41,92.41,0,0,1-29.35,19c-14.13,5.59-22.32,4.44-33.8,11.36A58.06,58.06,0,0,0,401.24,327Z"/><path class="cls-36" d="M205.92,721.21c17,9,18,17,35,26,3.46,13.69,20,51,28,73l-16,4c-23.83-24.32-42.93-53.33-58-74Z"/><path class="cls-36" d="M602.92,714.21c-17,9-16,16-33,25-3.46,13.69-20,51-28,73l16,4c23.82-24.32,42.92-53.33,58-74Z"/><path class="cls-36" d="M389,1240.21h0l-12-12.29c.28-60.68-.94-124.09-4.07-190-3-62.49-7.42-122.56-13-180l41-9.68V1228Z"/><path class="cls-36" d="M411.88,1240.21h0l12-12.29c-.27-60.68,1-124.09,4.08-190,3-62.49,7.42-122.56,13-180l-41-9.68V1228Z"/><rect class="cls-38" x="400.01" y="849.21" width="1.82" height="378"/><path class="cls-44" d="M530.19,831.39c-22.61,39.45-113.9,32.87-114.24,32.8C350.22,850.5,360.85,890,293.79,849c-56.1-55.72,32.69-144.46,102.5-133.82,1.19.19,2.37.35,3.53.5,4.24.55,8.29.9,12.15,1.1l2.13.1c5,.2,9.76.15,14.26,0,39.72-1.53,61.56-12.92,102.4,45.76C546.79,785.64,543.08,808.9,530.19,831.39Z"/><path class="cls-45" d="M456.37,769.42c1.27,19-3.75,41-14.57,65.76-3.1,7.08-5.17,21.75-8.13,29.39-5.31,1.35-18.27-.61-18.6-.5.1-.33,3.16-4.26,3.95-6.92,1.72-5.77,3.06-13.39,4.56-19.65h0c3.62-15.19,6.1-31.5,5-47.39-1.51-22.06-9.33-44.9-22.19-64.88q-1.31-2-2.68-4a40.86,40.86,0,0,1,11.7,5.09c1-.45,3.14-2.43,4.06-1.55s1.69,1.58,2.59,2.37C433.55,737.16,455.5,756.33,456.37,769.42Z"/><path class="cls-46" d="M358.58,829.05c-9.76-17.13-11.29-32.61-.92-56.87,7.23-16.9,34.88-45.16,34.3-44.52C350.1,773.64,349.63,806,358.58,829.05Z"/><path class="cls-46" d="M288,842.55c-13.32-14.07-20.39-35.62-8.88-59.63,16.74-34.93,41.26-45.52,41.26-45.52C282.48,765.13,275.79,811,288,842.55Z"/><path class="cls-47" d="M505.32,747c2.51,3.35,14.87,42.52-2.76,65-6.66,8.49-16.79,13.58-18.71,11.48-2.19-2.4,7.62-12.76,14.73-32.14C507.68,766.54,503.45,747,505.32,747Z"/><path class="cls-46" d="M505.05,746.56c10.64,16.41,13,31.81,4.41,57-5.89,17.21-30.28,47.3-29.78,46.63C516.65,801.21,515.24,769.06,505.05,746.56Z"/><path class="cls-48" d="M420.61,724.85l-7.17,2.35-.34-43.76,14.47.88c-1.9,5-6,19.61-7.06,28C419.57,719.71,420.21,719.73,420.61,724.85Z"/><path class="cls-49" d="M413.44,727.2l-3.81-3.77c1.28-5,1-3,.3-10.07-.93-9.27-4.41-26.31-6.39-32.21l9.56,2.29Z"/><polygon class="cls-50" points="427.67 684.43 413.01 683.54 403.54 681.15 418.24 682.05 427.67 684.43"/><path class="cls-46" d="M438.81,723.31c-1,.08-2,.18-3.14.33a57.57,57.57,0,0,0-13.59,3.48c-.62.24-1.24.5-1.88.77l-1.52.69a45.92,45.92,0,0,1,3.9,3.37,48.06,48.06,0,0,1,9.21,12.46l.65,1.25a68.34,68.34,0,0,0-5.52-6.44,62.69,62.69,0,0,0-11.19-9.16l-.08,0c-1.18-.75-2.34-1.43-3.5-2.06a59.2,59.2,0,0,0-5.74-2.73A56.34,56.34,0,0,0,383.19,721l7-.79a37,37,0,0,1,13.51,1,40.86,40.86,0,0,1,11.7,5.09c1-.45,2.08-.87,3.14-1.24l.92-.31a40.62,40.62,0,0,1,15.38-1.87c.84,0,1.67.14,2.51.25Z"/><path class="cls-47" d="M349.41,722c-2-2.5-37.06,15.33-39.21,46.2-.81,11.62,3.15,23.91,5.92,24.15,3.15.27,2.94-15.29,10.63-34.63C336.6,732.9,350.75,723.6,349.41,722Z"/><path class="cls-29" d="M306.85,856.5c9.28,4.94,16.78,8,23.17,9.74l-1.18,1.28-21.91,5.09-4.06-1.93-3.34-1.57L298,868.4,297.5,866l-1.75-2.61,4.53-3,.7-.47,1.45-1,.53-.3,3.37-1.88Z"/><path class="cls-29" d="M330.35,850.18l-2.07,3.56-2.48,1.65a5,5,0,0,1-.56-.07,12.24,12.24,0,0,1-4-1.4c-2-1-3.5-1.91-4.86-2.74l5.26-3c.68-1,1.61-2.46,2.75-4.15.51.34,1,.69,1.51,1a14.49,14.49,0,0,1,3.72,3.81A13.68,13.68,0,0,1,330.35,850.18Z"/><path class="cls-29" d="M329.48,855.17c.41-.34.86-.69,1.33-1l0,.06a1.84,1.84,0,0,1-.54.57A3.07,3.07,0,0,1,329.48,855.17Z"/><path class="cls-30" d="M313.66,846.75a9.29,9.29,0,0,0-7.73,16.33l-26.26-12.43,7.73-16.33Z"/><path class="cls-30" d="M315.51,850.1c-5.56-2.47-10-.2-10,4.2,0,3.61,4.74,5.53,6.43,10.23-8.75-4.14-21-8.08-29.79-12.22L289.91,836Z"/><path class="cls-28" d="M352.92,874.16l-34.73,3.5-1-.21-10.29-4.84-4.06-1.93-3.34-1.57L298,868.4l-9.4-4.43a2.09,2.09,0,0,1-.47-.3s-24.73-21.52-25-23.07C263,839.71,253,824.55,253,824.55s6.95-17.28,14.07-6.63l7.66,8.44a5.19,5.19,0,0,0,2.91.73,12.15,12.15,0,0,0,1.7-.12,33.44,33.44,0,0,0,4.14-.88l.13,0c5.4-1.08,13.24,1.09,13.37,1.17,4.17,2.68,20.29,12,24.93,15.06l1.1.73,1.39,1c.51.34,1,.69,1.51,1a14.49,14.49,0,0,1,3.72,3.81,13.68,13.68,0,0,1,.77,1.35c.62,1.21,1.14,2.81.46,4l0,.06a1.84,1.84,0,0,1-.54.57,3.07,3.07,0,0,1-.76.41,8.56,8.56,0,0,1-3.68.22,5,5,0,0,1-.56-.07,12.24,12.24,0,0,1-4-1.4c-2-1-3.5-1.91-4.86-2.74l-1.16-.71c-.6-.38-1.17-.74-1.76-1.09h0a38.69,38.69,0,0,0-4.29-2.29l-.06,0h0c-2.15-.92-6.79-.46-8.07,1.47l-1.51,2.28a3.21,3.21,0,0,0-.5,1.29c-.36,2.36,1.78,5.15,3.46,6.88a5.47,5.47,0,0,0,1,.82,6.32,6.32,0,0,0,.88.51l3.78,1.79,3.6,1.69.91.43,7.26,3.43h0l9-.13,2.49,0c.51,0,1.86-.07,3.49-.14,3.5-.17,8.35-.4,9.2-.28a10.36,10.36,0,0,1,4,.94,8.49,8.49,0,0,1,1.7,1.07A9.24,9.24,0,0,1,352.92,874.16Z"/><path class="cls-29" d="M516.12,854.43,514.37,857l-.54,2.36-1.49.71L509,861.68l-4.06,1.93-20-4.66-1.87-.43,3.41.05a121,121,0,0,0,14.12-4.47c1.42-2.66,3.76-4.37,5-6.31l3.37,1.88.53.3.09.06,1.36.91.7.47Z"/><path class="cls-29" d="M481.52,841.18l2.07,3.56,2.48,1.65a5,5,0,0,0,.56-.07,12.24,12.24,0,0,0,4-1.4c2-1,3.5-1.91,4.86-2.74l-5.26-3c-.68-1-1.61-2.46-2.75-4.15-.51.34-1,.69-1.51,1a14.49,14.49,0,0,0-3.72,3.81A13.68,13.68,0,0,0,481.52,841.18Z"/><path class="cls-29" d="M482.39,846.17c-.41-.34-.86-.69-1.33-1l0,.06a1.84,1.84,0,0,0,.54.57A3.07,3.07,0,0,0,482.39,846.17Z"/><path class="cls-30" d="M498.21,837.75a9.29,9.29,0,0,1,7.73,16.33l26.25-12.43-7.73-16.33Z"/><path class="cls-30" d="M529.69,843.31c-2.86,1.35-6.1,2.69-9.47,4-3.07,1.2-6.24,2.4-9.33,3.61l-3.26,1.28c-2.74,1.1-5.36,2.2-7.73,3.32.09-.26.2-.52.31-.76a5.45,5.45,0,0,1,.35-.68c1.42-2.66,3.76-4.37,5-6.31a4.6,4.6,0,0,0,.78-2.48c0-3.84-3.33-6-7.86-4.94h0a12.08,12.08,0,0,0-2.09.72l5.82-3.21L522,827l4.59,9.71,3,6.25Z"/><path class="cls-28" d="M558.92,815.55s-10,15.16-10.18,16.05c-.31,1.55-25,23.07-25,23.07a2.09,2.09,0,0,1-.47.3l-9.4,4.43-1.49.71L509,861.68l-4.06,1.93-10.29,4.84-1,.21L459,865.16a9.33,9.33,0,0,1,3.21-5.08,8.49,8.49,0,0,1,1.7-1.07,10.36,10.36,0,0,1,4-.94c.85-.12,5.7.11,9.2.28,1.63.07,3,.13,3.49.14l2.49,0,3.41.05,5.59.08h0l7.26-3.43.91-.43,3.6-1.69,3.78-1.79a6.32,6.32,0,0,0,.88-.51,5.23,5.23,0,0,0,.73-.59l.24-.23c1.68-1.73,3.82-4.52,3.46-6.88a3.21,3.21,0,0,0-.5-1.29l-1.51-2.28c-1.28-1.93-5.92-2.39-8.07-1.47h0l-.06,0a38.69,38.69,0,0,0-4.29,2.29h0c-.59.35-1.16.71-1.76,1.09l-1.16.71c-1.36.83-2.9,1.74-4.86,2.74a12.24,12.24,0,0,1-4,1.4,5,5,0,0,1-.56.07,9.22,9.22,0,0,1-3.32-.11l-.16,0a1.17,1.17,0,0,1-.2-.06,3.07,3.07,0,0,1-.76-.41,1.84,1.84,0,0,1-.54-.57l0-.06c-.68-1.14-.16-2.74.46-4a13.68,13.68,0,0,1,.77-1.35A14.49,14.49,0,0,1,486,836c.5-.35,1-.7,1.51-1l1.39-1,1.1-.73c.57-.37,1.32-.84,2.19-1.37h0l1.91-1.17c6.65-4,17.51-10.38,20.82-12.51.13-.08,8-2.25,13.37-1.17l.13,0a33.44,33.44,0,0,0,4.14.88,12.15,12.15,0,0,0,1.7.12,5.7,5.7,0,0,0,2.55-.52,2.12,2.12,0,0,0,.36-.21l7.66-8.44C552,798.27,558.92,815.55,558.92,815.55Z"/><path class="cls-11" d="M212.05,915l-12.28-12.28a3.53,3.53,0,0,0-5-5L183,885.92a13.49,13.49,0,0,0-19.08,0l23,22.94L174,921.7l2.27,2.27,12.84-12.84,22.94,23A13.49,13.49,0,0,0,212.05,915Z"/><path class="cls-11" d="M82.52,885.92a13.49,13.49,0,0,0-19.08,0L51.16,898.2a3.53,3.53,0,0,0-5,5L34.36,915a13.49,13.49,0,0,0,0,19.08l22.94-23L70.14,924l2.27-2.27L59.58,908.86Z"/><circle class="cls-11" cx="184.56" cy="1050.25" r="18.95"/><circle class="cls-11" cx="66.99" cy="1050.25" r="18.95"/><circle class="cls-11" cx="123.53" cy="985.36" r="87.7"/><circle class="cls-51" cx="123.53" cy="985.36" r="80.63"/><path class="cls-52" d="M123.53,985.36l80.24-7.85q.39,3.91.39,7.85c0,44.24-36.4,80.63-80.63,80.63S42.9,1029.6,42.9,985.36s36.32-80.56,80.5-80.62Z"/><path class="cls-53" d="M123.53,1068.89a83.53,83.53,0,1,1,83.52-83.53A83.61,83.61,0,0,1,123.53,1068.89Zm0-161.26a77.74,77.74,0,1,0,77.74,77.73A77.82,77.82,0,0,0,123.53,907.63Z"/><path d="M133.48,883.53h-18a3.86,3.86,0,1,0,0,7.71h6.42v16.07h4.5V891.24h7.06a3.86,3.86,0,1,0,0-7.71Z"/><rect x="123.85" y="910.52" width="1.93" height="9.64"/><rect x="123.85" y="1050.58" width="1.93" height="9.64"/><rect x="53.82" y="974.76" width="1.93" height="9.64" transform="translate(-924.8 1034.37) rotate(-90)"/><rect x="191.95" y="974.76" width="1.93" height="9.64" transform="translate(-786.67 1172.5) rotate(-90)"/><g class="cls-54"><path d="M178.2,978.83c-1.57-.41-3.1-.77-4.59-1.1l-1.47-.31-17.7.35-3.94.08h-.32l-1.7,0c-5.3.1-10.52.26-15.83.36l-26.52-.2,4,7.35a51.55,51.55,0,0,1,8.41-2.52,50.42,50.42,0,0,1,10.92-1l0,0,0,0a17.14,17.14,0,0,1,4.42,1.54l.61.33,0,0,.55.35.16.11.44.32.16.11.57.47a9.86,9.86,0,0,1,2.26,2.89.41.41,0,0,0,0,.09l1,.08.34,0,.68,0c.15,0,.29,0,.44,0l.69,0,.42,0,1.05,0,.52,0,.65,0,.58,0h1.25l1.17,0h3.29l1.21-.05h.21l1.44-.07.41,0,1.16-.07.4,0,.37,0,.93-.08.3,0,.24,0,.35,0,.54-.06.86-.09.94-.11,1-.12.35,0,1-.13L165,987l.8-.15,1.66-.31.87-.17,1.54-.33.8-.18,1.82-.44.55-.14,1.82-.49.85-.25,1.1-.32.91-.29.37-.11.9-.29.56-.19,1.31-.45.27-.09h0c1.73-.62,3.28-1.24,4.63-1.81C183.43,980.27,180.91,979.53,178.2,978.83Z"/></g><path class="cls-37" d="M132,977l-26.52-.2,4,7.35a49.8,49.8,0,0,1,8.4-2.52,50.56,50.56,0,0,1,10.93-1.05l0,0,2.91-3.54Zm-21.79,2.11a.53.53,0,0,1-.53-.53.52.52,0,0,1,.53-.52.52.52,0,0,1,.52.52A.52.52,0,0,1,110.22,979.08Zm13,0a.52.52,0,0,1-.52-.53.52.52,0,0,1,.52-.52.52.52,0,0,1,.53.52A.53.53,0,0,1,123.24,979.08Z"/><path class="cls-55" d="M123.24,978a.52.52,0,0,0-.52.52.52.52,0,0,0,.52.53.53.53,0,0,0,.53-.53A.52.52,0,0,0,123.24,978Z"/><path class="cls-55" d="M110.22,978a.52.52,0,0,0-.53.52.53.53,0,0,0,.53.53.52.52,0,0,0,.52-.53A.52.52,0,0,0,110.22,978Z"/><path class="cls-56" d="M166.8,985.3l-1.66.31Z"/><path class="cls-56" d="M176.14,983l-1.1.33Z"/><path class="cls-56" d="M160.82,986.29h0l1-.14c.86-.12,1.71-.26,2.54-.4-.83.14-1.68.28-2.54.4Z"/><path class="cls-56" d="M169.21,984.79c-.51.12-1,.23-1.54.33C168.19,985,168.7,984.91,169.21,984.79Z"/><path class="cls-56" d="M171.83,984.17l-1.83.44Z"/><path class="cls-56" d="M174.2,983.54l-1.83.49Z"/><path class="cls-56" d="M177,982l-4-5.53-1.47-.32-17.7.35,5.33,7.45C166.26,983.53,173.05,982.56,177,982Z"/><path class="cls-56" d="M133.87,982.45l0,0Z"/><path class="cls-56" d="M155.25,984.09l-5.39-7.53h-.32l5.36,7.53Z"/><path class="cls-56" d="M140.06,986.94l-.68-.05Z"/><path class="cls-56" d="M141.19,987l-.69,0Z"/><path class="cls-56" d="M135.17,983.34l-.15-.12Z"/><path class="cls-56" d="M154.94,986.9l.38,0h0Z"/><path class="cls-56" d="M138,986.69l0,.09,1,.08-1-.08Z"/><path class="cls-56" d="M153.31,984.12l-5.47-7.52c-5.31.1-10.53.26-15.83.37h-.26l-2.91,3.54,0,0a17,17,0,0,1,4.42,1.53l0,0A97.49,97.49,0,0,0,153.31,984.12Z"/><path class="cls-56" d="M177.06,982.69l.37-.11h0Z"/><path class="cls-56" d="M154.54,986.93l-1.15.08Z"/><path class="cls-56" d="M134.58,982.9l-.16-.1Z"/><path class="cls-56" d="M151.33,987.11l-1.21,0Z"/><path class="cls-56" d="M145.08,987.17l-.67,0Z"/><path class="cls-56" d="M149.57,987.16l-.83,0Z"/><path class="cls-56" d="M146.83,987.19h0Z"/><path class="cls-56" d="M143.83,987.13l-.65,0Z"/><path class="cls-56" d="M142.65,987.09l-1-.05Z"/><path class="cls-56" d="M148.16,987.19h0Z"/><path class="cls-56" d="M156.79,986.75h0l.34,0h0Z"/><path class="cls-56" d="M153,987l-1.43.07Z"/><path class="cls-57" d="M156.54,986.77l-.3,0Z"/><path class="cls-57" d="M158.54,986.57l-.86.09Z"/><path class="cls-57" d="M180.46,981.55h0l-.28.1Z"/><path class="cls-57" d="M160.47,986.33l-1,.13Z"/><path class="cls-57" d="M178.33,982.28l.56-.19Z"/><path class="cls-57" d="M156.79,986.75l.34,0-1.88-2.62h-.35Z"/><path class="cls-57" d="M177,982c-3.94.58-10.73,1.55-17.86,1.95l1.69,2.36,1-.14c.86-.12,1.71-.26,2.54-.4l.8-.14,1.66-.31.87-.18c.52-.1,1-.21,1.54-.33.26-.06.53-.11.79-.18l1.83-.44.54-.14,1.83-.49.84-.24,1.1-.33.92-.28.37-.12Z"/><path class="cls-57" d="M153.31,984.12a97.49,97.49,0,0,1-20.12-2l0,0,.6.34,0,0,.55.35.16.1.44.32.15.12a6.47,6.47,0,0,1,.57.47,9.73,9.73,0,0,1,2.27,2.88l0,.09,1,.08.35,0,.68.05.44,0,.69,0,.42,0,1,.05.53,0,.65,0,.58,0,.67,0h3.66l.83,0h.55l1.21,0h.21L153,987l.42,0,1.15-.08.4,0,.38,0Z"/><path class="cls-56" d="M160.47,986.33l.35,0h0Z"/><path class="cls-58" d="M160.47,986.33l.35,0h0Z"/><path class="cls-56" d="M159.47,986.46l-.93.11Z"/><path class="cls-58" d="M159.47,986.46l-.93.11Z"/><path class="cls-56" d="M157.13,986.72l.55-.06-.55.05Z"/><path class="cls-58" d="M157.13,986.72l.55-.06-.55.05Z"/><path class="cls-56" d="M159.13,983.93l-5.33-7.45-3.94.08,5.39,7.53C156.55,984.06,157.85,984,159.13,983.93Z"/><path class="cls-58" d="M159.13,983.93l-5.33-7.45-3.94.08,5.39,7.53C156.55,984.06,157.85,984,159.13,983.93Z"/><path class="cls-57" d="M159.13,983.93c-1.28.08-2.58.13-3.88.16l1.88,2.62.55-.05.86-.09.93-.11,1-.13.35,0Z"/><path class="cls-58" d="M159.13,983.93c-1.28.08-2.58.13-3.88.16l1.88,2.62.55-.05.86-.09.93-.11,1-.13.35,0Z"/><path class="cls-56" d="M177.43,982.58l.9-.3-.9.29Z"/><path class="cls-59" d="M177.43,982.58l.9-.3-.9.29Z"/><path class="cls-56" d="M180.2,981.64l-1.31.45Z"/><path class="cls-59" d="M180.2,981.64l-1.31.45Z"/><path class="cls-56" d="M180.51,981.52s0,0,0,0c1.74-.62,3.29-1.23,4.64-1.8-2.33-.76-4.85-1.5-7.57-2.2-1.57-.4-3.09-.76-4.58-1.09l4,5.53A28.79,28.79,0,0,1,180.51,981.52Z"/><path class="cls-59" d="M180.51,981.52s0,0,0,0c1.74-.62,3.29-1.23,4.64-1.8-2.33-.76-4.85-1.5-7.57-2.2-1.57-.4-3.09-.76-4.58-1.09l4,5.53A28.79,28.79,0,0,1,180.51,981.52Z"/><path class="cls-57" d="M180.2,981.64l.28-.1s0,0,0,0A28.79,28.79,0,0,0,177,982l.44.59.9-.29.56-.19Z"/><path class="cls-59" d="M180.2,981.64l.28-.1s0,0,0,0A28.79,28.79,0,0,0,177,982l.44.59.9-.29.56-.19Z"/><path class="cls-56" d="M153.6,984.12l1.3,0-5.36-7.53-1.7,0,5.47,7.52Z"/><path class="cls-58" d="M153.6,984.12l1.3,0-5.36-7.53-1.7,0,5.47,7.52Z"/><path class="cls-56" d="M155.32,986.88l.92-.08-.92.07Z"/><path class="cls-58" d="M155.32,986.88l.92-.08-.92.07Z"/><path class="cls-56" d="M156.54,986.77l.25,0h0Z"/><path class="cls-58" d="M156.54,986.77l.25,0h0Z"/><path class="cls-57" d="M154.9,984.1l-1.3,0h-.29l2,2.75.92-.07.3,0,.25,0Z"/><path class="cls-58" d="M154.9,984.1l-1.3,0h-.29l2,2.75.92-.07.3,0,.25,0Z"/><path class="cls-60" d="M153.52,449.92c-11.35-5.28-11.42-18.38-5.1-32s16.68-22.57,28-17.28,15.45,20.63,9.13,34.21S164.88,455.21,153.52,449.92Zm21.77-46.75c-10.2-4.75-24.32,1.13-30,13.34s-.81,26.17,9.39,30.92,26.58,2.19,32.26-10S185.5,407.92,175.29,403.17Z"/><path class="cls-60" d="M192.34,457l-7.27-1c-7.55-11.13-15.92-22.79-25.15-34.82C148.59,406.4,137.44,393,126.79,381l9.66,2.47c7.28,11.61,15.86,24.26,25.9,37.52C172.71,434.61,182.87,446.62,192.34,457Z"/><path class="cls-60" d="M130.46,453.24l1-7.26c11.13-7.56,22.79-15.92,34.82-25.15,14.77-11.33,28.16-22.48,40.2-33.14L204,397.35c-11.61,7.28-24.26,15.86-37.52,25.91C152.85,433.61,140.84,443.78,130.46,453.24Z"/></g></svg>